M48
;Layer_Color=9474304
;FILE_FORMAT=4:4
METRIC,LZ
;TYPE=PLATED
T1F00S00C0.2540
T2F00S00C0.5000
T4F00S00C0.6400
T5F00S00C0.6500
T6F00S00C0.7500
T7F00S00C0.8500
T8F00S00C0.9000
T9F00S00C0.9500
T10F00S00C1.0000
T11F00S00C1.0600
T12F00S00C1.1000
T13F00S00C1.3600
%
T01
X001055Y00102
X00143Y000945
X00148Y000845
X00153Y000895
X00163
X00173Y000945
X00178Y000845
X00333
X00338Y000895
X00348
X00358Y000945
X00363Y000845
X00328Y000945
X003855Y001445
X00433Y00127
X004255Y00117
T02
X0009Y0004
X00092Y0030425
X0009275Y0039175
X0023Y0022
X0042Y0004
X0043Y0054
X0023Y004
X0008Y0057
T04
X00143Y00514
Y00531
Y00548
Y00565
Y00582
X0029Y005873
T05
X001316Y00058445
X001894
X003166
X003744
T06
X003336Y002754
Y003008
Y003262
Y003516
Y00377
X00413
Y003516
Y003262
Y003008
Y002754
Y004024
Y004278
X003336
Y004024
T07
X003299Y00212001
Y00237
X004061
Y00212001
X00393Y004639
X00363
Y005401
X00393
X00318Y005058
Y00582
T08
X00108Y005241
Y005495
Y005749
T09
X00433Y005743
Y005997
X00363
Y005743
T10
X001468Y001319
Y001573
Y001827
Y002081
Y002335
Y002589
Y002843
Y003097
Y003351
Y003605
Y003859
X002992
Y003605
Y003351
Y003097
Y002843
Y002589
Y002335
Y002081
Y001827
Y001573
Y001319
Y004113
Y004367
Y004621
X001468
Y004367
Y004113
T11
X00034Y000158
X00033Y000412
Y000666
Y00092
X00034Y001408
X00033Y001662
Y001916
Y00217
X00034Y002658
X00033Y002912
Y003166
Y00342
X00034Y003908
X00033Y004162
Y004416
Y00467
X00034Y005158
X00033Y005412
Y005666
Y00592
T12
X00473Y00046201
Y00071601
Y00097001
Y00122401
Y00147801
T13
X00473Y00192
Y002174
Y002428
Y00287
Y003124
Y003378
Y00382
Y004074
Y004328
Y00477
Y005024
Y005278
M30
