G04*
G04 #@! TF.GenerationSoftware,Altium Limited,Altium Designer,20.0.10 (225)*
G04*
G04 Layer_Color=65535*
%FSLAX25Y25*%
%MOIN*%
G70*
G01*
G75*
%ADD10C,0.00787*%
%ADD11C,0.00500*%
%ADD12C,0.00394*%
%ADD13C,0.00591*%
D10*
X42207Y29035D02*
G03*
X42207Y29035I-394J0D01*
G01*
D11*
X35908Y1083D02*
X87718D01*
Y26673D01*
X35908D02*
X87718D01*
X35908Y1083D02*
Y26673D01*
D12*
X94689Y4154D02*
Y39350D01*
X123429D01*
Y4154D02*
Y39350D01*
X94689Y4154D02*
X123429D01*
X28937Y4154D02*
Y39350D01*
X197Y4154D02*
X28937D01*
X197D02*
Y39350D01*
X28937D01*
D13*
X67321Y35335D02*
X74408D01*
X72833Y28642D02*
X74408D01*
Y42028D01*
X72833D02*
X74408D01*
X67321D02*
X68896D01*
X67321Y28642D02*
Y42028D01*
Y28642D02*
X68896D01*
X55510Y35335D02*
X62596D01*
X61022Y28642D02*
X62596D01*
Y42028D01*
X61022D02*
X62596D01*
X55510D02*
X57085D01*
X55510Y28642D02*
Y42028D01*
Y28642D02*
X57085D01*
X79132Y35335D02*
X86219D01*
X84644Y28642D02*
X86219D01*
Y42028D01*
X84644D02*
X86219D01*
X79132D02*
X80707D01*
X79132Y28642D02*
Y42028D01*
Y28642D02*
X80707D01*
X43699Y35335D02*
X50785D01*
X49211Y28642D02*
X50785D01*
Y42028D01*
X49211D02*
X50785D01*
X43699D02*
X45274D01*
X43699Y28642D02*
Y42028D01*
Y28642D02*
X45274D01*
M02*
