G04*
G04 #@! TF.GenerationSoftware,Altium Limited,Altium Designer,20.0.10 (225)*
G04*
G04 Layer_Color=65535*
%FSLAX43Y43*%
%MOMM*%
G71*
G01*
G75*
%ADD10C,0.200*%
%ADD11C,0.127*%
%ADD12C,0.254*%
D10*
X35152Y25908D02*
G03*
X35152Y25908I-100J0D01*
G01*
X3390Y14257D02*
G03*
X3390Y14257I-100J0D01*
G01*
X80503Y19264D02*
G03*
X80503Y19264I-100J0D01*
G01*
X20658Y2024D02*
X24258D01*
X14858D02*
X18458D01*
X20658Y26424D02*
X24258D01*
X14858D02*
X18458D01*
X14858Y2024D02*
Y26424D01*
X24258Y2024D02*
Y26424D01*
X62659Y23137D02*
X68659D01*
Y10137D02*
Y23137D01*
X62659Y10137D02*
X68659D01*
X62659D02*
Y23137D01*
X26464Y21613D02*
X32464D01*
Y8613D02*
Y21613D01*
X26464Y8613D02*
X32464D01*
X26464D02*
Y21613D01*
D11*
X35687Y28448D02*
X61087D01*
Y3048D02*
Y28448D01*
X35687Y3048D02*
X61087D01*
X35687D02*
Y28448D01*
X3890Y11757D02*
X13890D01*
X3890D02*
Y26757D01*
X13890D01*
Y11757D02*
Y26757D01*
X69803Y11764D02*
Y21764D01*
Y11764D02*
X79803D01*
Y21764D01*
X69803D02*
X79803D01*
D12*
X14881Y29156D02*
X15897Y27632D01*
Y29156D02*
X14881Y27632D01*
X17421Y29156D02*
X16405D01*
Y28394D01*
X16913D01*
X16405D01*
Y27632D01*
X17928D02*
X18436D01*
X18182D01*
Y29156D01*
X17928Y28902D01*
X35116Y29477D02*
Y31000D01*
X35877D01*
X36131Y30746D01*
Y30238D01*
X35877Y29985D01*
X35116D01*
X37655Y30746D02*
X37401Y31000D01*
X36893D01*
X36639Y30746D01*
Y30492D01*
X36893Y30238D01*
X37401D01*
X37655Y29985D01*
Y29731D01*
X37401Y29477D01*
X36893D01*
X36639Y29731D01*
X38163Y29477D02*
X38670D01*
X38416D01*
Y31000D01*
X38163Y30746D01*
X70786Y24318D02*
X70278D01*
X70532D01*
Y23049D01*
X70278Y22795D01*
X70024D01*
X69770Y23049D01*
X72309Y22795D02*
X71294D01*
X72309Y23810D01*
Y24064D01*
X72055Y24318D01*
X71547D01*
X71294Y24064D01*
X4356Y29328D02*
X3848D01*
X4102D01*
Y28058D01*
X3848Y27804D01*
X3594D01*
X3340Y28058D01*
X4864Y27804D02*
X5371D01*
X5118D01*
Y29328D01*
X4864Y29074D01*
X63792Y25285D02*
X63538Y25539D01*
X63030D01*
X62776Y25285D01*
Y24270D01*
X63030Y24016D01*
X63538D01*
X63792Y24270D01*
X65315Y24016D02*
X64300D01*
X65315Y25031D01*
Y25285D01*
X65061Y25539D01*
X64554D01*
X64300Y25285D01*
X27597Y23761D02*
X27343Y24015D01*
X26835D01*
X26581Y23761D01*
Y22746D01*
X26835Y22492D01*
X27343D01*
X27597Y22746D01*
X28105Y22492D02*
X28612D01*
X28359D01*
Y24015D01*
X28105Y23761D01*
M02*
