G04*
G04 #@! TF.GenerationSoftware,Altium Limited,Altium Designer,20.0.10 (225)*
G04*
G04 Layer_Color=16711935*
%FSLAX43Y43*%
%MOMM*%
G71*
G01*
G75*
%ADD10C,0.200*%
%ADD11C,0.127*%
%ADD26C,0.100*%
D10*
X35152Y25908D02*
G03*
X35152Y25908I-100J0D01*
G01*
D02*
G03*
X35152Y25908I-100J0D01*
G01*
X3390Y14257D02*
G03*
X3390Y14257I-100J0D01*
G01*
D02*
G03*
X3390Y14257I-100J0D01*
G01*
D11*
X35687Y28448D02*
X61087D01*
Y3048D02*
Y28448D01*
X35687Y3048D02*
X61087D01*
X35687D02*
Y28448D01*
X61087D01*
Y3048D02*
Y28448D01*
X35687Y3048D02*
X61087D01*
X35687D02*
Y28448D01*
X3890Y11757D02*
X13890D01*
X3890D02*
Y26757D01*
X13890D01*
Y11757D02*
Y26757D01*
X3890Y11757D02*
X13890D01*
X3890D02*
Y26757D01*
X13890D01*
Y11757D02*
Y26757D01*
D26*
X14858Y26424D02*
X24258D01*
Y2024D02*
Y26424D01*
X14858Y2024D02*
X24258D01*
X14858D02*
Y26424D01*
X62659Y23137D02*
X68659D01*
Y10137D02*
Y23137D01*
X62659Y10137D02*
X68659D01*
X62659D02*
Y23137D01*
X26464Y21613D02*
X32464D01*
Y8613D02*
Y21613D01*
X26464Y8613D02*
X32464D01*
X26464D02*
Y21613D01*
M02*
