G04*
G04 #@! TF.GenerationSoftware,Altium Limited,Altium Designer,20.0.10 (225)*
G04*
G04 Layer_Color=8388736*
%FSLAX25Y25*%
%MOIN*%
G70*
G01*
G75*
G04:AMPARAMS|DCode=28|XSize=70.99mil|YSize=102.49mil|CornerRadius=0mil|HoleSize=0mil|Usage=FLASHONLY|Rotation=114.000|XOffset=0mil|YOffset=0mil|HoleType=Round|Shape=Rectangle|*
%AMROTATEDRECTD28*
4,1,4,0.06125,-0.01158,-0.03238,-0.05327,-0.06125,0.01158,0.03238,0.05327,0.06125,-0.01158,0.0*
%
%ADD28ROTATEDRECTD28*%

%ADD29R,0.10249X0.07099*%
G04:AMPARAMS|DCode=30|XSize=70.99mil|YSize=102.49mil|CornerRadius=0mil|HoleSize=0mil|Usage=FLASHONLY|Rotation=66.000|XOffset=0mil|YOffset=0mil|HoleType=Round|Shape=Rectangle|*
%AMROTATEDRECTD30*
4,1,4,0.03238,-0.05327,-0.06125,-0.01158,-0.03238,0.05327,0.06125,0.01158,0.03238,-0.05327,0.0*
%
%ADD30ROTATEDRECTD30*%

G04:AMPARAMS|DCode=31|XSize=70.99mil|YSize=102.49mil|CornerRadius=0mil|HoleSize=0mil|Usage=FLASHONLY|Rotation=42.000|XOffset=0mil|YOffset=0mil|HoleType=Round|Shape=Rectangle|*
%AMROTATEDRECTD31*
4,1,4,0.00791,-0.06183,-0.06067,0.01433,-0.00791,0.06183,0.06067,-0.01433,0.00791,-0.06183,0.0*
%
%ADD31ROTATEDRECTD31*%

G04:AMPARAMS|DCode=32|XSize=70.99mil|YSize=102.49mil|CornerRadius=0mil|HoleSize=0mil|Usage=FLASHONLY|Rotation=18.000|XOffset=0mil|YOffset=0mil|HoleType=Round|Shape=Rectangle|*
%AMROTATEDRECTD32*
4,1,4,-0.01792,-0.05971,-0.04959,0.03777,0.01792,0.05971,0.04959,-0.03777,-0.01792,-0.05971,0.0*
%
%ADD32ROTATEDRECTD32*%

G04:AMPARAMS|DCode=33|XSize=70.99mil|YSize=102.49mil|CornerRadius=0mil|HoleSize=0mil|Usage=FLASHONLY|Rotation=354.000|XOffset=0mil|YOffset=0mil|HoleType=Round|Shape=Rectangle|*
%AMROTATEDRECTD33*
4,1,4,-0.04066,-0.04725,-0.02995,0.05467,0.04066,0.04725,0.02995,-0.05467,-0.04066,-0.04725,0.0*
%
%ADD33ROTATEDRECTD33*%

G04:AMPARAMS|DCode=34|XSize=70.99mil|YSize=102.49mil|CornerRadius=0mil|HoleSize=0mil|Usage=FLASHONLY|Rotation=330.000|XOffset=0mil|YOffset=0mil|HoleType=Round|Shape=Rectangle|*
%AMROTATEDRECTD34*
4,1,4,-0.05636,-0.02663,-0.00512,0.06213,0.05636,0.02663,0.00512,-0.06213,-0.05636,-0.02663,0.0*
%
%ADD34ROTATEDRECTD34*%

G04:AMPARAMS|DCode=35|XSize=70.99mil|YSize=102.49mil|CornerRadius=0mil|HoleSize=0mil|Usage=FLASHONLY|Rotation=306.000|XOffset=0mil|YOffset=0mil|HoleType=Round|Shape=Rectangle|*
%AMROTATEDRECTD35*
4,1,4,-0.06232,-0.00140,0.02059,0.05884,0.06232,0.00140,-0.02059,-0.05884,-0.06232,-0.00140,0.0*
%
%ADD35ROTATEDRECTD35*%

G04:AMPARAMS|DCode=36|XSize=70.99mil|YSize=102.49mil|CornerRadius=0mil|HoleSize=0mil|Usage=FLASHONLY|Rotation=282.000|XOffset=0mil|YOffset=0mil|HoleType=Round|Shape=Rectangle|*
%AMROTATEDRECTD36*
4,1,4,-0.05750,0.02407,0.04274,0.04537,0.05750,-0.02407,-0.04274,-0.04537,-0.05750,0.02407,0.0*
%
%ADD36ROTATEDRECTD36*%

G04:AMPARAMS|DCode=37|XSize=70.99mil|YSize=102.49mil|CornerRadius=0mil|HoleSize=0mil|Usage=FLASHONLY|Rotation=258.000|XOffset=0mil|YOffset=0mil|HoleType=Round|Shape=Rectangle|*
%AMROTATEDRECTD37*
4,1,4,-0.04274,0.04537,0.05750,0.02407,0.04274,-0.04537,-0.05750,-0.02407,-0.04274,0.04537,0.0*
%
%ADD37ROTATEDRECTD37*%

G04:AMPARAMS|DCode=38|XSize=70.99mil|YSize=102.49mil|CornerRadius=0mil|HoleSize=0mil|Usage=FLASHONLY|Rotation=234.000|XOffset=0mil|YOffset=0mil|HoleType=Round|Shape=Rectangle|*
%AMROTATEDRECTD38*
4,1,4,-0.02059,0.05884,0.06232,-0.00140,0.02059,-0.05884,-0.06232,0.00140,-0.02059,0.05884,0.0*
%
%ADD38ROTATEDRECTD38*%

G04:AMPARAMS|DCode=39|XSize=70.99mil|YSize=102.49mil|CornerRadius=0mil|HoleSize=0mil|Usage=FLASHONLY|Rotation=210.000|XOffset=0mil|YOffset=0mil|HoleType=Round|Shape=Rectangle|*
%AMROTATEDRECTD39*
4,1,4,0.00512,0.06213,0.05636,-0.02663,-0.00512,-0.06213,-0.05636,0.02663,0.00512,0.06213,0.0*
%
%ADD39ROTATEDRECTD39*%

G04:AMPARAMS|DCode=40|XSize=70.99mil|YSize=102.49mil|CornerRadius=0mil|HoleSize=0mil|Usage=FLASHONLY|Rotation=186.000|XOffset=0mil|YOffset=0mil|HoleType=Round|Shape=Rectangle|*
%AMROTATEDRECTD40*
4,1,4,0.02995,0.05467,0.04066,-0.04725,-0.02995,-0.05467,-0.04066,0.04725,0.02995,0.05467,0.0*
%
%ADD40ROTATEDRECTD40*%

G04:AMPARAMS|DCode=41|XSize=70.99mil|YSize=102.49mil|CornerRadius=0mil|HoleSize=0mil|Usage=FLASHONLY|Rotation=162.000|XOffset=0mil|YOffset=0mil|HoleType=Round|Shape=Rectangle|*
%AMROTATEDRECTD41*
4,1,4,0.04959,0.03777,0.01792,-0.05971,-0.04959,-0.03777,-0.01792,0.05971,0.04959,0.03777,0.0*
%
%ADD41ROTATEDRECTD41*%

G04:AMPARAMS|DCode=42|XSize=70.99mil|YSize=102.49mil|CornerRadius=0mil|HoleSize=0mil|Usage=FLASHONLY|Rotation=138.000|XOffset=0mil|YOffset=0mil|HoleType=Round|Shape=Rectangle|*
%AMROTATEDRECTD42*
4,1,4,0.06067,0.01433,-0.00791,-0.06183,-0.06067,-0.01433,0.00791,0.06183,0.06067,0.01433,0.0*
%
%ADD42ROTATEDRECTD42*%

%ADD43R,0.09068X0.09068*%
%ADD44C,0.09068*%
%ADD45C,0.06312*%
D28*
X192325Y145011D02*
D03*
X187761Y155262D02*
D03*
D29*
X196850Y112500D02*
D03*
Y123721D02*
D03*
D30*
X187761Y80958D02*
D03*
X192325Y91209D02*
D03*
D31*
X166629Y55841D02*
D03*
X174967Y63349D02*
D03*
D32*
X137107Y41490D02*
D03*
X147778Y44958D02*
D03*
D33*
X104300Y40388D02*
D03*
X115459Y39215D02*
D03*
D34*
X73882Y52724D02*
D03*
X83599Y47114D02*
D03*
D35*
X51111Y76367D02*
D03*
X57706Y67289D02*
D03*
D36*
X39924Y107227D02*
D03*
X42257Y96252D02*
D03*
D37*
Y139969D02*
D03*
X39924Y128994D02*
D03*
D38*
X57706Y168931D02*
D03*
X51111Y159854D02*
D03*
D39*
X83599Y189106D02*
D03*
X73882Y183496D02*
D03*
D40*
X115459Y197005D02*
D03*
X104300Y195833D02*
D03*
D41*
X147778Y191263D02*
D03*
X137107Y194730D02*
D03*
D42*
X174967Y172872D02*
D03*
X166629Y180380D02*
D03*
D43*
X228346Y108268D02*
D03*
D44*
Y127953D02*
D03*
D45*
X160238Y221078D02*
D03*
X186219Y206078D02*
D03*
X160238Y15143D02*
D03*
X186219Y30143D02*
D03*
X75982Y15143D02*
D03*
X50002Y30143D02*
D03*
X7874Y133110D02*
D03*
Y103110D02*
D03*
X50002Y206078D02*
D03*
X75982Y221078D02*
D03*
M02*
