G04*
G04 #@! TF.GenerationSoftware,Altium Limited,Altium Designer,20.0.10 (225)*
G04*
G04 Layer_Color=16711935*
%FSLAX25Y25*%
%MOIN*%
G70*
G01*
G75*
%ADD10C,0.00787*%
%ADD11C,0.00500*%
D10*
X206693Y108268D02*
G03*
X206693Y108268I-394J0D01*
G01*
X195201Y138467D02*
G03*
X195201Y138467I-394J0D01*
G01*
X196850Y105512D02*
G03*
X196850Y105512I-394J0D01*
G01*
X184953Y74735D02*
G03*
X184953Y74735I-394J0D01*
G01*
X161565Y51458D02*
G03*
X161565Y51458I-394J0D01*
G01*
X130733Y39705D02*
G03*
X130733Y39705I-394J0D01*
G01*
X97785Y41510D02*
G03*
X97785Y41510I-394J0D01*
G01*
X68420Y56559D02*
G03*
X68420Y56559I-394J0D01*
G01*
X47715Y82252D02*
G03*
X47715Y82252I-394J0D01*
G01*
X39250Y114144D02*
G03*
X39250Y114144I-394J0D01*
G01*
X44489Y146722D02*
G03*
X44489Y146722I-394J0D01*
G01*
X62525Y174354D02*
G03*
X62525Y174354I-394J0D01*
G01*
X90241Y192260D02*
G03*
X90241Y192260I-394J0D01*
G01*
X122844Y197344D02*
G03*
X122844Y197344I-394J0D01*
G01*
X154696Y188729D02*
G03*
X154696Y188729I-394J0D01*
G01*
X180290Y167903D02*
G03*
X180290Y167903I-394J0D01*
G01*
D11*
X208661Y98425D02*
X248031D01*
X208661D02*
Y137795D01*
X248031D01*
Y98425D02*
Y137795D01*
X182205Y154189D02*
X187810Y141601D01*
X182205Y154189D02*
X192276Y158673D01*
X197881Y146084D01*
X187810Y141601D02*
X197881Y146084D01*
X191339Y111221D02*
Y125000D01*
X202362D01*
Y111221D02*
Y125000D01*
X191339Y111221D02*
X202362D01*
X182205Y82032D02*
X187810Y94620D01*
X197881Y90136D01*
X192276Y77548D02*
X197881Y90136D01*
X182205Y82032D02*
X192276Y77548D01*
X161989Y59081D02*
X172230Y68301D01*
X179606Y60109D01*
X169366Y50889D02*
X179606Y60109D01*
X161989Y59081D02*
X169366Y50889D01*
X134186Y46337D02*
X147292Y50595D01*
X150698Y40111D01*
X137593Y35853D02*
X150698Y40111D01*
X134186Y46337D02*
X137593Y35853D01*
X103604Y46003D02*
X117308Y44563D01*
X116156Y33600D02*
X117308Y44563D01*
X102452Y35040D02*
X116156Y33600D01*
X102452Y35040D02*
X103604Y46003D01*
X75529Y58138D02*
X87463Y51248D01*
X81951Y41701D02*
X87463Y51248D01*
X70018Y48591D02*
X81951Y41701D01*
X70018Y48591D02*
X75529Y58138D01*
X54818Y80642D02*
X62917Y69494D01*
X53999Y63014D02*
X62917Y69494D01*
X45899Y74162D02*
X53999Y63014D01*
X45899Y74162D02*
X54818Y80642D01*
X45050Y109624D02*
X47915Y96146D01*
X37132Y93854D02*
X47915Y96146D01*
X34267Y107333D02*
X37132Y93854D01*
X34267Y107333D02*
X45050Y109624D01*
Y126596D02*
X47915Y140075D01*
X34267Y128888D02*
X45050Y126596D01*
X34267Y128888D02*
X37132Y142366D01*
X47915Y140075D01*
X54818Y155579D02*
X62917Y166727D01*
X45899Y162058D02*
X54818Y155579D01*
X45899Y162058D02*
X53999Y173206D01*
X62917Y166727D01*
X75529Y178083D02*
X87463Y184973D01*
X70018Y187630D02*
X75529Y178083D01*
X70018Y187630D02*
X81951Y194519D01*
X87463Y184973D01*
X103604Y190217D02*
X117308Y191658D01*
X102452Y201181D02*
X103604Y190217D01*
X102452Y201181D02*
X116156Y202621D01*
X117308Y191658D01*
X134186Y189884D02*
X147292Y185626D01*
X134186Y189884D02*
X137593Y200368D01*
X150698Y196110D01*
X147292Y185626D02*
X150698Y196110D01*
X161989Y177140D02*
X172230Y167919D01*
X161989Y177140D02*
X169366Y185332D01*
X179606Y176111D01*
X172230Y167919D02*
X179606Y176111D01*
M02*
