G04*
G04 #@! TF.GenerationSoftware,Altium Limited,Altium Designer,20.0.10 (225)*
G04*
G04 Layer_Color=65535*
%FSLAX25Y25*%
%MOIN*%
G70*
G01*
G75*
%ADD10C,0.00787*%
%ADD11C,0.00500*%
%ADD12C,0.01000*%
D10*
X206693Y108268D02*
G03*
X206693Y108268I-394J0D01*
G01*
X195201Y138467D02*
G03*
X195201Y138467I-394J0D01*
G01*
X196850Y105512D02*
G03*
X196850Y105512I-394J0D01*
G01*
X184953Y74735D02*
G03*
X184953Y74735I-394J0D01*
G01*
X161565Y51458D02*
G03*
X161565Y51458I-394J0D01*
G01*
X130733Y39705D02*
G03*
X130733Y39705I-394J0D01*
G01*
X97785Y41510D02*
G03*
X97785Y41510I-394J0D01*
G01*
X68420Y56559D02*
G03*
X68420Y56559I-394J0D01*
G01*
X47715Y82252D02*
G03*
X47715Y82252I-394J0D01*
G01*
X39250Y114144D02*
G03*
X39250Y114144I-394J0D01*
G01*
X44489Y146722D02*
G03*
X44489Y146722I-394J0D01*
G01*
X62525Y174354D02*
G03*
X62525Y174354I-394J0D01*
G01*
X90241Y192260D02*
G03*
X90241Y192260I-394J0D01*
G01*
X122844Y197344D02*
G03*
X122844Y197344I-394J0D01*
G01*
X154696Y188729D02*
G03*
X154696Y188729I-394J0D01*
G01*
X180290Y167903D02*
G03*
X180290Y167903I-394J0D01*
G01*
X163068Y215980D02*
X164568Y218578D01*
X163068Y215980D02*
X180389Y205979D01*
X183389Y211176D01*
X166068Y221176D02*
X183389Y211176D01*
X164568Y218578D02*
X166068Y221176D01*
X181889Y208578D02*
X182668Y208128D01*
X163789Y219028D02*
X164568Y218578D01*
Y17643D02*
X166068Y15045D01*
X183389Y25045D01*
X180389Y30241D02*
X183389Y25045D01*
X163068Y20241D02*
X180389Y30241D01*
X163068Y20241D02*
X164568Y17643D01*
X181889Y27643D02*
X182668Y28093D01*
X163789Y17193D02*
X164568Y17643D01*
X71652D02*
X73152Y20241D01*
X55832Y30241D02*
X73152Y20241D01*
X52832Y25045D02*
X55832Y30241D01*
X52832Y25045D02*
X70152Y15045D01*
X71652Y17643D01*
X53552Y28093D02*
X54332Y27643D01*
X71652Y17643D02*
X72432Y17193D01*
X4874Y128110D02*
X7874D01*
X4874Y108110D02*
Y128110D01*
Y108110D02*
X10874D01*
Y128110D01*
X7874D02*
X10874D01*
X7874Y107210D02*
Y108110D01*
Y128110D02*
Y129010D01*
X54332Y208578D02*
X55832Y205979D01*
X73152Y215980D01*
X70152Y221176D02*
X73152Y215980D01*
X52832Y211176D02*
X70152Y221176D01*
X52832Y211176D02*
X54332Y208578D01*
X71652Y218578D02*
X72432Y219028D01*
X53552Y208128D02*
X54332Y208578D01*
D11*
X208661Y98425D02*
X248031D01*
X208661D02*
Y137795D01*
X248031D01*
Y98425D02*
Y137795D01*
X181797Y154007D02*
X187402Y141419D01*
X192684Y158854D02*
X198289Y146266D01*
X190892Y111221D02*
Y125000D01*
X202809Y111221D02*
Y125000D01*
X181797Y82213D02*
X187402Y94801D01*
X192684Y77366D02*
X198289Y89954D01*
X161690Y59413D02*
X171931Y68633D01*
X169665Y50557D02*
X179905Y59777D01*
X134048Y46762D02*
X147153Y51020D01*
X137731Y35428D02*
X150836Y39686D01*
X103650Y46448D02*
X117355Y45007D01*
X102405Y34596D02*
X116109Y33155D01*
X75753Y58525D02*
X87686Y51635D01*
X69794Y48204D02*
X81727Y41314D01*
X55179Y80904D02*
X63279Y69756D01*
X45538Y73900D02*
X53637Y62752D01*
X45487Y109717D02*
X48352Y96239D01*
X33830Y107240D02*
X36695Y93761D01*
X45487Y126503D02*
X48352Y139982D01*
X33830Y128981D02*
X36695Y142459D01*
X55179Y155316D02*
X63279Y166464D01*
X45538Y162321D02*
X53637Y173469D01*
X75753Y177696D02*
X87686Y184586D01*
X69794Y188017D02*
X81727Y194906D01*
X103650Y189773D02*
X117355Y191213D01*
X102405Y201625D02*
X116109Y203065D01*
X134048Y189459D02*
X147153Y185201D01*
X137731Y200793D02*
X150836Y196535D01*
X161690Y176808D02*
X171931Y167587D01*
X169665Y185664D02*
X179905Y176444D01*
D12*
X156800Y228600D02*
Y234598D01*
X159799D01*
X160799Y233598D01*
Y231599D01*
X159799Y230599D01*
X156800D01*
X158799D02*
X160799Y228600D01*
X165797D02*
Y234598D01*
X162798Y231599D01*
X166797D01*
X46600Y228600D02*
Y234598D01*
X49599D01*
X50599Y233598D01*
Y231599D01*
X49599Y230599D01*
X46600D01*
X48599D02*
X50599Y228600D01*
X52598Y233598D02*
X53598Y234598D01*
X55597D01*
X56597Y233598D01*
Y232599D01*
X55597Y231599D01*
X54597D01*
X55597D01*
X56597Y230599D01*
Y229600D01*
X55597Y228600D01*
X53598D01*
X52598Y229600D01*
X5500Y139300D02*
Y145298D01*
X8499D01*
X9499Y144298D01*
Y142299D01*
X8499Y141299D01*
X5500D01*
X7499D02*
X9499Y139300D01*
X15497D02*
X11498D01*
X15497Y143299D01*
Y144298D01*
X14497Y145298D01*
X12498D01*
X11498Y144298D01*
X46600Y37700D02*
Y43698D01*
X49599D01*
X50599Y42698D01*
Y40699D01*
X49599Y39699D01*
X46600D01*
X48599D02*
X50599Y37700D01*
X52598D02*
X54597D01*
X53598D01*
Y43698D01*
X52598Y42698D01*
X156800Y37700D02*
Y43698D01*
X159799D01*
X160799Y42698D01*
Y40699D01*
X159799Y39699D01*
X156800D01*
X158799D02*
X160799Y37700D01*
X162798Y42698D02*
X163798Y43698D01*
X165797D01*
X166797Y42698D01*
Y38700D01*
X165797Y37700D01*
X163798D01*
X162798Y38700D01*
Y42698D01*
X229999Y146499D02*
X228000D01*
X229000D01*
Y141501D01*
X228000Y140501D01*
X227000D01*
X226001Y141501D01*
X181000Y170798D02*
Y164800D01*
X183999D01*
X184999Y165800D01*
Y169798D01*
X183999Y170798D01*
X181000D01*
X186998Y164800D02*
X188997D01*
X187998D01*
Y170798D01*
X186998Y169798D01*
X194995Y164800D02*
Y170798D01*
X191996Y167799D01*
X195995D01*
X160100Y197098D02*
Y191100D01*
X163099D01*
X164099Y192100D01*
Y196098D01*
X163099Y197098D01*
X160100D01*
X166098Y191100D02*
X168097D01*
X167098D01*
Y197098D01*
X166098Y196098D01*
X171096D02*
X172096Y197098D01*
X174095D01*
X175095Y196098D01*
Y195099D01*
X174095Y194099D01*
X173096D01*
X174095D01*
X175095Y193099D01*
Y192100D01*
X174095Y191100D01*
X172096D01*
X171096Y192100D01*
X132000Y211298D02*
Y205300D01*
X134999D01*
X135999Y206300D01*
Y210298D01*
X134999Y211298D01*
X132000D01*
X137998Y205300D02*
X139997D01*
X138998D01*
Y211298D01*
X137998Y210298D01*
X146995Y205300D02*
X142996D01*
X146995Y209299D01*
Y210298D01*
X145995Y211298D01*
X143996D01*
X142996Y210298D01*
X100400Y213398D02*
Y207400D01*
X103399D01*
X104399Y208400D01*
Y212398D01*
X103399Y213398D01*
X100400D01*
X106398Y207400D02*
X108397D01*
X107398D01*
Y213398D01*
X106398Y212398D01*
X111396Y207400D02*
X113396D01*
X112396D01*
Y213398D01*
X111396Y212398D01*
X67900Y207698D02*
Y201700D01*
X70899D01*
X71899Y202700D01*
Y206698D01*
X70899Y207698D01*
X67900D01*
X73898Y201700D02*
X75897D01*
X74898D01*
Y207698D01*
X73898Y206698D01*
X78896D02*
X79896Y207698D01*
X81896D01*
X82895Y206698D01*
Y202700D01*
X81896Y201700D01*
X79896D01*
X78896Y202700D01*
Y206698D01*
X58502Y160499D02*
Y154501D01*
X61501D01*
X62500Y155501D01*
Y159499D01*
X61501Y160499D01*
X58502D01*
X64500Y155501D02*
X65499Y154501D01*
X67499D01*
X68498Y155501D01*
Y159499D01*
X67499Y160499D01*
X65499D01*
X64500Y159499D01*
Y158500D01*
X65499Y157500D01*
X68498D01*
X47502Y133499D02*
Y127501D01*
X50501D01*
X51500Y128501D01*
Y132499D01*
X50501Y133499D01*
X47502D01*
X53500Y132499D02*
X54499Y133499D01*
X56499D01*
X57498Y132499D01*
Y131500D01*
X56499Y130500D01*
X57498Y129500D01*
Y128501D01*
X56499Y127501D01*
X54499D01*
X53500Y128501D01*
Y129500D01*
X54499Y130500D01*
X53500Y131500D01*
Y132499D01*
X54499Y130500D02*
X56499D01*
X49002Y106499D02*
Y100501D01*
X52001D01*
X53000Y101501D01*
Y105499D01*
X52001Y106499D01*
X49002D01*
X55000D02*
X58998D01*
Y105499D01*
X55000Y101501D01*
Y100501D01*
X59002Y81999D02*
Y76001D01*
X62001D01*
X63000Y77001D01*
Y80999D01*
X62001Y81999D01*
X59002D01*
X68998D02*
X66999Y80999D01*
X65000Y79000D01*
Y77001D01*
X65999Y76001D01*
X67999D01*
X68998Y77001D01*
Y78000D01*
X67999Y79000D01*
X65000D01*
X79502Y63999D02*
Y58001D01*
X82501D01*
X83500Y59001D01*
Y62999D01*
X82501Y63999D01*
X79502D01*
X89498D02*
X85500D01*
Y61000D01*
X87499Y62000D01*
X88499D01*
X89498Y61000D01*
Y59001D01*
X88499Y58001D01*
X86499D01*
X85500Y59001D01*
X105002Y55499D02*
Y49501D01*
X108001D01*
X109000Y50501D01*
Y54499D01*
X108001Y55499D01*
X105002D01*
X113999Y49501D02*
Y55499D01*
X111000Y52500D01*
X114998D01*
X132502Y56999D02*
Y51001D01*
X135501D01*
X136500Y52001D01*
Y55999D01*
X135501Y56999D01*
X132502D01*
X138500Y55999D02*
X139499Y56999D01*
X141499D01*
X142498Y55999D01*
Y55000D01*
X141499Y54000D01*
X140499D01*
X141499D01*
X142498Y53000D01*
Y52001D01*
X141499Y51001D01*
X139499D01*
X138500Y52001D01*
X157502Y71499D02*
Y65501D01*
X160501D01*
X161500Y66501D01*
Y70499D01*
X160501Y71499D01*
X157502D01*
X167498Y65501D02*
X163500D01*
X167498Y69500D01*
Y70499D01*
X166499Y71499D01*
X164499D01*
X163500Y70499D01*
X174501Y92499D02*
Y86501D01*
X177500D01*
X178500Y87501D01*
Y91499D01*
X177500Y92499D01*
X174501D01*
X180499Y86501D02*
X182499D01*
X181499D01*
Y92499D01*
X180499Y91499D01*
X191300Y136998D02*
Y131000D01*
X194299D01*
X195299Y132000D01*
Y135998D01*
X194299Y136998D01*
X191300D01*
X197298Y135998D02*
X198298Y136998D01*
X200297D01*
X201297Y135998D01*
Y132000D01*
X200297Y131000D01*
X198298D01*
X197298Y132000D01*
Y135998D01*
M02*
