G04*
G04 #@! TF.GenerationSoftware,Altium Limited,Altium Designer,20.0.10 (225)*
G04*
G04 Layer_Color=32768*
%FSLAX25Y25*%
%MOIN*%
G70*
G01*
G75*
%ADD49C,0.00197*%
D49*
X207677Y97441D02*
X249016D01*
X207677D02*
Y138779D01*
X249016D01*
Y97441D02*
Y138779D01*
X180145Y156396D02*
X188072Y138593D01*
X180145Y156396D02*
X192014Y161681D01*
X199941Y143877D01*
X188072Y138593D02*
X199941Y143877D01*
X190354Y108366D02*
Y127854D01*
X203346D01*
Y108366D02*
Y127854D01*
X190354Y108366D02*
X203346D01*
X180145Y79824D02*
X188072Y97628D01*
X199941Y92343D01*
X192014Y74540D02*
X199941Y92343D01*
X180145Y79824D02*
X192014Y74540D01*
X159210Y57902D02*
X173692Y70942D01*
X182386Y61287D01*
X167903Y48247D02*
X182386Y61287D01*
X159210Y57902D02*
X167903Y48247D01*
X131168Y46391D02*
X149702Y52413D01*
X153717Y40057D01*
X135182Y34035D02*
X153717Y40057D01*
X131168Y46391D02*
X135182Y34035D01*
X100868Y47280D02*
X120249Y45243D01*
X118891Y32322D02*
X120249Y45243D01*
X99510Y34359D02*
X118891Y32322D01*
X99510Y34359D02*
X100868Y47280D01*
X73550Y60417D02*
X90427Y50673D01*
X83931Y39421D02*
X90427Y50673D01*
X67054Y49166D02*
X83931Y39421D01*
X67054Y49166D02*
X73550Y60417D01*
X53936Y83529D02*
X65391Y67763D01*
X54880Y60127D02*
X65391Y67763D01*
X43425Y75893D02*
X54880Y60127D01*
X43425Y75893D02*
X53936Y83529D01*
X45419Y112621D02*
X49471Y93559D01*
X36762Y90857D02*
X49471Y93559D01*
X32711Y109920D02*
X36762Y90857D01*
X32711Y109920D02*
X45419Y112621D01*
Y123600D02*
X49471Y142662D01*
X32711Y126301D02*
X45419Y123600D01*
X32711Y126301D02*
X36762Y145363D01*
X49471Y142662D01*
X53936Y152691D02*
X65391Y168457D01*
X43425Y160328D02*
X53936Y152691D01*
X43425Y160328D02*
X54880Y176094D01*
X65391Y168457D01*
X73550Y175803D02*
X90427Y185547D01*
X67054Y187055D02*
X73550Y175803D01*
X67054Y187055D02*
X83931Y196799D01*
X90427Y185547D01*
X100868Y188940D02*
X120249Y190977D01*
X99510Y201861D02*
X100868Y188940D01*
X99510Y201861D02*
X118891Y203898D01*
X120249Y190977D01*
X131168Y189830D02*
X149702Y183807D01*
X131168Y189830D02*
X135182Y202186D01*
X153717Y196164D01*
X149702Y183807D02*
X153717Y196164D01*
X159210Y178318D02*
X173692Y165278D01*
X159210Y178318D02*
X167903Y187973D01*
X182386Y174933D01*
X173692Y165278D02*
X182386Y174933D01*
M02*
