G04*
G04 #@! TF.GenerationSoftware,Altium Limited,Altium Designer,20.0.10 (225)*
G04*
G04 Layer_Color=16711935*
%FSLAX44Y44*%
%MOMM*%
G71*
G01*
G75*
%ADD26C,1.6092*%
%ADD27C,1.8796*%
%ADD28C,1.6032*%
%ADD29C,1.4500*%
%ADD30R,1.4500X1.4500*%
%ADD31C,2.2432*%
%ADD32R,2.2432X2.2432*%
%ADD33R,1.7932X1.7932*%
%ADD34C,1.7932*%
%ADD35C,1.8532*%
%ADD36R,1.8532X1.8532*%
%ADD37C,1.2500*%
%ADD38R,1.2500X1.2500*%
%ADD39O,1.1500X2.2500*%
%ADD40O,1.1500X1.7500*%
%ADD41C,0.6500*%
%ADD42C,1.1492*%
%ADD43C,1.0000*%
%ADD44C,0.5080*%
D26*
X299200Y462100D02*
D03*
Y436700D02*
D03*
Y411300D02*
D03*
Y385900D02*
D03*
Y360500D02*
D03*
Y335100D02*
D03*
Y309700D02*
D03*
Y284300D02*
D03*
Y258900D02*
D03*
Y233500D02*
D03*
Y208100D02*
D03*
Y182700D02*
D03*
Y157300D02*
D03*
Y131900D02*
D03*
X146800Y462100D02*
D03*
Y436700D02*
D03*
Y411300D02*
D03*
Y385900D02*
D03*
Y360500D02*
D03*
Y335100D02*
D03*
Y309700D02*
D03*
Y284300D02*
D03*
Y258900D02*
D03*
Y233500D02*
D03*
Y208100D02*
D03*
Y182700D02*
D03*
Y157300D02*
D03*
Y131900D02*
D03*
D27*
X108000Y549500D02*
D03*
Y524100D02*
D03*
Y574900D02*
D03*
D28*
X393000Y463900D02*
D03*
Y540100D02*
D03*
X363000Y463900D02*
D03*
Y540100D02*
D03*
X318000Y505800D02*
D03*
Y582000D02*
D03*
X406100Y237000D02*
D03*
X329900D02*
D03*
Y212001D02*
D03*
X406100D02*
D03*
D29*
X363000Y574300D02*
D03*
X433000D02*
D03*
D30*
X363000Y599700D02*
D03*
X433000D02*
D03*
D31*
X473000Y527800D02*
D03*
Y502400D02*
D03*
Y432800D02*
D03*
Y407400D02*
D03*
Y242800D02*
D03*
Y217400D02*
D03*
Y337800D02*
D03*
Y312400D02*
D03*
D32*
Y477000D02*
D03*
Y382000D02*
D03*
Y192000D02*
D03*
Y287000D02*
D03*
D33*
X33000Y592000D02*
D03*
X33000Y467000D02*
D03*
X33000Y342000D02*
D03*
X33000Y217000D02*
D03*
X33000Y92000D02*
D03*
D34*
X33000Y566600D02*
D03*
Y541200D02*
D03*
X34000Y515800D02*
D03*
X33000Y441600D02*
D03*
Y416200D02*
D03*
X34000Y390800D02*
D03*
X34000Y265800D02*
D03*
X33000Y291200D02*
D03*
Y316600D02*
D03*
X34000Y140800D02*
D03*
X33000Y166200D02*
D03*
Y191600D02*
D03*
X34000Y15800D02*
D03*
X33000Y41200D02*
D03*
Y66600D02*
D03*
D35*
X473000Y147801D02*
D03*
Y122401D02*
D03*
Y97001D02*
D03*
Y71601D02*
D03*
D36*
Y46201D02*
D03*
D37*
X413000Y427800D02*
D03*
Y402400D02*
D03*
Y377000D02*
D03*
Y351600D02*
D03*
Y326200D02*
D03*
Y300800D02*
D03*
Y275400D02*
D03*
X333600D02*
D03*
Y300800D02*
D03*
Y326200D02*
D03*
Y351600D02*
D03*
Y377000D02*
D03*
Y402400D02*
D03*
D38*
Y427800D02*
D03*
D39*
X388700Y63745D02*
D03*
X302300D02*
D03*
X203700D02*
D03*
X117300D02*
D03*
D40*
X302300Y21945D02*
D03*
X388700D02*
D03*
X117300D02*
D03*
X203700D02*
D03*
D41*
X374400Y58445D02*
D03*
X316600D02*
D03*
X189400D02*
D03*
X131600D02*
D03*
D42*
X143000Y514000D02*
D03*
Y531000D02*
D03*
Y548000D02*
D03*
Y565000D02*
D03*
Y582000D02*
D03*
X290000Y587300D02*
D03*
D43*
X90000Y40000D02*
D03*
X80000Y570000D02*
D03*
X430000Y540000D02*
D03*
X420000Y40000D02*
D03*
X230000Y220000D02*
D03*
Y400000D02*
D03*
X92000Y304250D02*
D03*
X92750Y391750D02*
D03*
D44*
X143000Y94500D02*
D03*
X105500Y102000D02*
D03*
X173000Y94500D02*
D03*
X328000D02*
D03*
X358000D02*
D03*
X425500Y117000D02*
D03*
X433000Y127000D02*
D03*
X148000Y84500D02*
D03*
X333000D02*
D03*
X363000D02*
D03*
X178000D02*
D03*
X163000Y89500D02*
D03*
X153000D02*
D03*
X338000D02*
D03*
X385500Y144500D02*
D03*
X348000Y89500D02*
D03*
M02*
