G04*
G04 #@! TF.GenerationSoftware,Altium Limited,Altium Designer,20.0.10 (225)*
G04*
G04 Layer_Color=65535*
%FSLAX44Y44*%
%MOMM*%
G71*
G01*
G75*
%ADD10C,0.1500*%
%ADD11C,0.2000*%
%ADD12C,0.1270*%
%ADD13C,0.2500*%
%ADD14C,0.1000*%
%ADD15C,0.2540*%
D10*
X392500Y587000D02*
G03*
X392500Y587000I-29500J0D01*
G01*
X462500D02*
G03*
X462500Y587000I-29500J0D01*
G01*
X390500Y139000D02*
X394500D01*
Y105000D02*
Y139000D01*
X390500Y105000D02*
X394500D01*
X376500D02*
X380500D01*
X376500D02*
Y139000D01*
X380500D01*
X376500Y122000D02*
X394500D01*
X362500Y118000D02*
Y122000D01*
X328500Y118000D02*
X362500D01*
X328500D02*
Y122000D01*
Y132000D02*
Y136000D01*
X362500D01*
Y132000D02*
Y136000D01*
X345500Y118000D02*
Y136000D01*
X134669Y489498D02*
Y481168D01*
X136335Y479502D01*
X139668D01*
X141334Y481168D01*
Y489498D01*
X144666Y487832D02*
X146332Y489498D01*
X149664D01*
X151331Y487832D01*
Y481168D01*
X149664Y479502D01*
X146332D01*
X144666Y481168D01*
Y487832D01*
X488835Y557398D02*
X485502D01*
X487169D01*
Y549068D01*
X485502Y547402D01*
X483836D01*
X482170Y549068D01*
X492167Y547402D02*
X495499D01*
X493833D01*
Y557398D01*
X492167Y555732D01*
X500498Y547402D02*
X503830D01*
X502164D01*
Y557398D01*
X500498Y555732D01*
X437998Y412831D02*
Y416164D01*
Y414498D01*
X429668D01*
X428002Y416164D01*
Y417830D01*
X429668Y419496D01*
X428002Y409499D02*
Y406167D01*
Y407833D01*
X437998D01*
X436332Y409499D01*
Y401169D02*
X437998Y399502D01*
Y396170D01*
X436332Y394504D01*
X429668D01*
X428002Y396170D01*
Y399502D01*
X429668Y401169D01*
X436332D01*
X437998Y218666D02*
Y221998D01*
Y220332D01*
X429668D01*
X428002Y221998D01*
Y223664D01*
X429668Y225331D01*
Y215334D02*
X428002Y213668D01*
Y210336D01*
X429668Y208669D01*
X436332D01*
X437998Y210336D01*
Y213668D01*
X436332Y215334D01*
X434666D01*
X433000Y213668D01*
Y208669D01*
X437998Y313666D02*
Y316998D01*
Y315332D01*
X429668D01*
X428002Y316998D01*
Y318664D01*
X429668Y320331D01*
X436332Y310334D02*
X437998Y308668D01*
Y305336D01*
X436332Y303669D01*
X434666D01*
X433000Y305336D01*
X431334Y303669D01*
X429668D01*
X428002Y305336D01*
Y308668D01*
X429668Y310334D01*
X431334D01*
X433000Y308668D01*
X434666Y310334D01*
X436332D01*
X433000Y308668D02*
Y305336D01*
X319616Y468637D02*
Y460306D01*
X321282Y458640D01*
X324614D01*
X326281Y460306D01*
Y468637D01*
X336277Y458640D02*
X329613D01*
X336277Y465305D01*
Y466971D01*
X334611Y468637D01*
X331279D01*
X329613Y466971D01*
X405500Y135332D02*
X403834Y136999D01*
X400502D01*
X398835Y135332D01*
Y128668D01*
X400502Y127002D01*
X403834D01*
X405500Y128668D01*
X408832Y127002D02*
X412165D01*
X410498D01*
Y136999D01*
X408832Y135332D01*
X119669Y95549D02*
X116336D01*
X118002D01*
Y87218D01*
X116336Y85552D01*
X114670D01*
X113004Y87218D01*
X123001Y95549D02*
X129665D01*
Y93883D01*
X123001Y87218D01*
Y85552D01*
X304622Y95549D02*
X301290D01*
X302956D01*
Y87218D01*
X301290Y85552D01*
X299624D01*
X297958Y87218D01*
X314619Y95549D02*
X311287Y93883D01*
X307955Y90550D01*
Y87218D01*
X309621Y85552D01*
X312953D01*
X314619Y87218D01*
Y88884D01*
X312953Y90550D01*
X307955D01*
X437998Y101166D02*
Y104498D01*
Y102832D01*
X429668D01*
X428002Y104498D01*
Y106165D01*
X429668Y107831D01*
X437998Y91169D02*
Y97834D01*
X433000D01*
X434666Y94502D01*
Y92836D01*
X433000Y91169D01*
X429668D01*
X428002Y92836D01*
Y96168D01*
X429668Y97834D01*
X6334Y121998D02*
X3002D01*
X4668D01*
Y113668D01*
X3002Y112002D01*
X1335D01*
X-331Y113668D01*
X14664Y112002D02*
Y121998D01*
X9666Y117000D01*
X16330D01*
X7334Y246998D02*
X4002D01*
X5668D01*
Y238668D01*
X4002Y237002D01*
X2335D01*
X669Y238668D01*
X10666Y245332D02*
X12332Y246998D01*
X15664D01*
X17330Y245332D01*
Y243666D01*
X15664Y242000D01*
X13998D01*
X15664D01*
X17330Y240334D01*
Y238668D01*
X15664Y237002D01*
X12332D01*
X10666Y238668D01*
X8834Y371598D02*
X5501D01*
X7168D01*
Y363268D01*
X5501Y361602D01*
X3835D01*
X2169Y363268D01*
X18830Y361602D02*
X12166D01*
X18830Y368266D01*
Y369932D01*
X17164Y371598D01*
X13832D01*
X12166Y369932D01*
X8000Y496998D02*
X4668D01*
X6334D01*
Y488668D01*
X4668Y487002D01*
X3002D01*
X1336Y488668D01*
X11332Y487002D02*
X14664D01*
X12998D01*
Y496998D01*
X11332Y495332D01*
X76334Y604498D02*
X73002D01*
X74668D01*
Y596168D01*
X73002Y594502D01*
X71336D01*
X69669Y596168D01*
X79666Y602832D02*
X81332Y604498D01*
X84664D01*
X86331Y602832D01*
Y596168D01*
X84664Y594502D01*
X81332D01*
X79666Y596168D01*
Y602832D01*
X323436Y227270D02*
Y237267D01*
X328434D01*
X330101Y235601D01*
Y232268D01*
X328434Y230602D01*
X323436D01*
X326768D02*
X330101Y227270D01*
X333433Y235601D02*
X335099Y237267D01*
X338431D01*
X340097Y235601D01*
Y233935D01*
X338431Y232268D01*
X336765D01*
X338431D01*
X340097Y230602D01*
Y228936D01*
X338431Y227270D01*
X335099D01*
X333433Y228936D01*
X323436Y252242D02*
Y262239D01*
X328434D01*
X330101Y260573D01*
Y257241D01*
X328434Y255574D01*
X323436D01*
X326768D02*
X330101Y252242D01*
X340097D02*
X333433D01*
X340097Y258907D01*
Y260573D01*
X338431Y262239D01*
X335099D01*
X333433Y260573D01*
X406335Y517002D02*
Y526998D01*
X411334D01*
X413000Y525332D01*
Y522000D01*
X411334Y520334D01*
X406335D01*
X409668D02*
X413000Y517002D01*
X416332D02*
X419664D01*
X417998D01*
Y526998D01*
X416332Y525332D01*
X309669Y592002D02*
Y601998D01*
X314668D01*
X316334Y600332D01*
Y597000D01*
X314668Y595334D01*
X309669D01*
X313002D02*
X316334Y592002D01*
X319666Y600332D02*
X321332Y601998D01*
X324664D01*
X326331Y600332D01*
Y593668D01*
X324664Y592002D01*
X321332D01*
X319666Y593668D01*
Y600332D01*
X334669Y517002D02*
Y526998D01*
X339668D01*
X341334Y525332D01*
Y522000D01*
X339668Y520334D01*
X334669D01*
X338002D02*
X341334Y517002D01*
X344666Y525332D02*
X346332Y526998D01*
X349664D01*
X351331Y525332D01*
Y518668D01*
X349664Y517002D01*
X346332D01*
X344666Y518668D01*
Y525332D01*
X408002Y545336D02*
X417998D01*
Y550334D01*
X416332Y552000D01*
X409668D01*
X408002Y550334D01*
Y545336D01*
X417998Y555332D02*
Y558665D01*
Y556998D01*
X408002D01*
X409668Y555332D01*
X333002Y543669D02*
X342998D01*
Y548668D01*
X341332Y550334D01*
X334668D01*
X333002Y548668D01*
Y543669D01*
X334668Y553666D02*
X333002Y555332D01*
Y558665D01*
X334668Y560331D01*
X341332D01*
X342998Y558665D01*
Y555332D01*
X341332Y553666D01*
X334668D01*
X134206Y617773D02*
Y609442D01*
X135872Y607776D01*
X139204D01*
X140871Y609442D01*
Y617773D01*
X144203Y607776D02*
X147535D01*
X145869D01*
Y617773D01*
X144203Y616107D01*
D11*
X474000Y456680D02*
G03*
X474000Y456680I-1000J0D01*
G01*
Y361680D02*
G03*
X474000Y361680I-1000J0D01*
G01*
Y171680D02*
G03*
X474000Y171680I-1000J0D01*
G01*
Y266680D02*
G03*
X474000Y266680I-1000J0D01*
G01*
X435500Y46200D02*
G03*
X435500Y46200I-1000J0D01*
G01*
X393000Y527400D02*
Y529686D01*
Y474314D02*
Y476600D01*
Y527400D02*
X400620D01*
Y476600D02*
Y527400D01*
X385380Y476600D02*
X400620D01*
X385380D02*
Y527400D01*
X393000D01*
X363000D02*
Y529686D01*
Y474314D02*
Y476600D01*
Y527400D02*
X370620D01*
Y476600D02*
Y527400D01*
X355380Y476600D02*
X370620D01*
X355380D02*
Y527400D01*
X363000D01*
X348500Y612500D02*
X377500D01*
X418500D02*
X447500D01*
X318000Y569300D02*
Y571586D01*
Y516214D02*
Y518500D01*
Y569300D02*
X325620D01*
Y518500D02*
Y569300D01*
X310380Y518500D02*
X325620D01*
X310380D02*
Y569300D01*
X318000D01*
X351550Y448125D02*
X367086D01*
Y443125D02*
Y448125D01*
Y443125D02*
X379514D01*
Y448125D01*
X395050D01*
Y255075D02*
Y448125D01*
X351550Y255075D02*
X395050D01*
X351550D02*
Y448125D01*
X393400Y237000D02*
Y244620D01*
X342600D02*
X393400D01*
X342600Y229380D02*
Y244620D01*
Y229380D02*
X393400D01*
Y237000D01*
X340314D02*
X342600D01*
X393400D02*
X395686D01*
X342600Y204380D02*
Y212001D01*
Y204380D02*
X393400D01*
Y219620D01*
X342600D02*
X393400D01*
X342600Y212001D02*
Y219620D01*
X393400Y212001D02*
X395686D01*
X340314D02*
X342600D01*
D12*
X34000Y611050D02*
G03*
X34000Y611050I-1000J0D01*
G01*
X34000Y486050D02*
G03*
X34000Y486050I-1000J0D01*
G01*
X34000Y361050D02*
G03*
X34000Y361050I-1000J0D01*
G01*
Y236050D02*
G03*
X34000Y236050I-1000J0D01*
G01*
Y111050D02*
G03*
X34000Y111050I-1000J0D01*
G01*
X87680Y491080D02*
Y546960D01*
X90220Y549500D01*
X87680Y552040D02*
X90220Y549500D01*
X87680Y552040D02*
Y607920D01*
X92760D01*
Y602840D02*
Y607920D01*
Y602840D02*
X123240D01*
Y607920D01*
X128320D01*
Y552040D02*
Y607920D01*
X125780Y549500D02*
X128320Y552040D01*
X125780Y549500D02*
X128320Y546960D01*
Y491080D02*
Y546960D01*
X123240Y491080D02*
X128320D01*
X123240D02*
Y496160D01*
X92760D02*
X123240D01*
X92760Y491080D02*
Y496160D01*
X87680Y491080D02*
X92760D01*
X97840Y529180D02*
X118160D01*
X97840Y531720D02*
X118160D01*
X97840Y534260D02*
X118160D01*
X97840Y536800D02*
X118160D01*
X97840Y539340D02*
X118160D01*
X97840Y541880D02*
X118160D01*
X97840Y544420D02*
X118160D01*
X440500Y462000D02*
X505500D01*
Y542800D01*
X440500D02*
X505500D01*
X440500Y462000D02*
Y542800D01*
Y367000D02*
X505500D01*
Y447800D01*
X440500D02*
X505500D01*
X440500Y367000D02*
Y447800D01*
Y177000D02*
X505500D01*
Y257800D01*
X440500D02*
X505500D01*
X440500Y177000D02*
Y257800D01*
Y272000D02*
X505500D01*
Y352800D01*
X440500D02*
X505500D01*
X440500Y272000D02*
Y352800D01*
X500Y607000D02*
X65500D01*
X500Y500800D02*
Y607000D01*
Y500800D02*
X65500D01*
Y607000D01*
X500Y482000D02*
X65500D01*
X500Y375800D02*
Y482000D01*
Y375800D02*
X65500D01*
Y482000D01*
X65500Y250800D02*
Y357000D01*
X500Y250800D02*
X65500D01*
X500D02*
Y357000D01*
X65500D01*
X65500Y125800D02*
Y232000D01*
X500Y125800D02*
X65500D01*
X500D02*
Y232000D01*
X65500D01*
X65500Y800D02*
Y107000D01*
X500Y800D02*
X65500D01*
X500D02*
Y107000D01*
X65500D01*
X505500Y31201D02*
Y162801D01*
X440500D02*
X505500D01*
X440500Y31201D02*
Y162801D01*
Y31201D02*
X505500D01*
D13*
X321850Y427300D02*
G03*
X321850Y427300I-1250J0D01*
G01*
D14*
X134100Y119200D02*
X311900D01*
X134100D02*
Y474800D01*
X311900Y119000D02*
Y474800D01*
X134100D02*
X311900D01*
X260500Y112200D02*
Y162800D01*
X185500Y112200D02*
Y162800D01*
X260500D01*
X185500Y112200D02*
X260500D01*
X333500Y145500D02*
X372500D01*
X333500Y194500D02*
X372500D01*
X333500Y145500D02*
Y194500D01*
X372500Y145500D02*
Y194500D01*
X300800Y73495D02*
X390200D01*
Y495D02*
Y73495D01*
X300800Y495D02*
X390200D01*
X300800D02*
Y73495D01*
X115800D02*
X205200D01*
Y495D02*
Y73495D01*
X115800Y495D02*
X205200D01*
X115800D02*
Y73495D01*
D15*
X299000Y496000D02*
Y600000D01*
X134000Y496000D02*
X299000D01*
X134000D02*
Y600000D01*
X299000D01*
M02*
