G04*
G04 #@! TF.GenerationSoftware,Altium Limited,Altium Designer,20.0.10 (225)*
G04*
G04 Layer_Color=2752767*
%FSLAX44Y44*%
%MOMM*%
G71*
G01*
G75*
%ADD61C,0.0508*%
%ADD62C,0.0677*%
%ADD63C,0.0339*%
D61*
X297168Y460068D02*
Y464132D01*
X301232D01*
Y460068D01*
X297168D01*
Y434668D02*
Y438732D01*
X301232D01*
Y434668D01*
X297168D01*
Y409268D02*
Y413332D01*
X301232D01*
Y409268D01*
X297168D01*
Y383868D02*
Y387932D01*
X301232D01*
Y383868D01*
X297168D01*
Y358468D02*
Y362532D01*
X301232D01*
Y358468D01*
X297168D01*
Y333068D02*
Y337132D01*
X301232D01*
Y333068D01*
X297168D01*
Y307668D02*
Y311732D01*
X301232D01*
Y307668D01*
X297168D01*
Y282268D02*
Y286332D01*
X301232D01*
Y282268D01*
X297168D01*
Y256868D02*
Y260932D01*
X301232D01*
Y256868D01*
X297168D01*
Y231468D02*
Y235532D01*
X301232D01*
Y231468D01*
X297168D01*
Y206068D02*
Y210132D01*
X301232D01*
Y206068D01*
X297168D01*
Y180668D02*
Y184732D01*
X301232D01*
Y180668D01*
X297168D01*
Y155268D02*
Y159332D01*
X301232D01*
Y155268D01*
X297168D01*
Y129868D02*
Y133932D01*
X301232D01*
Y129868D01*
X297168D01*
X144768Y460068D02*
Y464132D01*
X148832D01*
Y460068D01*
X144768D01*
Y434668D02*
Y438732D01*
X148832D01*
Y434668D01*
X144768D01*
Y409268D02*
Y413332D01*
X148832D01*
Y409268D01*
X144768D01*
Y383868D02*
Y387932D01*
X148832D01*
Y383868D01*
X144768D01*
Y358468D02*
Y362532D01*
X148832D01*
Y358468D01*
X144768D01*
Y333068D02*
Y337132D01*
X148832D01*
Y333068D01*
X144768D01*
Y307668D02*
Y311732D01*
X148832D01*
Y307668D01*
X144768D01*
Y282268D02*
Y286332D01*
X148832D01*
Y282268D01*
X144768D01*
Y256868D02*
Y260932D01*
X148832D01*
Y256868D01*
X144768D01*
Y231468D02*
Y235532D01*
X148832D01*
Y231468D01*
X144768D01*
Y206068D02*
Y210132D01*
X148832D01*
Y206068D01*
X144768D01*
Y180668D02*
Y184732D01*
X148832D01*
Y180668D01*
X144768D01*
Y155268D02*
Y159332D01*
X148832D01*
Y155268D01*
X144768D01*
Y129868D02*
Y133932D01*
X148832D01*
Y129868D01*
X144768D01*
X393000Y461868D02*
X390968Y465932D01*
X395032D01*
X393000Y461868D01*
Y538068D02*
X390968Y542132D01*
X395032D01*
X393000Y538068D01*
X363000Y461868D02*
X360968Y465932D01*
X365032D01*
X363000Y461868D01*
Y538068D02*
X360968Y542132D01*
X365032D01*
X363000Y538068D01*
X363000Y572268D02*
X364016Y573284D01*
X365032D01*
X364016Y574300D01*
X365032Y575316D01*
X364016D01*
X363000Y576332D01*
X361984Y575316D01*
X360968D01*
X361984Y574300D01*
X360968Y573284D01*
X361984D01*
X363000Y572268D01*
Y597668D02*
X364016Y598684D01*
X365032D01*
X364016Y599700D01*
X365032Y600716D01*
X364016D01*
X363000Y601732D01*
X361984Y600716D01*
X360968D01*
X361984Y599700D01*
X360968Y598684D01*
X361984D01*
X363000Y597668D01*
X433000Y572268D02*
X434016Y573284D01*
X435032D01*
X434016Y574300D01*
X435032Y575316D01*
X434016D01*
X433000Y576332D01*
X431984Y575316D01*
X430968D01*
X431984Y574300D01*
X430968Y573284D01*
X431984D01*
X433000Y572268D01*
Y597668D02*
X434016Y598684D01*
X435032D01*
X434016Y599700D01*
X435032Y600716D01*
X434016D01*
X433000Y601732D01*
X431984Y600716D01*
X430968D01*
X431984Y599700D01*
X430968Y598684D01*
X431984D01*
X433000Y597668D01*
X470968Y525768D02*
X471984Y527800D01*
X470968Y529832D01*
X473000Y528816D01*
X475032Y529832D01*
X474016Y527800D01*
X475032Y525768D01*
X473000Y526784D01*
X470968Y525768D01*
Y500368D02*
X471984Y502400D01*
X470968Y504432D01*
X473000Y503416D01*
X475032Y504432D01*
X474016Y502400D01*
X475032Y500368D01*
X473000Y501384D01*
X470968Y500368D01*
Y474968D02*
X471984Y477000D01*
X470968Y479032D01*
X473000Y478016D01*
X475032Y479032D01*
X474016Y477000D01*
X475032Y474968D01*
X473000Y475984D01*
X470968Y474968D01*
X318000Y503768D02*
X315968Y507832D01*
X320032D01*
X318000Y503768D01*
Y579968D02*
X315968Y584032D01*
X320032D01*
X318000Y579968D01*
X470968Y430768D02*
X471984Y432800D01*
X470968Y434832D01*
X473000Y433816D01*
X475032Y434832D01*
X474016Y432800D01*
X475032Y430768D01*
X473000Y431784D01*
X470968Y430768D01*
Y405368D02*
X471984Y407400D01*
X470968Y409432D01*
X473000Y408416D01*
X475032Y409432D01*
X474016Y407400D01*
X475032Y405368D01*
X473000Y406384D01*
X470968Y405368D01*
Y379968D02*
X471984Y382000D01*
X470968Y384032D01*
X473000Y383016D01*
X475032Y384032D01*
X474016Y382000D01*
X475032Y379968D01*
X473000Y380984D01*
X470968Y379968D01*
Y240768D02*
X471984Y242800D01*
X470968Y244832D01*
X473000Y243816D01*
X475032Y244832D01*
X474016Y242800D01*
X475032Y240768D01*
X473000Y241784D01*
X470968Y240768D01*
Y215368D02*
X471984Y217400D01*
X470968Y219432D01*
X473000Y218416D01*
X475032Y219432D01*
X474016Y217400D01*
X475032Y215368D01*
X473000Y216384D01*
X470968Y215368D01*
Y189968D02*
X471984Y192000D01*
X470968Y194032D01*
X473000Y193016D01*
X475032Y194032D01*
X474016Y192000D01*
X475032Y189968D01*
X473000Y190984D01*
X470968Y189968D01*
Y335768D02*
X471984Y337800D01*
X470968Y339832D01*
X473000Y338816D01*
X475032Y339832D01*
X474016Y337800D01*
X475032Y335768D01*
X473000Y336784D01*
X470968Y335768D01*
Y310368D02*
X471984Y312400D01*
X470968Y314432D01*
X473000Y313416D01*
X475032Y314432D01*
X474016Y312400D01*
X475032Y310368D01*
X473000Y311384D01*
X470968Y310368D01*
Y284968D02*
X471984Y287000D01*
X470968Y289032D01*
X473000Y288016D01*
X475032Y289032D01*
X474016Y287000D01*
X475032Y284968D01*
X473000Y285984D01*
X470968Y284968D01*
X31984Y590984D02*
Y589968D01*
X34016D01*
Y590984D01*
X35032D01*
Y593016D01*
X34016D01*
Y594032D01*
X31984D01*
Y593016D01*
X30968D01*
Y590984D01*
X31984D01*
Y565584D02*
Y564568D01*
X34016D01*
Y565584D01*
X35032D01*
Y567616D01*
X34016D01*
Y568632D01*
X31984D01*
Y567616D01*
X30968D01*
Y565584D01*
X31984D01*
Y540184D02*
Y539168D01*
X34016D01*
Y540184D01*
X35032D01*
Y542216D01*
X34016D01*
Y543232D01*
X31984D01*
Y542216D01*
X30968D01*
Y540184D01*
X31984D01*
X32984Y514784D02*
Y513768D01*
X35016D01*
Y514784D01*
X36032D01*
Y516816D01*
X35016D01*
Y517832D01*
X32984D01*
Y516816D01*
X31968D01*
Y514784D01*
X32984D01*
X31984Y465984D02*
Y464968D01*
X34016D01*
Y465984D01*
X35032D01*
Y468016D01*
X34016D01*
Y469032D01*
X31984D01*
Y468016D01*
X30968D01*
Y465984D01*
X31984D01*
Y440584D02*
Y439568D01*
X34016D01*
Y440584D01*
X35032D01*
Y442616D01*
X34016D01*
Y443632D01*
X31984D01*
Y442616D01*
X30968D01*
Y440584D01*
X31984D01*
Y415184D02*
Y414168D01*
X34016D01*
Y415184D01*
X35032D01*
Y417216D01*
X34016D01*
Y418232D01*
X31984D01*
Y417216D01*
X30968D01*
Y415184D01*
X31984D01*
X32984Y389784D02*
Y388768D01*
X35016D01*
Y389784D01*
X36032D01*
Y391816D01*
X35016D01*
Y392832D01*
X32984D01*
Y391816D01*
X31968D01*
Y389784D01*
X32984D01*
X32984Y264784D02*
Y263768D01*
X35016D01*
Y264784D01*
X36032D01*
Y266816D01*
X35016D01*
Y267832D01*
X32984D01*
Y266816D01*
X31968D01*
Y264784D01*
X32984D01*
X31984Y290184D02*
Y289168D01*
X34016D01*
Y290184D01*
X35032D01*
Y292216D01*
X34016D01*
Y293232D01*
X31984D01*
Y292216D01*
X30968D01*
Y290184D01*
X31984D01*
Y315584D02*
Y314568D01*
X34016D01*
Y315584D01*
X35032D01*
Y317616D01*
X34016D01*
Y318632D01*
X31984D01*
Y317616D01*
X30968D01*
Y315584D01*
X31984D01*
Y340984D02*
Y339968D01*
X34016D01*
Y340984D01*
X35032D01*
Y343016D01*
X34016D01*
Y344032D01*
X31984D01*
Y343016D01*
X30968D01*
Y340984D01*
X31984D01*
X32984Y139784D02*
Y138768D01*
X35016D01*
Y139784D01*
X36032D01*
Y141816D01*
X35016D01*
Y142832D01*
X32984D01*
Y141816D01*
X31968D01*
Y139784D01*
X32984D01*
X31984Y165184D02*
Y164168D01*
X34016D01*
Y165184D01*
X35032D01*
Y167216D01*
X34016D01*
Y168232D01*
X31984D01*
Y167216D01*
X30968D01*
Y165184D01*
X31984D01*
Y190584D02*
Y189568D01*
X34016D01*
Y190584D01*
X35032D01*
Y192616D01*
X34016D01*
Y193632D01*
X31984D01*
Y192616D01*
X30968D01*
Y190584D01*
X31984D01*
Y215984D02*
Y214968D01*
X34016D01*
Y215984D01*
X35032D01*
Y218016D01*
X34016D01*
Y219032D01*
X31984D01*
Y218016D01*
X30968D01*
Y215984D01*
X31984D01*
X32984Y14784D02*
Y13768D01*
X35016D01*
Y14784D01*
X36032D01*
Y16816D01*
X35016D01*
Y17832D01*
X32984D01*
Y16816D01*
X31968D01*
Y14784D01*
X32984D01*
X31984Y40184D02*
Y39168D01*
X34016D01*
Y40184D01*
X35032D01*
Y42216D01*
X34016D01*
Y43232D01*
X31984D01*
Y42216D01*
X30968D01*
Y40184D01*
X31984D01*
Y65584D02*
Y64568D01*
X34016D01*
Y65584D01*
X35032D01*
Y67616D01*
X34016D01*
Y68632D01*
X31984D01*
Y67616D01*
X30968D01*
Y65584D01*
X31984D01*
Y90984D02*
Y89968D01*
X34016D01*
Y90984D01*
X35032D01*
Y93016D01*
X34016D01*
Y94032D01*
X31984D01*
Y93016D01*
X30968D01*
Y90984D01*
X31984D01*
X470968Y145769D02*
X471984D01*
X473000Y146785D01*
X474016Y145769D01*
X475032D01*
Y146785D01*
X474016Y147801D01*
X475032Y148817D01*
Y149833D01*
X474016D01*
X473000Y148817D01*
X471984Y149833D01*
X470968D01*
Y148817D01*
X471984Y147801D01*
X470968Y146785D01*
Y145769D01*
Y120369D02*
X471984D01*
X473000Y121385D01*
X474016Y120369D01*
X475032D01*
Y121385D01*
X474016Y122401D01*
X475032Y123417D01*
Y124433D01*
X474016D01*
X473000Y123417D01*
X471984Y124433D01*
X470968D01*
Y123417D01*
X471984Y122401D01*
X470968Y121385D01*
Y120369D01*
Y94969D02*
X471984D01*
X473000Y95985D01*
X474016Y94969D01*
X475032D01*
Y95985D01*
X474016Y97001D01*
X475032Y98017D01*
Y99033D01*
X474016D01*
X473000Y98017D01*
X471984Y99033D01*
X470968D01*
Y98017D01*
X471984Y97001D01*
X470968Y95985D01*
Y94969D01*
Y69569D02*
X471984D01*
X473000Y70585D01*
X474016Y69569D01*
X475032D01*
Y70585D01*
X474016Y71601D01*
X475032Y72617D01*
Y73633D01*
X474016D01*
X473000Y72617D01*
X471984Y73633D01*
X470968D01*
Y72617D01*
X471984Y71601D01*
X470968Y70585D01*
Y69569D01*
Y44169D02*
X471984D01*
X473000Y45185D01*
X474016Y44169D01*
X475032D01*
Y45185D01*
X474016Y46201D01*
X475032Y47217D01*
Y48233D01*
X474016D01*
X473000Y47217D01*
X471984Y48233D01*
X470968D01*
Y47217D01*
X471984Y46201D01*
X470968Y45185D01*
Y44169D01*
X410968Y427800D02*
X413000Y429832D01*
X415032Y427800D01*
X413000Y425768D01*
X410968Y427800D01*
Y402400D02*
X413000Y404432D01*
X415032Y402400D01*
X413000Y400368D01*
X410968Y402400D01*
Y377000D02*
X413000Y379032D01*
X415032Y377000D01*
X413000Y374968D01*
X410968Y377000D01*
Y351600D02*
X413000Y353632D01*
X415032Y351600D01*
X413000Y349568D01*
X410968Y351600D01*
Y326200D02*
X413000Y328232D01*
X415032Y326200D01*
X413000Y324168D01*
X410968Y326200D01*
Y300800D02*
X413000Y302832D01*
X415032Y300800D01*
X413000Y298768D01*
X410968Y300800D01*
Y275400D02*
X413000Y277432D01*
X415032Y275400D01*
X413000Y273368D01*
X410968Y275400D01*
X331568D02*
X333600Y277432D01*
X335632Y275400D01*
X333600Y273368D01*
X331568Y275400D01*
Y300800D02*
X333600Y302832D01*
X335632Y300800D01*
X333600Y298768D01*
X331568Y300800D01*
Y326200D02*
X333600Y328232D01*
X335632Y326200D01*
X333600Y324168D01*
X331568Y326200D01*
Y351600D02*
X333600Y353632D01*
X335632Y351600D01*
X333600Y349568D01*
X331568Y351600D01*
Y377000D02*
X333600Y379032D01*
X335632Y377000D01*
X333600Y374968D01*
X331568Y377000D01*
Y402400D02*
X333600Y404432D01*
X335632Y402400D01*
X333600Y400368D01*
X331568Y402400D01*
Y427800D02*
X333600Y429832D01*
X335632Y427800D01*
X333600Y425768D01*
X331568Y427800D01*
X386668Y61713D02*
Y65777D01*
X390732D01*
Y61713D01*
X386668D01*
X387684Y62729D02*
Y64761D01*
X389716D01*
Y62729D01*
X387684D01*
X300268Y61713D02*
Y65777D01*
X304332D01*
Y61713D01*
X300268D01*
X301284Y62729D02*
Y64761D01*
X303316D01*
Y62729D01*
X301284D01*
X374400Y56413D02*
X372368Y60477D01*
X376432D01*
X374400Y56413D01*
Y57429D02*
X373384Y59461D01*
X375416D01*
X374400Y57429D01*
X316600Y56413D02*
X314568Y60477D01*
X318632D01*
X316600Y56413D01*
Y57429D02*
X315584Y59461D01*
X317616D01*
X316600Y57429D01*
X201668Y61713D02*
Y65777D01*
X205732D01*
Y61713D01*
X201668D01*
X202684Y62729D02*
Y64761D01*
X204716D01*
Y62729D01*
X202684D01*
X115268Y61713D02*
Y65777D01*
X119332D01*
Y61713D01*
X115268D01*
X116284Y62729D02*
Y64761D01*
X118316D01*
Y62729D01*
X116284D01*
X189400Y56413D02*
X187368Y60477D01*
X191432D01*
X189400Y56413D01*
Y57429D02*
X188384Y59461D01*
X190416D01*
X189400Y57429D01*
X131600Y56413D02*
X129568Y60477D01*
X133632D01*
X131600Y56413D01*
Y57429D02*
X130584Y59461D01*
X132616D01*
X131600Y57429D01*
X143000Y511968D02*
X144016Y512984D01*
X145032D01*
X144016Y514000D01*
X145032Y515016D01*
X144016D01*
X143000Y516032D01*
X141984Y515016D01*
X140968D01*
X141984Y514000D01*
X140968Y512984D01*
X141984D01*
X143000Y511968D01*
Y512984D02*
X143508Y513492D01*
X144016D01*
X143508Y514000D01*
X144016Y514508D01*
X143508D01*
X143000Y515016D01*
X142492Y514508D01*
X141984D01*
X142492Y514000D01*
X141984Y513492D01*
X142492D01*
X143000Y512984D01*
Y528968D02*
X144016Y529984D01*
X145032D01*
X144016Y531000D01*
X145032Y532016D01*
X144016D01*
X143000Y533032D01*
X141984Y532016D01*
X140968D01*
X141984Y531000D01*
X140968Y529984D01*
X141984D01*
X143000Y528968D01*
Y529984D02*
X143508Y530492D01*
X144016D01*
X143508Y531000D01*
X144016Y531508D01*
X143508D01*
X143000Y532016D01*
X142492Y531508D01*
X141984D01*
X142492Y531000D01*
X141984Y530492D01*
X142492D01*
X143000Y529984D01*
Y545968D02*
X144016Y546984D01*
X145032D01*
X144016Y548000D01*
X145032Y549016D01*
X144016D01*
X143000Y550032D01*
X141984Y549016D01*
X140968D01*
X141984Y548000D01*
X140968Y546984D01*
X141984D01*
X143000Y545968D01*
Y546984D02*
X143508Y547492D01*
X144016D01*
X143508Y548000D01*
X144016Y548508D01*
X143508D01*
X143000Y549016D01*
X142492Y548508D01*
X141984D01*
X142492Y548000D01*
X141984Y547492D01*
X142492D01*
X143000Y546984D01*
Y562968D02*
X144016Y563984D01*
X145032D01*
X144016Y565000D01*
X145032Y566016D01*
X144016D01*
X143000Y567032D01*
X141984Y566016D01*
X140968D01*
X141984Y565000D01*
X140968Y563984D01*
X141984D01*
X143000Y562968D01*
Y563984D02*
X143508Y564492D01*
X144016D01*
X143508Y565000D01*
X144016Y565508D01*
X143508D01*
X143000Y566016D01*
X142492Y565508D01*
X141984D01*
X142492Y565000D01*
X141984Y564492D01*
X142492D01*
X143000Y563984D01*
Y579968D02*
X144016Y580984D01*
X145032D01*
X144016Y582000D01*
X145032Y583016D01*
X144016D01*
X143000Y584032D01*
X141984Y583016D01*
X140968D01*
X141984Y582000D01*
X140968Y580984D01*
X141984D01*
X143000Y579968D01*
Y580984D02*
X143508Y581492D01*
X144016D01*
X143508Y582000D01*
X144016Y582508D01*
X143508D01*
X143000Y583016D01*
X142492Y582508D01*
X141984D01*
X142492Y582000D01*
X141984Y581492D01*
X142492D01*
X143000Y580984D01*
X290000Y585268D02*
X291016Y586284D01*
X292032D01*
X291016Y587300D01*
X292032Y588316D01*
X291016D01*
X290000Y589332D01*
X288984Y588316D01*
X287968D01*
X288984Y587300D01*
X287968Y586284D01*
X288984D01*
X290000Y585268D01*
Y586284D02*
X290508Y586792D01*
X291016D01*
X290508Y587300D01*
X291016Y587808D01*
X290508D01*
X290000Y588316D01*
X289492Y587808D01*
X288984D01*
X289492Y587300D01*
X288984Y586792D01*
X289492D01*
X290000Y586284D01*
X406100Y234968D02*
X404068Y239032D01*
X408132D01*
X406100Y234968D01*
X329900D02*
X327868Y239032D01*
X331932D01*
X329900Y234968D01*
Y209968D02*
X327868Y214032D01*
X331932D01*
X329900Y209968D01*
X406100D02*
X404068Y214032D01*
X408132D01*
X406100Y209968D01*
X87968Y37968D02*
X88984Y40000D01*
X87968Y42032D01*
X90000Y41016D01*
X92032Y42032D01*
X91016Y40000D01*
X92032Y37968D01*
X90000Y38984D01*
X87968Y37968D01*
X88984Y38984D02*
X89492Y40000D01*
X88984Y41016D01*
X90000Y40508D01*
X91016Y41016D01*
X90508Y40000D01*
X91016Y38984D01*
X90000Y39492D01*
X88984Y38984D01*
X77968Y567968D02*
X78984Y570000D01*
X77968Y572032D01*
X80000Y571016D01*
X82032Y572032D01*
X81016Y570000D01*
X82032Y567968D01*
X80000Y568984D01*
X77968Y567968D01*
X78984Y568984D02*
X79492Y570000D01*
X78984Y571016D01*
X80000Y570508D01*
X81016Y571016D01*
X80508Y570000D01*
X81016Y568984D01*
X80000Y569492D01*
X78984Y568984D01*
X427968Y537968D02*
X428984Y540000D01*
X427968Y542032D01*
X430000Y541016D01*
X432032Y542032D01*
X431016Y540000D01*
X432032Y537968D01*
X430000Y538984D01*
X427968Y537968D01*
X428984Y538984D02*
X429492Y540000D01*
X428984Y541016D01*
X430000Y540508D01*
X431016Y541016D01*
X430508Y540000D01*
X431016Y538984D01*
X430000Y539492D01*
X428984Y538984D01*
X417968Y37968D02*
X418984Y40000D01*
X417968Y42032D01*
X420000Y41016D01*
X422032Y42032D01*
X421016Y40000D01*
X422032Y37968D01*
X420000Y38984D01*
X417968Y37968D01*
X418984Y38984D02*
X419492Y40000D01*
X418984Y41016D01*
X420000Y40508D01*
X421016Y41016D01*
X420508Y40000D01*
X421016Y38984D01*
X420000Y39492D01*
X418984Y38984D01*
X227968Y217968D02*
X228984Y220000D01*
X227968Y222032D01*
X230000Y221016D01*
X232032Y222032D01*
X231016Y220000D01*
X232032Y217968D01*
X230000Y218984D01*
X227968Y217968D01*
X228984Y218984D02*
X229492Y220000D01*
X228984Y221016D01*
X230000Y220508D01*
X231016Y221016D01*
X230508Y220000D01*
X231016Y218984D01*
X230000Y219492D01*
X228984Y218984D01*
X227968Y397968D02*
X228984Y400000D01*
X227968Y402032D01*
X230000Y401016D01*
X232032Y402032D01*
X231016Y400000D01*
X232032Y397968D01*
X230000Y398984D01*
X227968Y397968D01*
X228984Y398984D02*
X229492Y400000D01*
X228984Y401016D01*
X230000Y400508D01*
X231016Y401016D01*
X230508Y400000D01*
X231016Y398984D01*
X230000Y399492D01*
X228984Y398984D01*
X89968Y302218D02*
X90984Y304250D01*
X89968Y306282D01*
X92000Y305266D01*
X94032Y306282D01*
X93016Y304250D01*
X94032Y302218D01*
X92000Y303234D01*
X89968Y302218D01*
X90984Y303234D02*
X91492Y304250D01*
X90984Y305266D01*
X92000Y304758D01*
X93016Y305266D01*
X92508Y304250D01*
X93016Y303234D01*
X92000Y303742D01*
X90984Y303234D01*
X90718Y389718D02*
X91734Y391750D01*
X90718Y393782D01*
X92750Y392766D01*
X94782Y393782D01*
X93766Y391750D01*
X94782Y389718D01*
X92750Y390734D01*
X90718Y389718D01*
X91734Y390734D02*
X92242Y391750D01*
X91734Y392766D01*
X92750Y392258D01*
X93766Y392766D01*
X93258Y391750D01*
X93766Y390734D01*
X92750Y391242D01*
X91734Y390734D01*
X141984Y93484D02*
Y92468D01*
X144016D01*
Y93484D01*
X145032D01*
Y95516D01*
X144016D01*
Y96532D01*
X141984D01*
Y95516D01*
X140968D01*
Y93484D01*
X141984D01*
X142492Y93992D02*
Y93484D01*
X143508D01*
Y93992D01*
X144016D01*
Y95008D01*
X143508D01*
Y95516D01*
X142492D01*
Y95008D01*
X141984D01*
Y93992D01*
X142492D01*
X104484Y100984D02*
Y99968D01*
X106516D01*
Y100984D01*
X107532D01*
Y103016D01*
X106516D01*
Y104032D01*
X104484D01*
Y103016D01*
X103468D01*
Y100984D01*
X104484D01*
X104992Y101492D02*
Y100984D01*
X106008D01*
Y101492D01*
X106516D01*
Y102508D01*
X106008D01*
Y103016D01*
X104992D01*
Y102508D01*
X104484D01*
Y101492D01*
X104992D01*
X171984Y93484D02*
Y92468D01*
X174016D01*
Y93484D01*
X175032D01*
Y95516D01*
X174016D01*
Y96532D01*
X171984D01*
Y95516D01*
X170968D01*
Y93484D01*
X171984D01*
X172492Y93992D02*
Y93484D01*
X173508D01*
Y93992D01*
X174016D01*
Y95008D01*
X173508D01*
Y95516D01*
X172492D01*
Y95008D01*
X171984D01*
Y93992D01*
X172492D01*
X326984Y93484D02*
Y92468D01*
X329016D01*
Y93484D01*
X330032D01*
Y95516D01*
X329016D01*
Y96532D01*
X326984D01*
Y95516D01*
X325968D01*
Y93484D01*
X326984D01*
X327492Y93992D02*
Y93484D01*
X328508D01*
Y93992D01*
X329016D01*
Y95008D01*
X328508D01*
Y95516D01*
X327492D01*
Y95008D01*
X326984D01*
Y93992D01*
X327492D01*
X356984Y93484D02*
Y92468D01*
X359016D01*
Y93484D01*
X360032D01*
Y95516D01*
X359016D01*
Y96532D01*
X356984D01*
Y95516D01*
X355968D01*
Y93484D01*
X356984D01*
X357492Y93992D02*
Y93484D01*
X358508D01*
Y93992D01*
X359016D01*
Y95008D01*
X358508D01*
Y95516D01*
X357492D01*
Y95008D01*
X356984D01*
Y93992D01*
X357492D01*
X424484Y115984D02*
Y114968D01*
X426516D01*
Y115984D01*
X427532D01*
Y118016D01*
X426516D01*
Y119032D01*
X424484D01*
Y118016D01*
X423468D01*
Y115984D01*
X424484D01*
X424992Y116492D02*
Y115984D01*
X426008D01*
Y116492D01*
X426516D01*
Y117508D01*
X426008D01*
Y118016D01*
X424992D01*
Y117508D01*
X424484D01*
Y116492D01*
X424992D01*
X431984Y125984D02*
Y124968D01*
X434016D01*
Y125984D01*
X435032D01*
Y128016D01*
X434016D01*
Y129032D01*
X431984D01*
Y128016D01*
X430968D01*
Y125984D01*
X431984D01*
X432492Y126492D02*
Y125984D01*
X433508D01*
Y126492D01*
X434016D01*
Y127508D01*
X433508D01*
Y128016D01*
X432492D01*
Y127508D01*
X431984D01*
Y126492D01*
X432492D01*
X146984Y83484D02*
Y82468D01*
X149016D01*
Y83484D01*
X150032D01*
Y85516D01*
X149016D01*
Y86532D01*
X146984D01*
Y85516D01*
X145968D01*
Y83484D01*
X146984D01*
X147492Y83992D02*
Y83484D01*
X148508D01*
Y83992D01*
X149016D01*
Y85008D01*
X148508D01*
Y85516D01*
X147492D01*
Y85008D01*
X146984D01*
Y83992D01*
X147492D01*
X331984Y83484D02*
Y82468D01*
X334016D01*
Y83484D01*
X335032D01*
Y85516D01*
X334016D01*
Y86532D01*
X331984D01*
Y85516D01*
X330968D01*
Y83484D01*
X331984D01*
X332492Y83992D02*
Y83484D01*
X333508D01*
Y83992D01*
X334016D01*
Y85008D01*
X333508D01*
Y85516D01*
X332492D01*
Y85008D01*
X331984D01*
Y83992D01*
X332492D01*
X361984Y83484D02*
Y82468D01*
X364016D01*
Y83484D01*
X365032D01*
Y85516D01*
X364016D01*
Y86532D01*
X361984D01*
Y85516D01*
X360968D01*
Y83484D01*
X361984D01*
X362492Y83992D02*
Y83484D01*
X363508D01*
Y83992D01*
X364016D01*
Y85008D01*
X363508D01*
Y85516D01*
X362492D01*
Y85008D01*
X361984D01*
Y83992D01*
X362492D01*
X176984Y83484D02*
Y82468D01*
X179016D01*
Y83484D01*
X180032D01*
Y85516D01*
X179016D01*
Y86532D01*
X176984D01*
Y85516D01*
X175968D01*
Y83484D01*
X176984D01*
X177492Y83992D02*
Y83484D01*
X178508D01*
Y83992D01*
X179016D01*
Y85008D01*
X178508D01*
Y85516D01*
X177492D01*
Y85008D01*
X176984D01*
Y83992D01*
X177492D01*
X161984Y88484D02*
Y87468D01*
X164016D01*
Y88484D01*
X165032D01*
Y90516D01*
X164016D01*
Y91532D01*
X161984D01*
Y90516D01*
X160968D01*
Y88484D01*
X161984D01*
X162492Y88992D02*
Y88484D01*
X163508D01*
Y88992D01*
X164016D01*
Y90008D01*
X163508D01*
Y90516D01*
X162492D01*
Y90008D01*
X161984D01*
Y88992D01*
X162492D01*
X151984Y88484D02*
Y87468D01*
X154016D01*
Y88484D01*
X155032D01*
Y90516D01*
X154016D01*
Y91532D01*
X151984D01*
Y90516D01*
X150968D01*
Y88484D01*
X151984D01*
X152492Y88992D02*
Y88484D01*
X153508D01*
Y88992D01*
X154016D01*
Y90008D01*
X153508D01*
Y90516D01*
X152492D01*
Y90008D01*
X151984D01*
Y88992D01*
X152492D01*
X336984Y88484D02*
Y87468D01*
X339016D01*
Y88484D01*
X340032D01*
Y90516D01*
X339016D01*
Y91532D01*
X336984D01*
Y90516D01*
X335968D01*
Y88484D01*
X336984D01*
X337492Y88992D02*
Y88484D01*
X338508D01*
Y88992D01*
X339016D01*
Y90008D01*
X338508D01*
Y90516D01*
X337492D01*
Y90008D01*
X336984D01*
Y88992D01*
X337492D01*
X384484Y143484D02*
Y142468D01*
X386516D01*
Y143484D01*
X387532D01*
Y145516D01*
X386516D01*
Y146532D01*
X384484D01*
Y145516D01*
X383468D01*
Y143484D01*
X384484D01*
X384992Y143992D02*
Y143484D01*
X386008D01*
Y143992D01*
X386516D01*
Y145008D01*
X386008D01*
Y145516D01*
X384992D01*
Y145008D01*
X384484D01*
Y143992D01*
X384992D01*
X346984Y88484D02*
Y87468D01*
X349016D01*
Y88484D01*
X350032D01*
Y90516D01*
X349016D01*
Y91532D01*
X346984D01*
Y90516D01*
X345968D01*
Y88484D01*
X346984D01*
X347492Y88992D02*
Y88484D01*
X348508D01*
Y88992D01*
X349016D01*
Y90008D01*
X348508D01*
Y90516D01*
X347492D01*
Y90008D01*
X346984D01*
Y88992D01*
X347492D01*
D62*
X110032Y549500D02*
G03*
X110032Y549500I-2032J0D01*
G01*
Y524100D02*
G03*
X110032Y524100I-2032J0D01*
G01*
Y574900D02*
G03*
X110032Y574900I-2032J0D01*
G01*
X304332Y21945D02*
G03*
X304332Y21945I-2032J0D01*
G01*
X390732D02*
G03*
X390732Y21945I-2032J0D01*
G01*
X119332D02*
G03*
X119332Y21945I-2032J0D01*
G01*
X205732D02*
G03*
X205732Y21945I-2032J0D01*
G01*
D63*
X303316D02*
G03*
X303316Y21945I-1016J0D01*
G01*
X389716D02*
G03*
X389716Y21945I-1016J0D01*
G01*
X118316D02*
G03*
X118316Y21945I-1016J0D01*
G01*
X204716D02*
G03*
X204716Y21945I-1016J0D01*
G01*
M02*
