G04*
G04 #@! TF.GenerationSoftware,Altium Limited,Altium Designer,20.0.10 (225)*
G04*
G04 Layer_Color=0*
%FSLAX44Y44*%
%MOMM*%
G71*
G01*
G75*
%ADD59C,0.0500*%
D59*
X438000Y459500D02*
X508000D01*
Y545300D01*
X438000D02*
X508000D01*
X438000Y459500D02*
Y545300D01*
Y364500D02*
X508000D01*
Y450300D01*
X438000D02*
X508000D01*
X438000Y364500D02*
Y450300D01*
Y174500D02*
X508000D01*
Y260300D01*
X438000D02*
X508000D01*
X438000Y174500D02*
Y260300D01*
Y269500D02*
X508000D01*
Y355300D01*
X438000D02*
X508000D01*
X438000Y269500D02*
Y355300D01*
X68000Y498300D02*
Y609500D01*
X-2000Y498300D02*
X68000D01*
X-2000D02*
Y609500D01*
X68000D01*
X68000Y373300D02*
Y484500D01*
X-2000Y373300D02*
X68000D01*
X-2000D02*
Y484500D01*
X68000D01*
X-2000Y359500D02*
X68000D01*
X-2000Y248300D02*
Y359500D01*
Y248300D02*
X68000D01*
Y359500D01*
X-2000Y234500D02*
X68000D01*
X-2000Y123300D02*
Y234500D01*
Y123300D02*
X68000D01*
Y234500D01*
X-2000Y109500D02*
X68000D01*
X-2000Y-1700D02*
Y109500D01*
Y-1700D02*
X68000D01*
Y109500D01*
X508000Y28701D02*
Y165301D01*
X438000D02*
X508000D01*
X438000Y28701D02*
Y165301D01*
Y28701D02*
X508000D01*
M02*
