G04*
G04 #@! TF.GenerationSoftware,Altium Limited,Altium Designer,20.0.10 (225)*
G04*
G04 Layer_Color=128*
%FSLAX44Y44*%
%MOMM*%
G71*
G01*
G75*
%ADD61C,0.0508*%
D61*
X294200Y462100D02*
X304200D01*
X299200Y457100D02*
Y467100D01*
X294200Y436700D02*
X304200D01*
X299200Y431700D02*
Y441700D01*
X294200Y411300D02*
X304200D01*
X299200Y406300D02*
Y416300D01*
X294200Y385900D02*
X304200D01*
X299200Y380900D02*
Y390900D01*
X294200Y360500D02*
X304200D01*
X299200Y355500D02*
Y365500D01*
X294200Y335100D02*
X304200D01*
X299200Y330100D02*
Y340100D01*
X294200Y309700D02*
X304200D01*
X299200Y304700D02*
Y314700D01*
X294200Y284300D02*
X304200D01*
X299200Y279300D02*
Y289300D01*
X294200Y258900D02*
X304200D01*
X299200Y253900D02*
Y263900D01*
X294200Y233500D02*
X304200D01*
X299200Y228500D02*
Y238500D01*
X294200Y208100D02*
X304200D01*
X299200Y203100D02*
Y213100D01*
X294200Y182700D02*
X304200D01*
X299200Y177700D02*
Y187700D01*
X294200Y157300D02*
X304200D01*
X299200Y152300D02*
Y162300D01*
X294200Y131900D02*
X304200D01*
X299200Y126900D02*
Y136900D01*
X141800Y462100D02*
X151800D01*
X146800Y457100D02*
Y467100D01*
X141800Y436700D02*
X151800D01*
X146800Y431700D02*
Y441700D01*
X141800Y411300D02*
X151800D01*
X146800Y406300D02*
Y416300D01*
X141800Y385900D02*
X151800D01*
X146800Y380900D02*
Y390900D01*
X141800Y360500D02*
X151800D01*
X146800Y355500D02*
Y365500D01*
X141800Y335100D02*
X151800D01*
X146800Y330100D02*
Y340100D01*
X141800Y309700D02*
X151800D01*
X146800Y304700D02*
Y314700D01*
X141800Y284300D02*
X151800D01*
X146800Y279300D02*
Y289300D01*
X141800Y258900D02*
X151800D01*
X146800Y253900D02*
Y263900D01*
X141800Y233500D02*
X151800D01*
X146800Y228500D02*
Y238500D01*
X141800Y208100D02*
X151800D01*
X146800Y203100D02*
Y213100D01*
X141800Y182700D02*
X151800D01*
X146800Y177700D02*
Y187700D01*
X141800Y157300D02*
X151800D01*
X146800Y152300D02*
Y162300D01*
X141800Y131900D02*
X151800D01*
X146800Y126900D02*
Y136900D01*
X103500Y549500D02*
X112500D01*
X108000Y545000D02*
Y554000D01*
X103500Y524100D02*
X112500D01*
X108000Y519600D02*
Y528600D01*
X103500Y574900D02*
X112500D01*
X108000Y570400D02*
Y579400D01*
X388750Y463900D02*
X397250D01*
X393000Y459650D02*
Y468150D01*
X388750Y540100D02*
X397250D01*
X393000Y535850D02*
Y544350D01*
X358750Y463900D02*
X367250D01*
X363000Y459650D02*
Y468150D01*
X358750Y540100D02*
X367250D01*
X363000Y535850D02*
Y544350D01*
X358250Y574300D02*
X367750D01*
X363000Y569550D02*
Y579050D01*
X358250Y599700D02*
X367750D01*
X363000Y594950D02*
Y604450D01*
X428250Y574300D02*
X437750D01*
X433000Y569550D02*
Y579050D01*
X428250Y599700D02*
X437750D01*
X433000Y594950D02*
Y604450D01*
X466200Y527800D02*
X479800D01*
X473000Y521000D02*
Y534600D01*
X466200Y502400D02*
X479800D01*
X473000Y495600D02*
Y509200D01*
X466200Y477000D02*
X479800D01*
X473000Y470200D02*
Y483800D01*
X313750Y505800D02*
X322250D01*
X318000Y501550D02*
Y510050D01*
X313750Y582000D02*
X322250D01*
X318000Y577750D02*
Y586250D01*
X466200Y432800D02*
X479800D01*
X473000Y426000D02*
Y439600D01*
X466200Y407400D02*
X479800D01*
X473000Y400600D02*
Y414200D01*
X466200Y382000D02*
X479800D01*
X473000Y375200D02*
Y388800D01*
X466200Y242800D02*
X479800D01*
X473000Y236000D02*
Y249600D01*
X466200Y217400D02*
X479800D01*
X473000Y210600D02*
Y224200D01*
X466200Y192000D02*
X479800D01*
X473000Y185200D02*
Y198800D01*
X466200Y337800D02*
X479800D01*
X473000Y331000D02*
Y344600D01*
X466200Y312400D02*
X479800D01*
X473000Y305600D02*
Y319200D01*
X466200Y287000D02*
X479800D01*
X473000Y280200D02*
Y293800D01*
X27700Y592000D02*
X38300D01*
X33000Y586700D02*
Y597300D01*
X27700Y566600D02*
X38300D01*
X33000Y561300D02*
Y571900D01*
X27700Y541200D02*
X38300D01*
X33000Y535900D02*
Y546500D01*
X28700Y515800D02*
X39300D01*
X34000Y510500D02*
Y521100D01*
X27700Y467000D02*
X38300D01*
X33000Y461700D02*
Y472300D01*
X27700Y441600D02*
X38300D01*
X33000Y436300D02*
Y446900D01*
X27700Y416200D02*
X38300D01*
X33000Y410900D02*
Y421500D01*
X28700Y390800D02*
X39300D01*
X34000Y385500D02*
Y396100D01*
X28700Y265800D02*
X39300D01*
X34000Y260500D02*
Y271100D01*
X27700Y291200D02*
X38300D01*
X33000Y285900D02*
Y296500D01*
X27700Y316600D02*
X38300D01*
X33000Y311300D02*
Y321900D01*
X27700Y342000D02*
X38300D01*
X33000Y336700D02*
Y347300D01*
X28700Y140800D02*
X39300D01*
X34000Y135500D02*
Y146100D01*
X27700Y166200D02*
X38300D01*
X33000Y160900D02*
Y171500D01*
X27700Y191600D02*
X38300D01*
X33000Y186300D02*
Y196900D01*
X27700Y217000D02*
X38300D01*
X33000Y211700D02*
Y222300D01*
X28700Y15800D02*
X39300D01*
X34000Y10500D02*
Y21100D01*
X27700Y41200D02*
X38300D01*
X33000Y35900D02*
Y46500D01*
X27700Y66600D02*
X38300D01*
X33000Y61300D02*
Y71900D01*
X27700Y92000D02*
X38300D01*
X33000Y86700D02*
Y97300D01*
X467500Y147801D02*
X478500D01*
X473000Y142301D02*
Y153301D01*
X467500Y122401D02*
X478500D01*
X473000Y116901D02*
Y127901D01*
X467500Y97001D02*
X478500D01*
X473000Y91501D02*
Y102501D01*
X467500Y71601D02*
X478500D01*
X473000Y66101D02*
Y77101D01*
X467500Y46201D02*
X478500D01*
X473000Y40701D02*
Y51701D01*
X409250Y427800D02*
X416750D01*
X413000Y424050D02*
Y431550D01*
X409250Y402400D02*
X416750D01*
X413000Y398650D02*
Y406150D01*
X409250Y377000D02*
X416750D01*
X413000Y373250D02*
Y380750D01*
X409250Y351600D02*
X416750D01*
X413000Y347850D02*
Y355350D01*
X409250Y326200D02*
X416750D01*
X413000Y322450D02*
Y329950D01*
X409250Y300800D02*
X416750D01*
X413000Y297050D02*
Y304550D01*
X409250Y275400D02*
X416750D01*
X413000Y271650D02*
Y279150D01*
X329850Y275400D02*
X337350D01*
X333600Y271650D02*
Y279150D01*
X329850Y300800D02*
X337350D01*
X333600Y297050D02*
Y304550D01*
X329850Y326200D02*
X337350D01*
X333600Y322450D02*
Y329950D01*
X329850Y351600D02*
X337350D01*
X333600Y347850D02*
Y355350D01*
X329850Y377000D02*
X337350D01*
X333600Y373250D02*
Y380750D01*
X329850Y402400D02*
X337350D01*
X333600Y398650D02*
Y406150D01*
X329850Y427800D02*
X337350D01*
X333600Y424050D02*
Y431550D01*
X380200Y63745D02*
X397200D01*
X388700Y55245D02*
Y72245D01*
X293800Y63745D02*
X310800D01*
X302300Y55245D02*
Y72245D01*
X296300Y21945D02*
X308300D01*
X302300Y15945D02*
Y27945D01*
X382700Y21945D02*
X394700D01*
X388700Y15945D02*
Y27945D01*
X371150Y58445D02*
X377650D01*
X374400Y55195D02*
Y61695D01*
X313350Y58445D02*
X319850D01*
X316600Y55195D02*
Y61695D01*
X195200Y63745D02*
X212200D01*
X203700Y55245D02*
Y72245D01*
X108800Y63745D02*
X125800D01*
X117300Y55245D02*
Y72245D01*
X111300Y21945D02*
X123300D01*
X117300Y15945D02*
Y27945D01*
X197700Y21945D02*
X209700D01*
X203700Y15945D02*
Y27945D01*
X186150Y58445D02*
X192650D01*
X189400Y55195D02*
Y61695D01*
X128350Y58445D02*
X134850D01*
X131600Y55195D02*
Y61695D01*
X139800Y514000D02*
X146200D01*
X143000Y510800D02*
Y517200D01*
X139800Y531000D02*
X146200D01*
X143000Y527800D02*
Y534200D01*
X139800Y548000D02*
X146200D01*
X143000Y544800D02*
Y551200D01*
X139800Y565000D02*
X146200D01*
X143000Y561800D02*
Y568200D01*
X139800Y582000D02*
X146200D01*
X143000Y578800D02*
Y585200D01*
X286800Y587300D02*
X293200D01*
X290000Y584100D02*
Y590500D01*
X401850Y237000D02*
X410350D01*
X406100Y232750D02*
Y241250D01*
X325650Y237000D02*
X334150D01*
X329900Y232750D02*
Y241250D01*
X325650Y212001D02*
X334150D01*
X329900Y207750D02*
Y216250D01*
X401850Y212001D02*
X410350D01*
X406100Y207750D02*
Y216250D01*
X87500Y40000D02*
X92500D01*
X90000Y37500D02*
Y42500D01*
X77500Y570000D02*
X82500D01*
X80000Y567500D02*
Y572500D01*
X427500Y540000D02*
X432500D01*
X430000Y537500D02*
Y542500D01*
X417500Y40000D02*
X422500D01*
X420000Y37500D02*
Y42500D01*
X227500Y220000D02*
X232500D01*
X230000Y217500D02*
Y222500D01*
X227500Y400000D02*
X232500D01*
X230000Y397500D02*
Y402500D01*
X89500Y304250D02*
X94500D01*
X92000Y301750D02*
Y306750D01*
X90250Y391750D02*
X95250D01*
X92750Y389250D02*
Y394250D01*
X141730Y94500D02*
X144270D01*
X143000Y93230D02*
Y95770D01*
X104230Y102000D02*
X106770D01*
X105500Y100730D02*
Y103270D01*
X171730Y94500D02*
X174270D01*
X173000Y93230D02*
Y95770D01*
X326730Y94500D02*
X329270D01*
X328000Y93230D02*
Y95770D01*
X356730Y94500D02*
X359270D01*
X358000Y93230D02*
Y95770D01*
X424230Y117000D02*
X426770D01*
X425500Y115730D02*
Y118270D01*
X431730Y127000D02*
X434270D01*
X433000Y125730D02*
Y128270D01*
X146730Y84500D02*
X149270D01*
X148000Y83230D02*
Y85770D01*
X331730Y84500D02*
X334270D01*
X333000Y83230D02*
Y85770D01*
X361730Y84500D02*
X364270D01*
X363000Y83230D02*
Y85770D01*
X176730Y84500D02*
X179270D01*
X178000Y83230D02*
Y85770D01*
X161730Y89500D02*
X164270D01*
X163000Y88230D02*
Y90770D01*
X151730Y89500D02*
X154270D01*
X153000Y88230D02*
Y90770D01*
X336730Y89500D02*
X339270D01*
X338000Y88230D02*
Y90770D01*
X384230Y144500D02*
X386770D01*
X385500Y143230D02*
Y145770D01*
X346730Y89500D02*
X349270D01*
X348000Y88230D02*
Y90770D01*
M02*
