G04*
G04 #@! TF.GenerationSoftware,Altium Limited,Altium Designer,20.0.10 (225)*
G04*
G04 Layer_Color=8388736*
%FSLAX44Y44*%
%MOMM*%
G71*
G01*
G75*
%ADD11C,0.2000*%
G36*
X369405Y584607D02*
X369398Y584538D01*
Y584457D01*
X369392Y584376D01*
X369380Y584188D01*
X369367Y584001D01*
X369342Y583820D01*
X369330Y583732D01*
X369311Y583657D01*
Y583651D01*
X369305Y583632D01*
X369298Y583601D01*
X369286Y583563D01*
X369273Y583513D01*
X369255Y583464D01*
X369230Y583401D01*
X369205Y583332D01*
X369142Y583182D01*
X369061Y583026D01*
X368967Y582864D01*
X368848Y582714D01*
X368842Y582707D01*
X368830Y582689D01*
X368805Y582664D01*
X368773Y582632D01*
X368730Y582589D01*
X368680Y582539D01*
X368617Y582489D01*
X368555Y582426D01*
X368480Y582370D01*
X368392Y582308D01*
X368305Y582245D01*
X368211Y582183D01*
X368105Y582120D01*
X367993Y582064D01*
X367755Y581958D01*
X367749D01*
X367724Y581945D01*
X367686Y581933D01*
X367636Y581920D01*
X367574Y581895D01*
X367499Y581876D01*
X367411Y581851D01*
X367318Y581826D01*
X367211Y581808D01*
X367093Y581783D01*
X366968Y581758D01*
X366837Y581739D01*
X366693Y581726D01*
X366549Y581714D01*
X366237Y581701D01*
X366230D01*
X366205D01*
X366168D01*
X366112D01*
X366049Y581708D01*
X365974D01*
X365893Y581714D01*
X365799Y581720D01*
X365699Y581733D01*
X365599Y581745D01*
X365381Y581776D01*
X365156Y581820D01*
X364937Y581876D01*
X364931D01*
X364912Y581883D01*
X364881Y581895D01*
X364843Y581908D01*
X364793Y581926D01*
X364737Y581945D01*
X364675Y581970D01*
X364612Y581995D01*
X364462Y582058D01*
X364306Y582132D01*
X364150Y582220D01*
X364006Y582314D01*
X364000D01*
X363987Y582326D01*
X363969Y582339D01*
X363943Y582357D01*
X363881Y582414D01*
X363794Y582482D01*
X363700Y582570D01*
X363606Y582670D01*
X363512Y582776D01*
X363425Y582895D01*
Y582901D01*
X363419Y582907D01*
X363406Y582926D01*
X363387Y582951D01*
X363375Y582982D01*
X363350Y583020D01*
X363306Y583107D01*
X363256Y583220D01*
X363200Y583351D01*
X363150Y583501D01*
X363106Y583663D01*
Y583670D01*
X363100Y583682D01*
X363094Y583707D01*
X363088Y583745D01*
X363081Y583782D01*
X363075Y583832D01*
X363063Y583895D01*
X363056Y583957D01*
X363044Y584032D01*
X363031Y584107D01*
X363019Y584282D01*
X363006Y584476D01*
X363000Y584688D01*
Y587000D01*
X369405D01*
Y584607D01*
D02*
G37*
G36*
X366343Y580852D02*
X366443D01*
X366549Y580845D01*
X366674Y580839D01*
X366811Y580827D01*
X366955Y580814D01*
X367105Y580802D01*
X367405Y580758D01*
X367711Y580702D01*
X367849Y580664D01*
X367986Y580627D01*
X367993D01*
X368018Y580614D01*
X368055Y580602D01*
X368099Y580583D01*
X368161Y580558D01*
X368224Y580527D01*
X368299Y580495D01*
X368380Y580452D01*
X368555Y580358D01*
X368730Y580239D01*
X368899Y580096D01*
X368980Y580014D01*
X369055Y579933D01*
X369061Y579927D01*
X369073Y579914D01*
X369092Y579883D01*
X369111Y579852D01*
X369142Y579802D01*
X369173Y579752D01*
X369205Y579683D01*
X369242Y579614D01*
X369280Y579533D01*
X369311Y579446D01*
X369342Y579352D01*
X369373Y579246D01*
X369392Y579140D01*
X369411Y579021D01*
X369423Y578902D01*
X369430Y578771D01*
Y578683D01*
X369423Y578640D01*
X369417Y578590D01*
X369411Y578527D01*
X369405Y578465D01*
X369380Y578327D01*
X369342Y578177D01*
X369286Y578021D01*
X369217Y577871D01*
Y577865D01*
X369205Y577852D01*
X369198Y577834D01*
X369180Y577802D01*
X369130Y577734D01*
X369067Y577640D01*
X368980Y577540D01*
X368880Y577434D01*
X368755Y577327D01*
X368617Y577228D01*
X368611D01*
X368599Y577215D01*
X368580Y577203D01*
X368549Y577184D01*
X368511Y577165D01*
X368467Y577140D01*
X368411Y577115D01*
X368355Y577084D01*
X368286Y577053D01*
X368217Y577021D01*
X368055Y576959D01*
X367868Y576890D01*
X367668Y576834D01*
X367661D01*
X367643Y576828D01*
X367611Y576821D01*
X367568Y576809D01*
X367511Y576796D01*
X367443Y576784D01*
X367361Y576771D01*
X367268Y576759D01*
X367168Y576746D01*
X367049Y576734D01*
X366930Y576721D01*
X366793Y576709D01*
X366649Y576696D01*
X366493Y576690D01*
X366330Y576684D01*
X366156D01*
X366143D01*
X366105D01*
X366049D01*
X365968Y576690D01*
X365874D01*
X365762Y576696D01*
X365643Y576703D01*
X365506Y576715D01*
X365362Y576728D01*
X365218Y576740D01*
X364912Y576784D01*
X364612Y576840D01*
X364475Y576878D01*
X364337Y576921D01*
X364331D01*
X364306Y576934D01*
X364268Y576946D01*
X364225Y576965D01*
X364162Y576990D01*
X364100Y577021D01*
X364025Y577053D01*
X363943Y577096D01*
X363775Y577190D01*
X363594Y577309D01*
X363425Y577453D01*
X363344Y577534D01*
X363269Y577615D01*
X363262Y577621D01*
X363250Y577634D01*
X363231Y577659D01*
X363213Y577696D01*
X363181Y577740D01*
X363150Y577796D01*
X363119Y577859D01*
X363081Y577927D01*
X363044Y578009D01*
X363013Y578096D01*
X362981Y578190D01*
X362950Y578296D01*
X362931Y578402D01*
X362912Y578521D01*
X362900Y578640D01*
X362894Y578771D01*
Y578815D01*
X362900Y578858D01*
X362906Y578927D01*
X362912Y579002D01*
X362931Y579096D01*
X362950Y579196D01*
X362975Y579302D01*
X363013Y579414D01*
X363056Y579533D01*
X363106Y579658D01*
X363169Y579777D01*
X363244Y579896D01*
X363331Y580014D01*
X363437Y580127D01*
X363550Y580227D01*
X363562Y580233D01*
X363587Y580252D01*
X363637Y580283D01*
X363706Y580327D01*
X363794Y580370D01*
X363900Y580427D01*
X364031Y580483D01*
X364181Y580539D01*
X364350Y580602D01*
X364543Y580658D01*
X364756Y580714D01*
X364987Y580758D01*
X365249Y580802D01*
X365524Y580833D01*
X365830Y580852D01*
X366156Y580858D01*
X366162D01*
X366168D01*
X366205D01*
X366268D01*
X366343Y580852D01*
D02*
G37*
G36*
X439405Y584607D02*
X439398Y584538D01*
Y584457D01*
X439392Y584376D01*
X439380Y584188D01*
X439367Y584001D01*
X439342Y583820D01*
X439330Y583732D01*
X439311Y583657D01*
Y583651D01*
X439305Y583632D01*
X439298Y583601D01*
X439286Y583563D01*
X439273Y583513D01*
X439255Y583464D01*
X439230Y583401D01*
X439205Y583332D01*
X439142Y583182D01*
X439061Y583026D01*
X438967Y582864D01*
X438848Y582714D01*
X438842Y582707D01*
X438830Y582689D01*
X438805Y582664D01*
X438773Y582632D01*
X438730Y582589D01*
X438680Y582539D01*
X438617Y582489D01*
X438555Y582426D01*
X438480Y582370D01*
X438392Y582308D01*
X438305Y582245D01*
X438211Y582183D01*
X438105Y582120D01*
X437993Y582064D01*
X437755Y581958D01*
X437749D01*
X437724Y581945D01*
X437686Y581933D01*
X437636Y581920D01*
X437574Y581895D01*
X437499Y581876D01*
X437411Y581851D01*
X437318Y581826D01*
X437211Y581808D01*
X437093Y581783D01*
X436968Y581758D01*
X436837Y581739D01*
X436693Y581726D01*
X436549Y581714D01*
X436237Y581701D01*
X436230D01*
X436205D01*
X436168D01*
X436112D01*
X436049Y581708D01*
X435974D01*
X435893Y581714D01*
X435799Y581720D01*
X435699Y581733D01*
X435599Y581745D01*
X435381Y581776D01*
X435156Y581820D01*
X434937Y581876D01*
X434931D01*
X434912Y581883D01*
X434881Y581895D01*
X434843Y581908D01*
X434793Y581926D01*
X434737Y581945D01*
X434675Y581970D01*
X434612Y581995D01*
X434462Y582058D01*
X434306Y582132D01*
X434150Y582220D01*
X434006Y582314D01*
X434000D01*
X433987Y582326D01*
X433969Y582339D01*
X433943Y582357D01*
X433881Y582414D01*
X433793Y582482D01*
X433700Y582570D01*
X433606Y582670D01*
X433512Y582776D01*
X433425Y582895D01*
Y582901D01*
X433419Y582907D01*
X433406Y582926D01*
X433387Y582951D01*
X433375Y582982D01*
X433350Y583020D01*
X433306Y583107D01*
X433256Y583220D01*
X433200Y583351D01*
X433150Y583501D01*
X433106Y583663D01*
Y583670D01*
X433100Y583682D01*
X433094Y583707D01*
X433088Y583745D01*
X433081Y583782D01*
X433075Y583832D01*
X433063Y583895D01*
X433056Y583957D01*
X433044Y584032D01*
X433031Y584107D01*
X433019Y584282D01*
X433006Y584476D01*
X433000Y584688D01*
Y587000D01*
X439405D01*
Y584607D01*
D02*
G37*
G36*
X437824Y580246D02*
X437830Y580220D01*
X437849Y580189D01*
X437874Y580139D01*
X437905Y580083D01*
X437943Y580021D01*
X437980Y579946D01*
X438030Y579864D01*
X438136Y579683D01*
X438267Y579490D01*
X438411Y579296D01*
X438567Y579102D01*
X438574Y579096D01*
X438586Y579083D01*
X438611Y579052D01*
X438642Y579021D01*
X438686Y578983D01*
X438730Y578933D01*
X438786Y578883D01*
X438842Y578827D01*
X438974Y578715D01*
X439117Y578602D01*
X439273Y578496D01*
X439348Y578446D01*
X439430Y578409D01*
Y577896D01*
X433000D01*
Y578683D01*
X438005D01*
Y578690D01*
X437993Y578696D01*
X437980Y578715D01*
X437961Y578733D01*
X437905Y578796D01*
X437836Y578883D01*
X437755Y578990D01*
X437661Y579121D01*
X437561Y579271D01*
X437461Y579433D01*
Y579440D01*
X437449Y579452D01*
X437436Y579477D01*
X437418Y579508D01*
X437393Y579552D01*
X437368Y579596D01*
X437311Y579708D01*
X437249Y579833D01*
X437180Y579971D01*
X437118Y580114D01*
X437062Y580252D01*
X437817D01*
X437824Y580246D01*
D02*
G37*
G36*
X378336Y354306D02*
Y354293D01*
Y354262D01*
Y354212D01*
X378330Y354143D01*
Y354062D01*
X378324Y353968D01*
X378317Y353862D01*
X378311Y353750D01*
X378299Y353631D01*
X378280Y353506D01*
X378242Y353250D01*
X378192Y353000D01*
X378155Y352881D01*
X378117Y352769D01*
Y352762D01*
X378105Y352743D01*
X378092Y352712D01*
X378074Y352675D01*
X378049Y352625D01*
X378018Y352569D01*
X377980Y352506D01*
X377936Y352437D01*
X377886Y352369D01*
X377830Y352294D01*
X377761Y352219D01*
X377693Y352137D01*
X377611Y352062D01*
X377524Y351987D01*
X377430Y351912D01*
X377324Y351844D01*
X377318Y351838D01*
X377299Y351831D01*
X377268Y351813D01*
X377224Y351787D01*
X377161Y351763D01*
X377093Y351731D01*
X377018Y351700D01*
X376924Y351669D01*
X376824Y351637D01*
X376712Y351606D01*
X376587Y351575D01*
X376455Y351550D01*
X376312Y351525D01*
X376162Y351506D01*
X375999Y351500D01*
X375831Y351494D01*
X375743D01*
X375681Y351500D01*
X375606Y351506D01*
X375518Y351513D01*
X375418Y351519D01*
X375312Y351531D01*
X375193Y351550D01*
X375075Y351569D01*
X374831Y351625D01*
X374706Y351656D01*
X374587Y351700D01*
X374468Y351744D01*
X374356Y351800D01*
X374350Y351806D01*
X374331Y351813D01*
X374300Y351831D01*
X374262Y351856D01*
X374218Y351888D01*
X374162Y351931D01*
X374106Y351975D01*
X374044Y352031D01*
X373975Y352087D01*
X373906Y352156D01*
X373837Y352231D01*
X373775Y352312D01*
X373712Y352400D01*
X373650Y352494D01*
X373594Y352594D01*
X373544Y352700D01*
Y352706D01*
X373531Y352725D01*
X373519Y352762D01*
X373506Y352806D01*
X373488Y352868D01*
X373469Y352937D01*
X373444Y353025D01*
X373425Y353118D01*
X373400Y353231D01*
X373375Y353350D01*
X373356Y353481D01*
X373338Y353624D01*
X373325Y353781D01*
X373312Y353943D01*
X373300Y354118D01*
Y354306D01*
Y358005D01*
X374150D01*
Y354306D01*
Y354299D01*
Y354268D01*
Y354224D01*
Y354168D01*
X374156Y354099D01*
Y354024D01*
X374162Y353937D01*
X374169Y353843D01*
X374187Y353637D01*
X374212Y353437D01*
X374231Y353337D01*
X374250Y353243D01*
X374275Y353156D01*
X374300Y353075D01*
Y353068D01*
X374306Y353056D01*
X374319Y353037D01*
X374331Y353012D01*
X374369Y352937D01*
X374425Y352850D01*
X374500Y352756D01*
X374587Y352656D01*
X374700Y352556D01*
X374831Y352469D01*
X374837D01*
X374850Y352462D01*
X374868Y352450D01*
X374900Y352437D01*
X374937Y352419D01*
X374981Y352400D01*
X375031Y352381D01*
X375087Y352362D01*
X375156Y352344D01*
X375224Y352325D01*
X375381Y352287D01*
X375562Y352262D01*
X375756Y352256D01*
X375843D01*
X375906Y352262D01*
X375987Y352269D01*
X376074Y352281D01*
X376168Y352294D01*
X376274Y352306D01*
X376493Y352356D01*
X376599Y352394D01*
X376712Y352431D01*
X376818Y352481D01*
X376918Y352537D01*
X377005Y352600D01*
X377086Y352675D01*
X377093Y352681D01*
X377105Y352693D01*
X377124Y352725D01*
X377149Y352762D01*
X377180Y352812D01*
X377211Y352875D01*
X377249Y352950D01*
X377286Y353037D01*
X377324Y353143D01*
X377361Y353262D01*
X377393Y353393D01*
X377424Y353543D01*
X377449Y353706D01*
X377468Y353887D01*
X377480Y354087D01*
X377486Y354306D01*
Y358005D01*
X378336D01*
Y354306D01*
D02*
G37*
G36*
X381635Y358023D02*
X381704D01*
X381779Y358017D01*
X381867Y358005D01*
X381967Y357986D01*
X382079Y357967D01*
X382192Y357936D01*
X382310Y357905D01*
X382435Y357861D01*
X382554Y357811D01*
X382679Y357755D01*
X382791Y357686D01*
X382904Y357605D01*
X383010Y357517D01*
X383016Y357511D01*
X383035Y357492D01*
X383060Y357467D01*
X383091Y357424D01*
X383135Y357374D01*
X383179Y357317D01*
X383229Y357249D01*
X383279Y357167D01*
X383329Y357080D01*
X383379Y356980D01*
X383422Y356880D01*
X383466Y356768D01*
X383497Y356649D01*
X383522Y356517D01*
X383541Y356386D01*
X383547Y356249D01*
Y356243D01*
Y356230D01*
Y356211D01*
Y356186D01*
X383541Y356149D01*
Y356111D01*
X383529Y356011D01*
X383510Y355899D01*
X383479Y355768D01*
X383441Y355630D01*
X383385Y355493D01*
Y355487D01*
X383379Y355474D01*
X383366Y355455D01*
X383354Y355430D01*
X383335Y355393D01*
X383316Y355355D01*
X383260Y355255D01*
X383191Y355143D01*
X383097Y355005D01*
X382991Y354862D01*
X382860Y354712D01*
X382854Y354706D01*
X382841Y354693D01*
X382823Y354668D01*
X382791Y354637D01*
X382748Y354593D01*
X382704Y354543D01*
X382641Y354487D01*
X382573Y354418D01*
X382498Y354343D01*
X382404Y354256D01*
X382310Y354162D01*
X382198Y354062D01*
X382079Y353956D01*
X381948Y353837D01*
X381804Y353718D01*
X381654Y353587D01*
X381648Y353581D01*
X381623Y353562D01*
X381585Y353531D01*
X381542Y353493D01*
X381485Y353443D01*
X381423Y353387D01*
X381273Y353262D01*
X381123Y353131D01*
X380973Y353000D01*
X380904Y352937D01*
X380842Y352875D01*
X380786Y352825D01*
X380742Y352781D01*
X380736Y352775D01*
X380711Y352743D01*
X380673Y352700D01*
X380623Y352650D01*
X380573Y352581D01*
X380517Y352512D01*
X380461Y352437D01*
X380411Y352356D01*
X383554D01*
Y351600D01*
X379324D01*
Y351606D01*
Y351613D01*
Y351650D01*
Y351700D01*
X379330Y351775D01*
X379342Y351856D01*
X379355Y351950D01*
X379380Y352044D01*
X379411Y352144D01*
Y352150D01*
X379417Y352162D01*
X379430Y352187D01*
X379442Y352219D01*
X379461Y352256D01*
X379480Y352300D01*
X379536Y352412D01*
X379611Y352544D01*
X379698Y352687D01*
X379805Y352837D01*
X379930Y352994D01*
X379936Y353000D01*
X379948Y353012D01*
X379967Y353037D01*
X379998Y353068D01*
X380036Y353106D01*
X380079Y353156D01*
X380130Y353212D01*
X380192Y353275D01*
X380261Y353337D01*
X380336Y353412D01*
X380423Y353493D01*
X380511Y353581D01*
X380611Y353668D01*
X380717Y353762D01*
X380836Y353862D01*
X380954Y353962D01*
X380967Y353974D01*
X380998Y353999D01*
X381054Y354043D01*
X381123Y354106D01*
X381211Y354174D01*
X381304Y354262D01*
X381410Y354356D01*
X381523Y354456D01*
X381760Y354674D01*
X381992Y354899D01*
X382098Y355012D01*
X382198Y355124D01*
X382291Y355224D01*
X382366Y355324D01*
X382373Y355330D01*
X382385Y355349D01*
X382404Y355374D01*
X382423Y355412D01*
X382454Y355455D01*
X382485Y355505D01*
X382516Y355568D01*
X382554Y355630D01*
X382623Y355774D01*
X382685Y355930D01*
X382704Y356018D01*
X382723Y356099D01*
X382735Y356186D01*
X382741Y356268D01*
Y356274D01*
Y356286D01*
Y356311D01*
X382735Y356349D01*
X382729Y356386D01*
X382723Y356430D01*
X382698Y356543D01*
X382660Y356668D01*
X382598Y356799D01*
X382560Y356861D01*
X382516Y356930D01*
X382466Y356992D01*
X382404Y357055D01*
X382398Y357061D01*
X382391Y357067D01*
X382366Y357086D01*
X382341Y357105D01*
X382310Y357130D01*
X382267Y357155D01*
X382223Y357186D01*
X382166Y357217D01*
X382110Y357249D01*
X382042Y357280D01*
X381892Y357330D01*
X381723Y357367D01*
X381629Y357374D01*
X381529Y357380D01*
X381473D01*
X381435Y357374D01*
X381385Y357367D01*
X381329Y357361D01*
X381267Y357349D01*
X381204Y357336D01*
X381054Y357299D01*
X380904Y357236D01*
X380829Y357199D01*
X380754Y357149D01*
X380686Y357099D01*
X380617Y357036D01*
X380611Y357030D01*
X380604Y357024D01*
X380586Y356999D01*
X380567Y356974D01*
X380542Y356942D01*
X380511Y356899D01*
X380479Y356849D01*
X380448Y356792D01*
X380417Y356730D01*
X380386Y356661D01*
X380361Y356580D01*
X380330Y356499D01*
X380311Y356411D01*
X380292Y356311D01*
X380286Y356211D01*
X380280Y356099D01*
X379473Y356180D01*
Y356193D01*
X379480Y356218D01*
X379486Y356268D01*
X379492Y356330D01*
X379511Y356405D01*
X379530Y356493D01*
X379555Y356586D01*
X379580Y356693D01*
X379617Y356799D01*
X379661Y356911D01*
X379711Y357024D01*
X379767Y357142D01*
X379836Y357255D01*
X379911Y357361D01*
X379998Y357461D01*
X380092Y357555D01*
X380098Y357561D01*
X380117Y357574D01*
X380148Y357598D01*
X380192Y357630D01*
X380248Y357667D01*
X380311Y357705D01*
X380392Y357748D01*
X380479Y357792D01*
X380579Y357836D01*
X380686Y357880D01*
X380804Y357917D01*
X380936Y357955D01*
X381073Y357986D01*
X381223Y358011D01*
X381379Y358023D01*
X381548Y358030D01*
X381592D01*
X381635Y358023D01*
D02*
G37*
%LPC*%
G36*
X368649Y586150D02*
X363756D01*
Y584682D01*
X363762Y584632D01*
Y584569D01*
X363769Y584501D01*
Y584426D01*
X363781Y584263D01*
X363806Y584101D01*
X363831Y583938D01*
X363850Y583863D01*
X363868Y583795D01*
Y583788D01*
X363875Y583776D01*
X363881Y583757D01*
X363894Y583732D01*
X363918Y583670D01*
X363956Y583588D01*
X364006Y583495D01*
X364062Y583401D01*
X364131Y583307D01*
X364206Y583220D01*
X364212Y583214D01*
X364218Y583207D01*
X364237Y583189D01*
X364262Y583170D01*
X364293Y583145D01*
X364325Y583114D01*
X364418Y583045D01*
X364537Y582970D01*
X364675Y582889D01*
X364831Y582814D01*
X365012Y582745D01*
X365018D01*
X365037Y582739D01*
X365062Y582726D01*
X365106Y582720D01*
X365156Y582707D01*
X365212Y582689D01*
X365281Y582676D01*
X365362Y582657D01*
X365443Y582645D01*
X365537Y582632D01*
X365643Y582614D01*
X365749Y582601D01*
X365868Y582589D01*
X365987Y582582D01*
X366249Y582576D01*
X366262D01*
X366293D01*
X366343D01*
X366412Y582582D01*
X366499Y582589D01*
X366593Y582595D01*
X366699Y582601D01*
X366818Y582620D01*
X366936Y582632D01*
X367062Y582657D01*
X367318Y582714D01*
X367443Y582751D01*
X367568Y582795D01*
X367680Y582851D01*
X367786Y582907D01*
X367793Y582914D01*
X367811Y582920D01*
X367836Y582939D01*
X367874Y582964D01*
X367918Y583001D01*
X367967Y583039D01*
X368080Y583132D01*
X368205Y583251D01*
X368324Y583388D01*
X368430Y583545D01*
X368480Y583626D01*
X368517Y583713D01*
Y583720D01*
X368524Y583732D01*
X368530Y583751D01*
X368536Y583776D01*
X368549Y583813D01*
X368561Y583857D01*
X368574Y583913D01*
X368586Y583976D01*
X368592Y584051D01*
X368605Y584126D01*
X368617Y584220D01*
X368630Y584319D01*
X368636Y584426D01*
X368642Y584544D01*
X368649Y584669D01*
Y586150D01*
D02*
G37*
G36*
X366156Y580052D02*
X366149D01*
X366137D01*
X366118D01*
X366087D01*
X366049D01*
X366006D01*
X365956Y580046D01*
X365899D01*
X365774Y580039D01*
X365631Y580033D01*
X365468Y580021D01*
X365299Y580008D01*
X364949Y579964D01*
X364775Y579933D01*
X364606Y579896D01*
X364443Y579852D01*
X364293Y579802D01*
X364162Y579746D01*
X364056Y579683D01*
X364050Y579677D01*
X364031Y579664D01*
X364006Y579646D01*
X363975Y579614D01*
X363937Y579583D01*
X363894Y579539D01*
X363843Y579490D01*
X363800Y579433D01*
X363750Y579365D01*
X363700Y579296D01*
X363619Y579140D01*
X363587Y579058D01*
X363562Y578965D01*
X363544Y578871D01*
X363537Y578771D01*
Y578746D01*
X363544Y578721D01*
Y578683D01*
X363556Y578633D01*
X363562Y578583D01*
X363581Y578521D01*
X363600Y578459D01*
X363631Y578383D01*
X363662Y578315D01*
X363706Y578240D01*
X363756Y578165D01*
X363819Y578084D01*
X363887Y578009D01*
X363962Y577934D01*
X364056Y577865D01*
X364062Y577859D01*
X364081Y577846D01*
X364112Y577827D01*
X364162Y577809D01*
X364225Y577777D01*
X364306Y577746D01*
X364400Y577715D01*
X364518Y577677D01*
X364650Y577640D01*
X364799Y577609D01*
X364968Y577578D01*
X365162Y577546D01*
X365374Y577528D01*
X365612Y577509D01*
X365874Y577496D01*
X366156Y577490D01*
X366162D01*
X366174D01*
X366193D01*
X366224D01*
X366262D01*
X366305D01*
X366355Y577496D01*
X366412D01*
X366537Y577503D01*
X366680Y577509D01*
X366843Y577521D01*
X367011Y577534D01*
X367361Y577578D01*
X367536Y577609D01*
X367711Y577646D01*
X367868Y577690D01*
X368018Y577734D01*
X368149Y577796D01*
X368255Y577859D01*
X368261Y577865D01*
X368280Y577877D01*
X368305Y577896D01*
X368336Y577927D01*
X368380Y577959D01*
X368424Y578002D01*
X368467Y578052D01*
X368517Y578115D01*
X368567Y578177D01*
X368611Y578246D01*
X368699Y578402D01*
X368730Y578490D01*
X368755Y578583D01*
X368773Y578683D01*
X368780Y578783D01*
Y578833D01*
X368773Y578871D01*
X368767Y578921D01*
X368755Y578971D01*
X368723Y579096D01*
X368699Y579165D01*
X368667Y579233D01*
X368630Y579308D01*
X368586Y579377D01*
X368530Y579452D01*
X368467Y579521D01*
X368399Y579589D01*
X368317Y579652D01*
X368311Y579658D01*
X368292Y579671D01*
X368255Y579689D01*
X368199Y579714D01*
X368136Y579746D01*
X368049Y579777D01*
X367949Y579814D01*
X367830Y579852D01*
X367686Y579889D01*
X367530Y579927D01*
X367355Y579958D01*
X367155Y579989D01*
X366943Y580014D01*
X366699Y580033D01*
X366437Y580046D01*
X366156Y580052D01*
D02*
G37*
G36*
X438649Y586150D02*
X433756D01*
Y584682D01*
X433762Y584632D01*
Y584569D01*
X433769Y584501D01*
Y584426D01*
X433781Y584263D01*
X433806Y584101D01*
X433831Y583938D01*
X433850Y583863D01*
X433868Y583795D01*
Y583788D01*
X433875Y583776D01*
X433881Y583757D01*
X433894Y583732D01*
X433918Y583670D01*
X433956Y583588D01*
X434006Y583495D01*
X434062Y583401D01*
X434131Y583307D01*
X434206Y583220D01*
X434212Y583214D01*
X434218Y583207D01*
X434237Y583189D01*
X434262Y583170D01*
X434293Y583145D01*
X434325Y583114D01*
X434418Y583045D01*
X434537Y582970D01*
X434675Y582889D01*
X434831Y582814D01*
X435012Y582745D01*
X435018D01*
X435037Y582739D01*
X435062Y582726D01*
X435106Y582720D01*
X435156Y582707D01*
X435212Y582689D01*
X435281Y582676D01*
X435362Y582657D01*
X435443Y582645D01*
X435537Y582632D01*
X435643Y582614D01*
X435749Y582601D01*
X435868Y582589D01*
X435987Y582582D01*
X436249Y582576D01*
X436262D01*
X436293D01*
X436343D01*
X436412Y582582D01*
X436499Y582589D01*
X436593Y582595D01*
X436699Y582601D01*
X436818Y582620D01*
X436936Y582632D01*
X437062Y582657D01*
X437318Y582714D01*
X437443Y582751D01*
X437568Y582795D01*
X437680Y582851D01*
X437786Y582907D01*
X437793Y582914D01*
X437811Y582920D01*
X437836Y582939D01*
X437874Y582964D01*
X437918Y583001D01*
X437967Y583039D01*
X438080Y583132D01*
X438205Y583251D01*
X438324Y583388D01*
X438430Y583545D01*
X438480Y583626D01*
X438517Y583713D01*
Y583720D01*
X438524Y583732D01*
X438530Y583751D01*
X438536Y583776D01*
X438549Y583813D01*
X438561Y583857D01*
X438574Y583913D01*
X438586Y583976D01*
X438592Y584051D01*
X438605Y584126D01*
X438617Y584220D01*
X438630Y584319D01*
X438636Y584426D01*
X438642Y584544D01*
X438649Y584669D01*
Y586150D01*
D02*
G37*
%LPD*%
D11*
X326350Y252150D02*
Y451050D01*
Y252150D02*
X420250D01*
Y451050D01*
X326350D02*
X420250D01*
M02*
