G04*
G04 #@! TF.GenerationSoftware,Altium Limited,Altium Designer,20.0.10 (225)*
G04*
G04 Layer_Physical_Order=2*
G04 Layer_Color=16711680*
%FSLAX43Y43*%
%MOMM*%
G71*
G01*
G75*
%ADD23C,2.250*%
%ADD24R,2.250X2.250*%
%ADD25C,2.100*%
%ADD26R,2.100X2.100*%
%ADD27C,1.400*%
%ADD28R,1.400X1.400*%
%ADD29R,1.650X1.650*%
%ADD30C,1.650*%
D23*
X60071Y34544D02*
D03*
Y54864D02*
D03*
X39751Y42164D02*
D03*
Y47244D02*
D03*
X60071Y44704D02*
D03*
X20320Y54226D02*
D03*
Y31626D02*
D03*
X60325Y4445D02*
D03*
Y24765D02*
D03*
X40005Y12065D02*
D03*
Y17145D02*
D03*
X60325Y14605D02*
D03*
X20320Y3051D02*
D03*
Y25651D02*
D03*
D24*
X39751Y54864D02*
D03*
X40005Y24765D02*
D03*
D25*
X79335Y46355D02*
D03*
X79589Y15240D02*
D03*
D26*
X74335Y46355D02*
D03*
X74589Y15240D02*
D03*
D27*
X32004Y47418D02*
D03*
X67437Y50720D02*
D03*
X67056Y20113D02*
D03*
X32385Y17192D02*
D03*
D28*
X32004Y37418D02*
D03*
X67437Y40720D02*
D03*
X67056Y10113D02*
D03*
X32385Y7192D02*
D03*
D29*
X5461Y37004D02*
D03*
D30*
Y32004D02*
D03*
Y27004D02*
D03*
Y22004D02*
D03*
M02*
