G04*
G04 #@! TF.GenerationSoftware,Altium Limited,Altium Designer,20.0.10 (225)*
G04*
G04 Layer_Color=32768*
%FSLAX25Y25*%
%MOIN*%
G70*
G01*
G75*
%ADD30C,0.00197*%
D30*
X252543Y170650D02*
Y199429D01*
X275457D01*
Y170650D02*
Y199429D01*
X252543Y170650D02*
X275457D01*
X110543Y39650D02*
Y68429D01*
X133457D01*
Y39650D02*
Y68429D01*
X110543Y39650D02*
X133457D01*
X252043Y35071D02*
Y63850D01*
X274957D01*
Y35071D02*
Y63850D01*
X252043Y35071D02*
X274957D01*
X113043Y161110D02*
Y189890D01*
X135957D01*
Y161110D02*
Y189890D01*
X113043Y161110D02*
X135957D01*
X145516Y226984D02*
X247484D01*
Y125016D02*
Y226984D01*
X145516Y125016D02*
X247484D01*
X145516D02*
Y226984D01*
X78031Y169000D02*
X81968D01*
X80000Y167032D02*
Y170968D01*
X60709Y119295D02*
X99291D01*
Y218705D01*
X60709D02*
X99291D01*
X60709Y119295D02*
Y218705D01*
X38626Y75803D02*
Y156512D01*
X4374Y75803D02*
X38626D01*
X4374D02*
Y156512D01*
X38626D01*
X146516Y108484D02*
X248484D01*
Y6516D02*
Y108484D01*
X146516Y6516D02*
X248484D01*
X146516D02*
Y108484D01*
X78031Y56500D02*
X81968D01*
X80000Y54532D02*
Y58469D01*
X60709Y106205D02*
X99291D01*
X60709Y6795D02*
Y106205D01*
Y6795D02*
X99291D01*
Y106205D01*
M02*
