G04*
G04 #@! TF.GenerationSoftware,Altium Limited,Altium Designer,20.0.10 (225)*
G04*
G04 Layer_Color=16711935*
%FSLAX43Y43*%
%MOMM*%
G71*
G01*
G75*
%ADD10C,0.200*%
%ADD12C,0.127*%
%ADD31C,0.100*%
D10*
X36676Y54864D02*
G03*
X36676Y54864I-100J0D01*
G01*
D02*
G03*
X36676Y54864I-100J0D01*
G01*
X36930Y24765D02*
G03*
X36930Y24765I-100J0D01*
G01*
D02*
G03*
X36930Y24765I-100J0D01*
G01*
D12*
X37211Y57404D02*
X62611D01*
Y32004D02*
Y57404D01*
X37211Y32004D02*
X62611D01*
X37211D02*
Y57404D01*
X62611D01*
Y32004D02*
Y57404D01*
X37211Y32004D02*
X62611D01*
X37211D02*
Y57404D01*
X1361Y39504D02*
X9561D01*
X1361Y19504D02*
Y39504D01*
Y19504D02*
X9561D01*
Y39504D01*
X1361D02*
X9561D01*
X1361Y19504D02*
Y39504D01*
Y19504D02*
X9561D01*
Y39504D01*
X37465Y27305D02*
X62865D01*
Y1905D02*
Y27305D01*
X37465Y1905D02*
X62865D01*
X37465D02*
Y27305D01*
X62865D01*
Y1905D02*
Y27305D01*
X37465Y1905D02*
X62865D01*
X37465D02*
Y27305D01*
D31*
X29004Y48918D02*
X35004D01*
Y35918D02*
Y48918D01*
X29004Y35918D02*
X35004D01*
X29004D02*
Y48918D01*
X64437Y52220D02*
X70437D01*
Y39220D02*
Y52220D01*
X64437Y39220D02*
X70437D01*
X64437D02*
Y52220D01*
X25020Y30726D02*
Y55126D01*
X15620D02*
X25020D01*
X15620Y30726D02*
Y55126D01*
Y30726D02*
X25020D01*
X64056Y21613D02*
X70056D01*
Y8613D02*
Y21613D01*
X64056Y8613D02*
X70056D01*
X64056D02*
Y21613D01*
X29385Y18692D02*
X35385D01*
Y5692D02*
Y18692D01*
X29385Y5692D02*
X35385D01*
X29385D02*
Y18692D01*
X15620Y2151D02*
Y26551D01*
Y2151D02*
X25020D01*
Y26551D01*
X15620D02*
X25020D01*
M02*
