G04*
G04 #@! TF.GenerationSoftware,Altium Limited,Altium Designer,20.0.10 (225)*
G04*
G04 Layer_Physical_Order=1*
G04 Layer_Color=255*
%FSLAX43Y43*%
%MOMM*%
G71*
G01*
G75*
%ADD13C,0.254*%
%ADD22C,0.500*%
%ADD23C,1.100*%
%ADD24R,1.100X1.100*%
%ADD25C,2.250*%
%ADD26R,2.250X2.250*%
%ADD27C,2.100*%
%ADD28R,2.100X2.100*%
%ADD29R,1.650X1.650*%
%ADD30C,1.650*%
G36*
X83686Y515D02*
X-120D01*
Y59810D01*
X83686D01*
Y515D01*
D02*
G37*
%LPC*%
G36*
X38481Y56522D02*
X17421D01*
X17272Y56493D01*
X17146Y56409D01*
X16997Y56260D01*
X16913Y56134D01*
X16884Y55985D01*
Y49022D01*
X16907Y48902D01*
X16863Y48814D01*
X16828Y48772D01*
X16695Y48746D01*
X16569Y48662D01*
X5991Y38083D01*
X4382D01*
Y35925D01*
X6540D01*
Y37534D01*
X17005Y47999D01*
X17399D01*
X17548Y48028D01*
X17674Y48112D01*
X17822Y48261D01*
X17907Y48387D01*
X17936Y48536D01*
Y48746D01*
X17907Y48895D01*
X17822Y49021D01*
X17660Y49183D01*
Y55746D01*
X38320D01*
X38372Y55694D01*
Y53485D01*
X41130D01*
Y56243D01*
X38921D01*
X38756Y56409D01*
X38630Y56493D01*
X38481Y56522D01*
D02*
G37*
G36*
X32512Y48419D02*
Y47752D01*
X33179D01*
X33168Y47835D01*
X33087Y48030D01*
X32958Y48198D01*
X32790Y48327D01*
X32595Y48408D01*
X32512Y48419D01*
D02*
G37*
G36*
X32258D02*
X32175Y48408D01*
X31980Y48327D01*
X31812Y48198D01*
X31683Y48030D01*
X31602Y47835D01*
X31591Y47752D01*
X32258D01*
Y48419D01*
D02*
G37*
G36*
X39878Y48618D02*
Y47371D01*
X41125D01*
X41095Y47604D01*
X40956Y47939D01*
X40735Y48228D01*
X40446Y48449D01*
X40111Y48588D01*
X39878Y48618D01*
D02*
G37*
G36*
X39624D02*
X39391Y48588D01*
X39056Y48449D01*
X38767Y48228D01*
X38546Y47939D01*
X38407Y47604D01*
X38377Y47371D01*
X39624D01*
Y48618D01*
D02*
G37*
G36*
X60071Y56255D02*
X59711Y56208D01*
X59376Y56069D01*
X59087Y55848D01*
X58866Y55559D01*
X58727Y55224D01*
X58680Y54864D01*
X58727Y54504D01*
X58866Y54169D01*
X59087Y53880D01*
X59376Y53659D01*
X59711Y53520D01*
X60071Y53473D01*
X60431Y53520D01*
X60598Y53590D01*
X66638Y47550D01*
X66626Y47458D01*
X66654Y47248D01*
X66735Y47053D01*
X66864Y46885D01*
X67032Y46756D01*
X67227Y46675D01*
X67437Y46647D01*
X67647Y46675D01*
X67842Y46756D01*
X68010Y46885D01*
X68056Y46944D01*
X75785D01*
Y46916D01*
X78393D01*
Y49524D01*
X75785D01*
Y47972D01*
X68056D01*
X68010Y48031D01*
X67842Y48160D01*
X67647Y48241D01*
X67437Y48269D01*
X67380Y48261D01*
X61333Y54308D01*
X61415Y54504D01*
X61462Y54864D01*
X61415Y55224D01*
X61276Y55559D01*
X61055Y55848D01*
X60766Y56069D01*
X60431Y56208D01*
X60071Y56255D01*
D02*
G37*
G36*
X33179Y47498D02*
X32512D01*
Y46831D01*
X32595Y46842D01*
X32790Y46923D01*
X32958Y47052D01*
X33087Y47220D01*
X33168Y47415D01*
X33179Y47498D01*
D02*
G37*
G36*
X32258D02*
X31591D01*
X31602Y47415D01*
X31683Y47220D01*
X31812Y47052D01*
X31980Y46923D01*
X32175Y46842D01*
X32258Y46831D01*
Y47498D01*
D02*
G37*
G36*
X41125Y47117D02*
X39878D01*
Y45870D01*
X40111Y45900D01*
X40446Y46039D01*
X40735Y46260D01*
X40956Y46549D01*
X41095Y46884D01*
X41125Y47117D01*
D02*
G37*
G36*
X39624D02*
X38377D01*
X38407Y46884D01*
X38546Y46549D01*
X38767Y46260D01*
X39056Y46039D01*
X39391Y45900D01*
X39624Y45870D01*
Y47117D01*
D02*
G37*
G36*
X60071Y46095D02*
X59711Y46048D01*
X59376Y45909D01*
X59087Y45688D01*
X58866Y45399D01*
X58727Y45064D01*
X58680Y44704D01*
X58727Y44344D01*
X58866Y44009D01*
X59087Y43720D01*
X59376Y43499D01*
X59711Y43360D01*
X60071Y43313D01*
X60431Y43360D01*
X60766Y43499D01*
X61055Y43720D01*
X61276Y44009D01*
X61415Y44344D01*
X61462Y44704D01*
X61415Y45064D01*
X61276Y45399D01*
X61055Y45688D01*
X60766Y45909D01*
X60431Y46048D01*
X60071Y46095D01*
D02*
G37*
G36*
X68241Y45762D02*
X66633D01*
Y44154D01*
X66923D01*
Y42123D01*
X60613Y35812D01*
X60431Y35888D01*
X60071Y35935D01*
X59711Y35888D01*
X59376Y35749D01*
X59087Y35528D01*
X58866Y35239D01*
X58727Y34904D01*
X58680Y34544D01*
X58727Y34184D01*
X58866Y33849D01*
X59087Y33560D01*
X59376Y33339D01*
X59711Y33200D01*
X60071Y33153D01*
X60431Y33200D01*
X60766Y33339D01*
X61055Y33560D01*
X61276Y33849D01*
X61415Y34184D01*
X61462Y34544D01*
X61415Y34904D01*
X61339Y35086D01*
X67800Y41547D01*
X67912Y41713D01*
X67951Y41910D01*
Y44154D01*
X68241D01*
Y44444D01*
X75138D01*
X75878Y43704D01*
X75819Y43560D01*
X75774Y43220D01*
X75819Y42880D01*
X75950Y42562D01*
X76159Y42290D01*
X76431Y42081D01*
X76749Y41950D01*
X77089Y41905D01*
X77429Y41950D01*
X77747Y42081D01*
X78019Y42290D01*
X78228Y42562D01*
X78359Y42880D01*
X78404Y43220D01*
X78359Y43560D01*
X78228Y43878D01*
X78019Y44150D01*
X77747Y44359D01*
X77429Y44490D01*
X77089Y44535D01*
X76749Y44490D01*
X76605Y44431D01*
X75714Y45321D01*
X75548Y45433D01*
X75351Y45472D01*
X68241D01*
Y45762D01*
D02*
G37*
G36*
X20320Y55617D02*
X19960Y55570D01*
X19625Y55431D01*
X19336Y55210D01*
X19115Y54921D01*
X18976Y54586D01*
X18929Y54226D01*
X18976Y53866D01*
X19115Y53531D01*
X19336Y53242D01*
X19625Y53021D01*
X19960Y52882D01*
X20320Y52835D01*
X20680Y52882D01*
X20862Y52958D01*
X27172Y46647D01*
Y37487D01*
X27211Y37290D01*
X27323Y37123D01*
X27489Y37012D01*
X27686Y36973D01*
X27883Y37012D01*
X28049Y37123D01*
X32748Y41822D01*
X32860Y41989D01*
X32899Y42186D01*
Y44321D01*
X33189D01*
Y44611D01*
X36577D01*
X38483Y42706D01*
X38407Y42524D01*
X38360Y42164D01*
X38407Y41804D01*
X38546Y41469D01*
X38767Y41180D01*
X39056Y40959D01*
X39391Y40820D01*
X39751Y40773D01*
X40111Y40820D01*
X40446Y40959D01*
X40735Y41180D01*
X40956Y41469D01*
X41095Y41804D01*
X41142Y42164D01*
X41095Y42524D01*
X40956Y42859D01*
X40735Y43148D01*
X40446Y43369D01*
X40111Y43508D01*
X39751Y43555D01*
X39391Y43508D01*
X39209Y43432D01*
X37153Y45488D01*
X36987Y45600D01*
X36790Y45639D01*
X33189D01*
Y45929D01*
X31581D01*
Y44321D01*
X31871D01*
Y42399D01*
X28317Y38845D01*
X28200Y38893D01*
Y46860D01*
X28161Y47057D01*
X28049Y47223D01*
X21588Y53684D01*
X21664Y53866D01*
X21711Y54226D01*
X21664Y54586D01*
X21525Y54921D01*
X21304Y55210D01*
X21015Y55431D01*
X20680Y55570D01*
X20320Y55617D01*
D02*
G37*
G36*
X23495Y33535D02*
X17145D01*
X16996Y33506D01*
X16870Y33422D01*
X15841Y32392D01*
X6468D01*
X6404Y32548D01*
X6231Y32774D01*
X6005Y32947D01*
X5743Y33055D01*
X5461Y33092D01*
X5179Y33055D01*
X4917Y32947D01*
X4691Y32774D01*
X4518Y32548D01*
X4410Y32286D01*
X4373Y32004D01*
X4410Y31722D01*
X4518Y31460D01*
X4691Y31234D01*
X4917Y31061D01*
X5179Y30953D01*
X5461Y30916D01*
X5743Y30953D01*
X6005Y31061D01*
X6231Y31234D01*
X6404Y31460D01*
X6468Y31616D01*
X16002D01*
X16151Y31645D01*
X16277Y31729D01*
X17306Y32759D01*
X19333D01*
X19374Y32638D01*
X19336Y32610D01*
X19115Y32321D01*
X18976Y31986D01*
X18929Y31626D01*
X18976Y31266D01*
X19115Y30931D01*
X19336Y30642D01*
X19625Y30421D01*
X19806Y30346D01*
Y26931D01*
X19625Y26856D01*
X19336Y26635D01*
X19115Y26346D01*
X18976Y26011D01*
X18929Y25651D01*
X18976Y25291D01*
X19052Y25109D01*
X16460Y22518D01*
X6416D01*
X6404Y22548D01*
X6231Y22774D01*
X6005Y22947D01*
X5743Y23055D01*
X5461Y23092D01*
X5179Y23055D01*
X4917Y22947D01*
X4691Y22774D01*
X4518Y22548D01*
X4410Y22286D01*
X4373Y22004D01*
X4410Y21722D01*
X4518Y21460D01*
X4691Y21234D01*
X4917Y21061D01*
X5179Y20953D01*
X5461Y20916D01*
X5743Y20953D01*
X6005Y21061D01*
X6231Y21234D01*
X6404Y21460D01*
X6416Y21490D01*
X16673D01*
X16870Y21529D01*
X17036Y21641D01*
X19778Y24383D01*
X19960Y24307D01*
X20320Y24260D01*
X20680Y24307D01*
X21015Y24446D01*
X21304Y24667D01*
X21525Y24956D01*
X21664Y25291D01*
X21711Y25651D01*
X21664Y26011D01*
X21525Y26346D01*
X21304Y26635D01*
X21015Y26856D01*
X20834Y26931D01*
Y30346D01*
X21015Y30421D01*
X21304Y30642D01*
X21525Y30931D01*
X21664Y31266D01*
X21711Y31626D01*
X21664Y31986D01*
X21525Y32321D01*
X21304Y32610D01*
X21266Y32638D01*
X21307Y32759D01*
X23334D01*
X23601Y32491D01*
X23727Y32407D01*
X23876Y32378D01*
X31843D01*
X39388Y24833D01*
Y23386D01*
X42146D01*
Y26144D01*
X39388D01*
Y26097D01*
X39271Y26049D01*
X32279Y33041D01*
X32153Y33125D01*
X32004Y33154D01*
X24037D01*
X23770Y33422D01*
X23644Y33506D01*
X23495Y33535D01*
D02*
G37*
G36*
X5588Y28076D02*
Y27131D01*
X6533D01*
X6512Y27286D01*
X6404Y27548D01*
X6231Y27774D01*
X6005Y27947D01*
X5743Y28055D01*
X5588Y28076D01*
D02*
G37*
G36*
X5334D02*
X5179Y28055D01*
X4917Y27947D01*
X4691Y27774D01*
X4518Y27548D01*
X4410Y27286D01*
X4389Y27131D01*
X5334D01*
Y28076D01*
D02*
G37*
G36*
X6533Y26877D02*
X5588D01*
Y25932D01*
X5743Y25953D01*
X6005Y26061D01*
X6231Y26234D01*
X6404Y26460D01*
X6512Y26722D01*
X6533Y26877D01*
D02*
G37*
G36*
X5334D02*
X4389D01*
X4410Y26722D01*
X4518Y26460D01*
X4691Y26234D01*
X4917Y26061D01*
X5179Y25953D01*
X5334Y25932D01*
Y26877D01*
D02*
G37*
G36*
X40894Y18519D02*
Y17272D01*
X42141D01*
X42111Y17505D01*
X41972Y17840D01*
X41751Y18129D01*
X41462Y18350D01*
X41127Y18489D01*
X40894Y18519D01*
D02*
G37*
G36*
X40640D02*
X40407Y18489D01*
X40072Y18350D01*
X39783Y18129D01*
X39562Y17840D01*
X39423Y17505D01*
X39393Y17272D01*
X40640D01*
Y18519D01*
D02*
G37*
G36*
X32893Y17685D02*
Y17018D01*
X33560D01*
X33549Y17101D01*
X33468Y17296D01*
X33339Y17464D01*
X33171Y17593D01*
X32976Y17674D01*
X32893Y17685D01*
D02*
G37*
G36*
X32639D02*
X32556Y17674D01*
X32361Y17593D01*
X32193Y17464D01*
X32064Y17296D01*
X31983Y17101D01*
X31972Y17018D01*
X32639D01*
Y17685D01*
D02*
G37*
G36*
X61087Y26156D02*
X60727Y26109D01*
X60392Y25970D01*
X60103Y25749D01*
X59882Y25460D01*
X59743Y25125D01*
X59696Y24765D01*
X59743Y24405D01*
X59882Y24070D01*
X60103Y23781D01*
X60392Y23560D01*
X60727Y23421D01*
X61087Y23374D01*
X61447Y23421D01*
X61629Y23497D01*
X68033Y17092D01*
X68023Y17018D01*
X68051Y16808D01*
X68132Y16613D01*
X68261Y16445D01*
X68429Y16316D01*
X68624Y16235D01*
X68834Y16207D01*
X69044Y16235D01*
X69239Y16316D01*
X69407Y16445D01*
X69453Y16504D01*
X77256D01*
X77453Y16543D01*
X77619Y16655D01*
X77909Y16944D01*
X79790D01*
Y19552D01*
X77182D01*
Y17671D01*
X77043Y17532D01*
X69453D01*
X69407Y17591D01*
X69239Y17720D01*
X69044Y17801D01*
X68834Y17829D01*
X68760Y17819D01*
X62355Y24223D01*
X62431Y24405D01*
X62478Y24765D01*
X62431Y25125D01*
X62292Y25460D01*
X62071Y25749D01*
X61782Y25970D01*
X61447Y26109D01*
X61087Y26156D01*
D02*
G37*
G36*
X33560Y16764D02*
X32893D01*
Y16097D01*
X32976Y16108D01*
X33171Y16189D01*
X33339Y16318D01*
X33468Y16486D01*
X33549Y16681D01*
X33560Y16764D01*
D02*
G37*
G36*
X32639D02*
X31972D01*
X31983Y16681D01*
X32064Y16486D01*
X32193Y16318D01*
X32361Y16189D01*
X32556Y16108D01*
X32639Y16097D01*
Y16764D01*
D02*
G37*
G36*
X42141Y17018D02*
X40894D01*
Y15771D01*
X41127Y15801D01*
X41462Y15940D01*
X41751Y16161D01*
X41972Y16450D01*
X42111Y16785D01*
X42141Y17018D01*
D02*
G37*
G36*
X40640D02*
X39393D01*
X39423Y16785D01*
X39562Y16450D01*
X39783Y16161D01*
X40072Y15940D01*
X40407Y15801D01*
X40640Y15771D01*
Y17018D01*
D02*
G37*
G36*
X61087Y15996D02*
X60727Y15949D01*
X60392Y15810D01*
X60103Y15589D01*
X59882Y15300D01*
X59743Y14965D01*
X59696Y14605D01*
X59743Y14245D01*
X59882Y13910D01*
X60103Y13621D01*
X60392Y13400D01*
X60727Y13261D01*
X61087Y13214D01*
X61447Y13261D01*
X61782Y13400D01*
X62071Y13621D01*
X62292Y13910D01*
X62431Y14245D01*
X62478Y14605D01*
X62431Y14965D01*
X62292Y15300D01*
X62071Y15589D01*
X61782Y15810D01*
X61447Y15949D01*
X61087Y15996D01*
D02*
G37*
G36*
X69638Y15322D02*
X68030D01*
Y13714D01*
X68320D01*
Y12405D01*
X61629Y5713D01*
X61447Y5789D01*
X61087Y5836D01*
X60727Y5789D01*
X60392Y5650D01*
X60103Y5429D01*
X59882Y5140D01*
X59743Y4805D01*
X59696Y4445D01*
X59743Y4085D01*
X59882Y3750D01*
X60103Y3461D01*
X60392Y3240D01*
X60727Y3101D01*
X61087Y3054D01*
X61447Y3101D01*
X61782Y3240D01*
X62071Y3461D01*
X62292Y3750D01*
X62431Y4085D01*
X62478Y4445D01*
X62431Y4805D01*
X62355Y4987D01*
X69197Y11829D01*
X69309Y11995D01*
X69348Y12192D01*
Y13714D01*
X69638D01*
Y14004D01*
X76998D01*
X77273Y13728D01*
X77216Y13588D01*
X77171Y13248D01*
X77216Y12908D01*
X77347Y12590D01*
X77556Y12318D01*
X77828Y12109D01*
X78146Y11978D01*
X78486Y11933D01*
X78826Y11978D01*
X79144Y12109D01*
X79416Y12318D01*
X79625Y12590D01*
X79756Y12908D01*
X79801Y13248D01*
X79756Y13588D01*
X79625Y13906D01*
X79416Y14178D01*
X79144Y14387D01*
X78826Y14518D01*
X78486Y14563D01*
X78146Y14518D01*
X77998Y14457D01*
X77574Y14881D01*
X77407Y14993D01*
X77210Y15032D01*
X69638D01*
Y15322D01*
D02*
G37*
G36*
X33570Y15195D02*
X31962D01*
Y14314D01*
X27881Y10232D01*
X27769Y10066D01*
X27730Y9869D01*
Y3565D01*
X21600D01*
X21525Y3746D01*
X21304Y4035D01*
X21015Y4256D01*
X20680Y4394D01*
X20320Y4442D01*
X19960Y4394D01*
X19625Y4256D01*
X19336Y4035D01*
X19115Y3746D01*
X18976Y3411D01*
X18929Y3051D01*
X18976Y2691D01*
X19115Y2356D01*
X19336Y2067D01*
X19625Y1846D01*
X19960Y1707D01*
X20320Y1660D01*
X20680Y1707D01*
X21015Y1846D01*
X21304Y2067D01*
X21525Y2356D01*
X21600Y2537D01*
X28244D01*
X28441Y2576D01*
X28607Y2688D01*
X28719Y2854D01*
X28758Y3051D01*
Y9656D01*
X32689Y13587D01*
X33570D01*
Y13877D01*
X38228D01*
X39499Y12607D01*
X39423Y12425D01*
X39376Y12065D01*
X39423Y11705D01*
X39562Y11370D01*
X39783Y11081D01*
X40072Y10860D01*
X40407Y10721D01*
X40767Y10674D01*
X41127Y10721D01*
X41462Y10860D01*
X41751Y11081D01*
X41972Y11370D01*
X42111Y11705D01*
X42158Y12065D01*
X42111Y12425D01*
X41972Y12760D01*
X41751Y13049D01*
X41462Y13270D01*
X41127Y13409D01*
X40767Y13456D01*
X40407Y13409D01*
X40225Y13333D01*
X38804Y14754D01*
X38638Y14866D01*
X38441Y14905D01*
X33570D01*
Y15195D01*
D02*
G37*
%LPD*%
D13*
X17272Y49022D02*
Y55985D01*
X17421Y56134D02*
X38481D01*
X17272Y55985D02*
X17421Y56134D01*
X17548Y48536D02*
Y48746D01*
X16844Y48387D02*
X17399D01*
X17548Y48536D01*
X17272Y49022D02*
X17548Y48746D01*
X5461Y37004D02*
X16844Y48387D01*
X39751Y47244D02*
X40132D01*
X38481Y56134D02*
X39751Y54864D01*
X32004Y32766D02*
X40005Y24765D01*
X23876Y32766D02*
X32004D01*
X17145Y33147D02*
X23495D01*
X23876Y32766D01*
X5461Y32004D02*
X16002D01*
X17145Y33147D01*
X39981Y17169D02*
X40005Y17145D01*
X5351Y26894D02*
X5461Y27004D01*
X39664Y47331D02*
X39751Y47244D01*
D22*
X67437Y47458D02*
X76327D01*
X77089Y48220D01*
X60071Y54844D02*
Y54864D01*
Y54844D02*
X67437Y47478D01*
Y47458D02*
Y47478D01*
Y44958D02*
X75351D01*
X77089Y43220D01*
X60071Y34544D02*
X67437Y41910D01*
Y44958D01*
X68834Y17018D02*
X77256D01*
X78486Y18248D01*
X61087Y24765D02*
X68834Y17018D01*
Y14518D02*
X77210D01*
X78480Y13248D01*
X78486D01*
X61087Y4445D02*
X68834Y12192D01*
Y14518D01*
X32766Y14391D02*
X38441D01*
X40767Y12065D01*
X28244Y9869D02*
X32766Y14391D01*
X28244Y3051D02*
Y9869D01*
X32385Y45125D02*
X36790D01*
X39751Y42164D01*
X32385Y42186D02*
Y45125D01*
X27686Y37487D02*
X32385Y42186D01*
X20320Y3051D02*
X28244D01*
X27686Y37487D02*
Y46860D01*
X20320Y54226D02*
X27686Y46860D01*
X20320Y25651D02*
Y31626D01*
X5461Y22004D02*
X16673D01*
X20320Y25651D01*
D23*
X67437Y47458D02*
D03*
X32385Y47625D02*
D03*
X68834Y17018D02*
D03*
X32766Y16891D02*
D03*
D24*
X67437Y44958D02*
D03*
X32385Y45125D02*
D03*
X68834Y14518D02*
D03*
X32766Y14391D02*
D03*
D25*
X60071Y34544D02*
D03*
Y54864D02*
D03*
X39751Y42164D02*
D03*
Y47244D02*
D03*
X60071Y44704D02*
D03*
X20320Y54226D02*
D03*
Y31626D02*
D03*
X61087Y4445D02*
D03*
Y24765D02*
D03*
X40767Y12065D02*
D03*
Y17145D02*
D03*
X61087Y14605D02*
D03*
X20320Y3051D02*
D03*
Y25651D02*
D03*
D26*
X39751Y54864D02*
D03*
X40767Y24765D02*
D03*
D27*
X77089Y43220D02*
D03*
X78486Y13248D02*
D03*
D28*
X77089Y48220D02*
D03*
X78486Y18248D02*
D03*
D29*
X5461Y37004D02*
D03*
D30*
Y32004D02*
D03*
Y27004D02*
D03*
Y22004D02*
D03*
M02*
