G04*
G04 #@! TF.GenerationSoftware,Altium Limited,Altium Designer,20.0.10 (225)*
G04*
G04 Layer_Physical_Order=1*
G04 Layer_Color=255*
%FSLAX43Y43*%
%MOMM*%
G71*
G01*
G75*
%ADD13C,0.254*%
%ADD22C,0.500*%
%ADD23C,2.250*%
%ADD24R,2.250X2.250*%
%ADD25C,2.100*%
%ADD26R,2.100X2.100*%
%ADD27C,1.400*%
%ADD28R,1.400X1.400*%
%ADD29R,1.650X1.650*%
%ADD30C,1.650*%
G36*
X84201Y60198D02*
Y0D01*
X0D01*
X-381Y381D01*
Y60325D01*
X84074D01*
X84201Y60198D01*
D02*
G37*
%LPC*%
G36*
X38481Y56522D02*
X17421D01*
X17272Y56493D01*
X17146Y56409D01*
X16997Y56260D01*
X16913Y56134D01*
X16884Y55985D01*
Y49022D01*
X16907Y48902D01*
X16863Y48814D01*
X16828Y48772D01*
X16695Y48746D01*
X16569Y48662D01*
X5991Y38083D01*
X4382D01*
Y35925D01*
X6540D01*
Y37534D01*
X17005Y47999D01*
X17399D01*
X17548Y48028D01*
X17674Y48112D01*
X17822Y48261D01*
X17907Y48387D01*
X17936Y48536D01*
Y48746D01*
X17907Y48895D01*
X17822Y49021D01*
X17660Y49183D01*
Y55746D01*
X38320D01*
X38372Y55694D01*
Y53485D01*
X41130D01*
Y56243D01*
X38921D01*
X38756Y56409D01*
X38630Y56493D01*
X38481Y56522D01*
D02*
G37*
G36*
X32131Y48364D02*
Y47545D01*
X32950D01*
X32933Y47667D01*
X32837Y47899D01*
X32684Y48098D01*
X32485Y48251D01*
X32253Y48347D01*
X32131Y48364D01*
D02*
G37*
G36*
X31877D02*
X31755Y48347D01*
X31523Y48251D01*
X31324Y48098D01*
X31171Y47899D01*
X31075Y47667D01*
X31058Y47545D01*
X31877D01*
Y48364D01*
D02*
G37*
G36*
X39878Y48618D02*
Y47371D01*
X41125D01*
X41095Y47604D01*
X40956Y47939D01*
X40735Y48228D01*
X40446Y48449D01*
X40111Y48588D01*
X39878Y48618D01*
D02*
G37*
G36*
X39624D02*
X39391Y48588D01*
X39056Y48449D01*
X38767Y48228D01*
X38546Y47939D01*
X38407Y47604D01*
X38377Y47371D01*
X39624D01*
Y48618D01*
D02*
G37*
G36*
X32950Y47291D02*
X32131D01*
Y46472D01*
X32253Y46489D01*
X32485Y46585D01*
X32684Y46738D01*
X32837Y46937D01*
X32933Y47169D01*
X32950Y47291D01*
D02*
G37*
G36*
X31877D02*
X31058D01*
X31075Y47169D01*
X31171Y46937D01*
X31324Y46738D01*
X31523Y46585D01*
X31755Y46489D01*
X31877Y46472D01*
Y47291D01*
D02*
G37*
G36*
X41125Y47117D02*
X39878D01*
Y45870D01*
X40111Y45900D01*
X40446Y46039D01*
X40735Y46260D01*
X40956Y46549D01*
X41095Y46884D01*
X41125Y47117D01*
D02*
G37*
G36*
X39624D02*
X38377D01*
X38407Y46884D01*
X38546Y46549D01*
X38767Y46260D01*
X39056Y46039D01*
X39391Y45900D01*
X39624Y45870D01*
Y47117D01*
D02*
G37*
G36*
X60071Y56255D02*
X59711Y56208D01*
X59376Y56069D01*
X59087Y55848D01*
X58866Y55559D01*
X58727Y55224D01*
X58680Y54864D01*
X58727Y54504D01*
X58866Y54169D01*
X59087Y53880D01*
X59376Y53659D01*
X59711Y53520D01*
X60071Y53473D01*
X60431Y53520D01*
X60766Y53659D01*
X61055Y53880D01*
X61276Y54169D01*
X61351Y54350D01*
X63080D01*
X66502Y50928D01*
X66475Y50720D01*
X66508Y50471D01*
X66604Y50239D01*
X66757Y50040D01*
X66956Y49887D01*
X67188Y49791D01*
X67437Y49758D01*
X67645Y49785D01*
X71439Y45992D01*
X71605Y45880D01*
X71802Y45841D01*
X73031D01*
Y45051D01*
X75639D01*
Y47659D01*
X73031D01*
Y46869D01*
X72015D01*
X68372Y50512D01*
X68399Y50720D01*
X68366Y50969D01*
X68270Y51201D01*
X68117Y51400D01*
X67918Y51553D01*
X67686Y51649D01*
X67437Y51682D01*
X67229Y51655D01*
X63656Y55227D01*
X63490Y55339D01*
X63293Y55378D01*
X61351D01*
X61276Y55559D01*
X61055Y55848D01*
X60766Y56069D01*
X60431Y56208D01*
X60071Y56255D01*
D02*
G37*
G36*
X79335Y47670D02*
X78995Y47625D01*
X78677Y47494D01*
X78405Y47285D01*
X78196Y47013D01*
X78065Y46695D01*
X78020Y46355D01*
X78065Y46015D01*
X78124Y45871D01*
X73487Y41234D01*
X68391D01*
Y41674D01*
X66483D01*
Y41234D01*
X66247D01*
X66050Y41195D01*
X65884Y41083D01*
X60613Y35812D01*
X60431Y35888D01*
X60071Y35935D01*
X59711Y35888D01*
X59376Y35749D01*
X59087Y35528D01*
X58866Y35239D01*
X58727Y34904D01*
X58680Y34544D01*
X58727Y34184D01*
X58866Y33849D01*
X59087Y33560D01*
X59376Y33339D01*
X59711Y33200D01*
X60071Y33153D01*
X60431Y33200D01*
X60766Y33339D01*
X61055Y33560D01*
X61276Y33849D01*
X61415Y34184D01*
X61462Y34544D01*
X61415Y34904D01*
X61339Y35086D01*
X66356Y40102D01*
X66483Y40050D01*
Y39766D01*
X68391D01*
Y40206D01*
X73700D01*
X73897Y40245D01*
X74063Y40357D01*
X78851Y45144D01*
X78995Y45085D01*
X79335Y45040D01*
X79675Y45085D01*
X79993Y45216D01*
X80265Y45425D01*
X80474Y45697D01*
X80605Y46015D01*
X80650Y46355D01*
X80605Y46695D01*
X80474Y47013D01*
X80265Y47285D01*
X79993Y47494D01*
X79675Y47625D01*
X79335Y47670D01*
D02*
G37*
G36*
X60071Y46095D02*
X59711Y46048D01*
X59376Y45909D01*
X59087Y45688D01*
X58866Y45399D01*
X58727Y45064D01*
X58680Y44704D01*
X58727Y44344D01*
X58866Y44009D01*
X59087Y43720D01*
X59376Y43499D01*
X59711Y43360D01*
X60071Y43313D01*
X60431Y43360D01*
X60766Y43499D01*
X61055Y43720D01*
X61276Y44009D01*
X61415Y44344D01*
X61462Y44704D01*
X61415Y45064D01*
X61276Y45399D01*
X61055Y45688D01*
X60766Y45909D01*
X60431Y46048D01*
X60071Y46095D01*
D02*
G37*
G36*
X20320Y55617D02*
X19960Y55570D01*
X19625Y55431D01*
X19336Y55210D01*
X19115Y54921D01*
X18976Y54586D01*
X18929Y54226D01*
X18976Y53866D01*
X19115Y53531D01*
X19336Y53242D01*
X19625Y53021D01*
X19960Y52882D01*
X20320Y52835D01*
X20680Y52882D01*
X20862Y52958D01*
X27172Y46647D01*
Y37487D01*
X27211Y37290D01*
X27323Y37123D01*
X27412Y37064D01*
X27471Y36975D01*
X27638Y36863D01*
X27835Y36824D01*
X31050D01*
Y36464D01*
X32958D01*
Y37645D01*
X36963Y41650D01*
X38471D01*
X38546Y41469D01*
X38767Y41180D01*
X39056Y40959D01*
X39391Y40820D01*
X39751Y40773D01*
X40111Y40820D01*
X40446Y40959D01*
X40735Y41180D01*
X40956Y41469D01*
X41095Y41804D01*
X41142Y42164D01*
X41095Y42524D01*
X40956Y42859D01*
X40735Y43148D01*
X40446Y43369D01*
X40111Y43508D01*
X39751Y43555D01*
X39391Y43508D01*
X39056Y43369D01*
X38767Y43148D01*
X38546Y42859D01*
X38471Y42678D01*
X36750D01*
X36553Y42639D01*
X36387Y42527D01*
X32231Y38372D01*
X31050D01*
Y37852D01*
X28200D01*
Y46860D01*
X28161Y47057D01*
X28049Y47223D01*
X21588Y53684D01*
X21664Y53866D01*
X21711Y54226D01*
X21664Y54586D01*
X21525Y54921D01*
X21304Y55210D01*
X21015Y55431D01*
X20680Y55570D01*
X20320Y55617D01*
D02*
G37*
G36*
X23495Y33535D02*
X17145D01*
X16996Y33506D01*
X16870Y33422D01*
X15841Y32392D01*
X6468D01*
X6404Y32548D01*
X6231Y32774D01*
X6005Y32947D01*
X5743Y33055D01*
X5461Y33092D01*
X5179Y33055D01*
X4917Y32947D01*
X4691Y32774D01*
X4518Y32548D01*
X4410Y32286D01*
X4373Y32004D01*
X4410Y31722D01*
X4518Y31460D01*
X4691Y31234D01*
X4917Y31061D01*
X5179Y30953D01*
X5461Y30916D01*
X5743Y30953D01*
X6005Y31061D01*
X6231Y31234D01*
X6404Y31460D01*
X6468Y31616D01*
X16002D01*
X16151Y31645D01*
X16277Y31729D01*
X17306Y32759D01*
X19333D01*
X19374Y32638D01*
X19336Y32610D01*
X19115Y32321D01*
X18976Y31986D01*
X18929Y31626D01*
X18976Y31266D01*
X19115Y30931D01*
X19336Y30642D01*
X19625Y30421D01*
X19806Y30346D01*
Y26931D01*
X19625Y26856D01*
X19336Y26635D01*
X19115Y26346D01*
X18976Y26011D01*
X18929Y25651D01*
X18976Y25291D01*
X19052Y25109D01*
X16460Y22518D01*
X6416D01*
X6404Y22548D01*
X6231Y22774D01*
X6005Y22947D01*
X5743Y23055D01*
X5461Y23092D01*
X5179Y23055D01*
X4917Y22947D01*
X4691Y22774D01*
X4518Y22548D01*
X4410Y22286D01*
X4373Y22004D01*
X4410Y21722D01*
X4518Y21460D01*
X4691Y21234D01*
X4917Y21061D01*
X5179Y20953D01*
X5461Y20916D01*
X5743Y20953D01*
X6005Y21061D01*
X6231Y21234D01*
X6404Y21460D01*
X6416Y21490D01*
X16673D01*
X16870Y21529D01*
X17036Y21641D01*
X19778Y24383D01*
X19960Y24307D01*
X20320Y24260D01*
X20680Y24307D01*
X21015Y24446D01*
X21304Y24667D01*
X21525Y24956D01*
X21664Y25291D01*
X21711Y25651D01*
X21664Y26011D01*
X21525Y26346D01*
X21304Y26635D01*
X21015Y26856D01*
X20834Y26931D01*
Y30346D01*
X21015Y30421D01*
X21304Y30642D01*
X21525Y30931D01*
X21664Y31266D01*
X21711Y31626D01*
X21664Y31986D01*
X21525Y32321D01*
X21304Y32610D01*
X21266Y32638D01*
X21307Y32759D01*
X23334D01*
X23601Y32491D01*
X23727Y32407D01*
X23876Y32378D01*
X31843D01*
X38626Y25595D01*
Y23386D01*
X41384D01*
Y26144D01*
X39175D01*
X32279Y33041D01*
X32153Y33125D01*
X32004Y33154D01*
X24037D01*
X23770Y33422D01*
X23644Y33506D01*
X23495Y33535D01*
D02*
G37*
G36*
X5588Y28076D02*
Y27131D01*
X6533D01*
X6512Y27286D01*
X6404Y27548D01*
X6231Y27774D01*
X6005Y27947D01*
X5743Y28055D01*
X5588Y28076D01*
D02*
G37*
G36*
X5334D02*
X5179Y28055D01*
X4917Y27947D01*
X4691Y27774D01*
X4518Y27548D01*
X4410Y27286D01*
X4389Y27131D01*
X5334D01*
Y28076D01*
D02*
G37*
G36*
X6533Y26877D02*
X5588D01*
Y25932D01*
X5743Y25953D01*
X6005Y26061D01*
X6231Y26234D01*
X6404Y26460D01*
X6512Y26722D01*
X6533Y26877D01*
D02*
G37*
G36*
X5334D02*
X4389D01*
X4410Y26722D01*
X4518Y26460D01*
X4691Y26234D01*
X4917Y26061D01*
X5179Y25953D01*
X5334Y25932D01*
Y26877D01*
D02*
G37*
G36*
X32512Y18138D02*
Y17319D01*
X33331D01*
X33314Y17441D01*
X33218Y17673D01*
X33065Y17872D01*
X32866Y18025D01*
X32634Y18121D01*
X32512Y18138D01*
D02*
G37*
G36*
X32258D02*
X32136Y18121D01*
X31904Y18025D01*
X31705Y17872D01*
X31552Y17673D01*
X31456Y17441D01*
X31439Y17319D01*
X32258D01*
Y18138D01*
D02*
G37*
G36*
X40132Y18519D02*
Y17272D01*
X41379D01*
X41349Y17505D01*
X41210Y17840D01*
X40989Y18129D01*
X40700Y18350D01*
X40365Y18489D01*
X40132Y18519D01*
D02*
G37*
G36*
X39878D02*
X39645Y18489D01*
X39310Y18350D01*
X39021Y18129D01*
X38800Y17840D01*
X38661Y17505D01*
X38631Y17272D01*
X39878D01*
Y18519D01*
D02*
G37*
G36*
X33331Y17065D02*
X32512D01*
Y16246D01*
X32634Y16263D01*
X32866Y16359D01*
X33065Y16512D01*
X33218Y16711D01*
X33314Y16943D01*
X33331Y17065D01*
D02*
G37*
G36*
X32258D02*
X31439D01*
X31456Y16943D01*
X31552Y16711D01*
X31705Y16512D01*
X31904Y16359D01*
X32136Y16263D01*
X32258Y16246D01*
Y17065D01*
D02*
G37*
G36*
X41379Y17018D02*
X40132D01*
Y15771D01*
X40365Y15801D01*
X40700Y15940D01*
X40989Y16161D01*
X41210Y16450D01*
X41349Y16785D01*
X41379Y17018D01*
D02*
G37*
G36*
X39878D02*
X38631D01*
X38661Y16785D01*
X38800Y16450D01*
X39021Y16161D01*
X39310Y15940D01*
X39645Y15801D01*
X39878Y15771D01*
Y17018D01*
D02*
G37*
G36*
X60325Y26156D02*
X59965Y26109D01*
X59630Y25970D01*
X59341Y25749D01*
X59120Y25460D01*
X58981Y25125D01*
X58934Y24765D01*
X58981Y24405D01*
X59120Y24070D01*
X59341Y23781D01*
X59630Y23560D01*
X59965Y23421D01*
X60325Y23374D01*
X60685Y23421D01*
X61020Y23560D01*
X61309Y23781D01*
X61530Y24070D01*
X61605Y24251D01*
X62191D01*
X66121Y20321D01*
X66094Y20113D01*
X66127Y19864D01*
X66223Y19632D01*
X66376Y19433D01*
X66575Y19280D01*
X66807Y19184D01*
X67056Y19151D01*
X67264Y19178D01*
X71566Y14877D01*
X71732Y14765D01*
X71929Y14726D01*
X73285D01*
Y13936D01*
X75893D01*
Y16544D01*
X73285D01*
Y15754D01*
X72142D01*
X67991Y19905D01*
X68018Y20113D01*
X67985Y20362D01*
X67889Y20594D01*
X67736Y20793D01*
X67537Y20946D01*
X67305Y21042D01*
X67056Y21075D01*
X66848Y21048D01*
X62767Y25128D01*
X62601Y25240D01*
X62404Y25279D01*
X61605D01*
X61530Y25460D01*
X61309Y25749D01*
X61020Y25970D01*
X60685Y26109D01*
X60325Y26156D01*
D02*
G37*
G36*
X79589Y16555D02*
X79249Y16510D01*
X78931Y16379D01*
X78659Y16170D01*
X78450Y15898D01*
X78319Y15580D01*
X78274Y15240D01*
X78319Y14900D01*
X78378Y14756D01*
X74249Y10627D01*
X68010D01*
Y11067D01*
X66102D01*
Y10627D01*
X65993D01*
X65796Y10588D01*
X65630Y10476D01*
X60867Y5713D01*
X60685Y5789D01*
X60325Y5836D01*
X59965Y5789D01*
X59630Y5650D01*
X59341Y5429D01*
X59120Y5140D01*
X58981Y4805D01*
X58934Y4445D01*
X58981Y4085D01*
X59120Y3750D01*
X59341Y3461D01*
X59630Y3240D01*
X59965Y3101D01*
X60325Y3054D01*
X60685Y3101D01*
X61020Y3240D01*
X61309Y3461D01*
X61530Y3750D01*
X61669Y4085D01*
X61716Y4445D01*
X61669Y4805D01*
X61593Y4987D01*
X65985Y9378D01*
X66102Y9329D01*
Y9159D01*
X68010D01*
Y9599D01*
X74462D01*
X74659Y9638D01*
X74825Y9750D01*
X79105Y14029D01*
X79249Y13970D01*
X79589Y13925D01*
X79929Y13970D01*
X80247Y14101D01*
X80519Y14310D01*
X80728Y14582D01*
X80859Y14900D01*
X80904Y15240D01*
X80859Y15580D01*
X80728Y15898D01*
X80519Y16170D01*
X80247Y16379D01*
X79929Y16510D01*
X79589Y16555D01*
D02*
G37*
G36*
X60325Y15996D02*
X59965Y15949D01*
X59630Y15810D01*
X59341Y15589D01*
X59120Y15300D01*
X58981Y14965D01*
X58934Y14605D01*
X58981Y14245D01*
X59120Y13910D01*
X59341Y13621D01*
X59630Y13400D01*
X59965Y13261D01*
X60325Y13214D01*
X60685Y13261D01*
X61020Y13400D01*
X61309Y13621D01*
X61530Y13910D01*
X61669Y14245D01*
X61716Y14605D01*
X61669Y14965D01*
X61530Y15300D01*
X61309Y15589D01*
X61020Y15810D01*
X60685Y15949D01*
X60325Y15996D01*
D02*
G37*
G36*
X40005Y13456D02*
X39645Y13409D01*
X39310Y13270D01*
X39021Y13049D01*
X38800Y12760D01*
X38725Y12579D01*
X37258D01*
X37061Y12540D01*
X36895Y12428D01*
X32612Y8146D01*
X31431D01*
Y6965D01*
X28031Y3565D01*
X21600D01*
X21525Y3746D01*
X21304Y4035D01*
X21015Y4256D01*
X20680Y4394D01*
X20320Y4442D01*
X19960Y4394D01*
X19625Y4256D01*
X19336Y4035D01*
X19115Y3746D01*
X18976Y3411D01*
X18929Y3051D01*
X18976Y2691D01*
X19115Y2356D01*
X19336Y2067D01*
X19625Y1846D01*
X19960Y1707D01*
X20320Y1660D01*
X20680Y1707D01*
X21015Y1846D01*
X21304Y2067D01*
X21525Y2356D01*
X21600Y2537D01*
X28244D01*
X28441Y2576D01*
X28607Y2688D01*
X32158Y6238D01*
X33339D01*
Y7419D01*
X37471Y11551D01*
X38725D01*
X38800Y11370D01*
X39021Y11081D01*
X39310Y10860D01*
X39645Y10721D01*
X40005Y10674D01*
X40365Y10721D01*
X40700Y10860D01*
X40989Y11081D01*
X41210Y11370D01*
X41349Y11705D01*
X41396Y12065D01*
X41349Y12425D01*
X41210Y12760D01*
X40989Y13049D01*
X40700Y13270D01*
X40365Y13409D01*
X40005Y13456D01*
D02*
G37*
%LPD*%
D13*
X17272Y49022D02*
Y55985D01*
X17421Y56134D02*
X38481D01*
X17272Y55985D02*
X17421Y56134D01*
X17548Y48536D02*
Y48746D01*
X16844Y48387D02*
X17399D01*
X17548Y48536D01*
X17272Y49022D02*
X17548Y48746D01*
X5461Y37004D02*
X16844Y48387D01*
X39751Y47244D02*
X40132D01*
X38481Y56134D02*
X39751Y54864D01*
X32004Y32766D02*
X40005Y24765D01*
X23876Y32766D02*
X32004D01*
X17145Y33147D02*
X23495D01*
X23876Y32766D01*
X5461Y32004D02*
X16002D01*
X17145Y33147D01*
X39981Y17169D02*
X40005Y17145D01*
X32385Y17192D02*
X32409Y17169D01*
X5351Y26894D02*
X5461Y27004D01*
X32004Y47418D02*
X32091Y47331D01*
X39664D02*
X39751Y47244D01*
X31924Y37338D02*
X32004Y37418D01*
X27686Y37487D02*
X27835Y37338D01*
D22*
X67437Y40720D02*
X73700D01*
X79335Y46355D01*
X67437Y50720D02*
X71802Y46355D01*
X74335D01*
X60071Y54864D02*
X63293D01*
X67437Y50720D01*
X60071Y34544D02*
X66247Y40720D01*
X67437D01*
X67056Y20113D02*
X71929Y15240D01*
X74589D01*
X60325Y24765D02*
X62404D01*
X67056Y20113D01*
Y10113D02*
X74462D01*
X79589Y15240D01*
X60325Y4445D02*
X65993Y10113D01*
X67056D01*
X37258Y12065D02*
X40005D01*
X32385Y7192D02*
X37258Y12065D01*
X20320Y3051D02*
X28244D01*
X32385Y7192D01*
X32004Y37418D02*
X36750Y42164D01*
X39751D01*
X27686Y37487D02*
Y46860D01*
X27835Y37338D02*
X31924D01*
X20320Y54226D02*
X27686Y46860D01*
X20320Y25651D02*
Y31626D01*
X5461Y22004D02*
X16673D01*
X20320Y25651D01*
D23*
X60071Y34544D02*
D03*
Y54864D02*
D03*
X39751Y42164D02*
D03*
Y47244D02*
D03*
X60071Y44704D02*
D03*
X20320Y54226D02*
D03*
Y31626D02*
D03*
X60325Y4445D02*
D03*
Y24765D02*
D03*
X40005Y12065D02*
D03*
Y17145D02*
D03*
X60325Y14605D02*
D03*
X20320Y3051D02*
D03*
Y25651D02*
D03*
D24*
X39751Y54864D02*
D03*
X40005Y24765D02*
D03*
D25*
X79335Y46355D02*
D03*
X79589Y15240D02*
D03*
D26*
X74335Y46355D02*
D03*
X74589Y15240D02*
D03*
D27*
X32004Y47418D02*
D03*
X67437Y50720D02*
D03*
X67056Y20113D02*
D03*
X32385Y17192D02*
D03*
D28*
X32004Y37418D02*
D03*
X67437Y40720D02*
D03*
X67056Y10113D02*
D03*
X32385Y7192D02*
D03*
D29*
X5461Y37004D02*
D03*
D30*
Y32004D02*
D03*
Y27004D02*
D03*
Y22004D02*
D03*
M02*
