G04*
G04 #@! TF.GenerationSoftware,Altium Limited,Altium Designer,20.0.10 (225)*
G04*
G04 Layer_Color=65535*
%FSLAX43Y43*%
%MOMM*%
G71*
G01*
G75*
%ADD10C,0.200*%
%ADD11C,0.400*%
%ADD12C,0.127*%
%ADD13C,0.254*%
D10*
X70587Y46208D02*
G03*
X70587Y46208I-3150J0D01*
G01*
X35535Y46375D02*
G03*
X35535Y46375I-3150J0D01*
G01*
X71984Y15768D02*
G03*
X71984Y15768I-3150J0D01*
G01*
X35916Y15641D02*
G03*
X35916Y15641I-3150J0D01*
G01*
X36676Y54864D02*
G03*
X36676Y54864I-100J0D01*
G01*
X82789Y48220D02*
G03*
X82789Y48220I-100J0D01*
G01*
X37692Y24765D02*
G03*
X37692Y24765I-100J0D01*
G01*
X84186Y18248D02*
G03*
X84186Y18248I-100J0D01*
G01*
X15620Y30726D02*
Y55126D01*
X25020Y30726D02*
Y55126D01*
X21420Y30726D02*
X25020D01*
X15620D02*
X19220D01*
X21420Y55126D02*
X25020D01*
X15620D02*
X19220D01*
X25020Y2151D02*
Y26551D01*
X15620Y2151D02*
Y26551D01*
X19220D01*
X21420D02*
X25020D01*
X15620Y2151D02*
X19220D01*
X21420D02*
X25020D01*
D11*
X5661Y40149D02*
G03*
X5661Y40149I-200J0D01*
G01*
D12*
X37211Y57404D02*
X62611D01*
Y32004D02*
Y57404D01*
X37211Y32004D02*
X62611D01*
X37211D02*
Y57404D01*
X72089Y40720D02*
Y50720D01*
Y40720D02*
X82089D01*
Y50720D01*
X72089D02*
X82089D01*
X1361Y39504D02*
X9561D01*
X1361Y19504D02*
Y39504D01*
Y19504D02*
X9561D01*
Y39504D01*
X38227Y27305D02*
X63627D01*
Y1905D02*
Y27305D01*
X38227Y1905D02*
X63627D01*
X38227D02*
Y27305D01*
X73486Y10748D02*
Y20748D01*
Y10748D02*
X83486D01*
Y20748D01*
X73486D02*
X83486D01*
D13*
X65024Y51917D02*
X64770Y52171D01*
X64262D01*
X64008Y51917D01*
Y50902D01*
X64262Y50648D01*
X64770D01*
X65024Y50902D01*
X66547Y50648D02*
X65532D01*
X66547Y51663D01*
Y51917D01*
X66293Y52171D01*
X65785D01*
X65532Y51917D01*
X29972Y52070D02*
X29718Y52324D01*
X29210D01*
X28956Y52070D01*
Y51054D01*
X29210Y50800D01*
X29718D01*
X29972Y51054D01*
X30480Y50800D02*
X30987D01*
X30733D01*
Y52324D01*
X30480Y52070D01*
X66421Y21463D02*
X66167Y21717D01*
X65659D01*
X65405Y21463D01*
Y20447D01*
X65659Y20193D01*
X66167D01*
X66421Y20447D01*
X67690Y20193D02*
Y21717D01*
X66929Y20955D01*
X67944D01*
X30353Y21336D02*
X30099Y21590D01*
X29591D01*
X29337Y21336D01*
Y20320D01*
X29591Y20066D01*
X30099D01*
X30353Y20320D01*
X30861Y21336D02*
X31114Y21590D01*
X31622D01*
X31876Y21336D01*
Y21082D01*
X31622Y20828D01*
X31368D01*
X31622D01*
X31876Y20574D01*
Y20320D01*
X31622Y20066D01*
X31114D01*
X30861Y20320D01*
X15649Y29283D02*
X16665Y27759D01*
Y29283D02*
X15649Y27759D01*
X18189Y29283D02*
X17173D01*
Y28521D01*
X17681D01*
X17173D01*
Y27759D01*
X19712D02*
X18696D01*
X19712Y28775D01*
Y29029D01*
X19458Y29283D01*
X18950D01*
X18696Y29029D01*
X15646Y57861D02*
X16662Y56337D01*
Y57861D02*
X15646Y56337D01*
X18186Y57861D02*
X17170D01*
Y57099D01*
X17678D01*
X17170D01*
Y56337D01*
X18693D02*
X19201D01*
X18947D01*
Y57861D01*
X18693Y57607D01*
X37655Y28334D02*
Y29857D01*
X38417D01*
X38671Y29603D01*
Y29095D01*
X38417Y28842D01*
X37655D01*
X40195Y29603D02*
X39941Y29857D01*
X39433D01*
X39179Y29603D01*
Y29349D01*
X39433Y29095D01*
X39941D01*
X40195Y28842D01*
Y28588D01*
X39941Y28334D01*
X39433D01*
X39179Y28588D01*
X41718Y28334D02*
X40703D01*
X41718Y29349D01*
Y29603D01*
X41464Y29857D01*
X40956D01*
X40703Y29603D01*
X36639Y58433D02*
Y59956D01*
X37401D01*
X37655Y59702D01*
Y59194D01*
X37401Y58941D01*
X36639D01*
X39179Y59702D02*
X38925Y59956D01*
X38417D01*
X38163Y59702D01*
Y59448D01*
X38417Y59194D01*
X38925D01*
X39179Y58941D01*
Y58687D01*
X38925Y58433D01*
X38417D01*
X38163Y58687D01*
X39687Y58433D02*
X40194D01*
X39940D01*
Y59956D01*
X39687Y59702D01*
X2362Y42839D02*
X1854D01*
X2108D01*
Y41569D01*
X1854Y41315D01*
X1600D01*
X1346Y41569D01*
X2870Y42585D02*
X3124Y42839D01*
X3631D01*
X3885Y42585D01*
Y42331D01*
X3631Y42077D01*
X3378D01*
X3631D01*
X3885Y41823D01*
Y41569D01*
X3631Y41315D01*
X3124D01*
X2870Y41569D01*
X73075Y53289D02*
X72568D01*
X72822D01*
Y52019D01*
X72568Y51765D01*
X72314D01*
X72060Y52019D01*
X74599Y51765D02*
X73583D01*
X74599Y52781D01*
Y53035D01*
X74345Y53289D01*
X73837D01*
X73583Y53035D01*
X74472Y23317D02*
X73965D01*
X74219D01*
Y22047D01*
X73965Y21793D01*
X73711D01*
X73457Y22047D01*
X74980Y21793D02*
X75488D01*
X75234D01*
Y23317D01*
X74980Y23063D01*
M02*
