M48
;Layer_Color=9474304
;FILE_FORMAT=4:4
METRIC,LZ
;TYPE=PLATED
T1F00S00C0.7000
T2F00S00C1.1000
T3F00S00C1.4000
T4F00S00C1.5000
%
T01
X0032766Y0014391
Y0016891
X0068834Y0017018
Y0014518
X0067437Y0044958
Y0047458
X0032385Y0047625
Y0045125
T02
X0005461Y0022004
Y0027004
Y0032004
Y0037004
T03
X0078486Y0013248
Y0018248
X0077089Y004322
Y004822
T04
X0040767Y0012065
Y0017145
Y0024765
X0061087
Y0014605
Y0004445
X0060071Y0034544
X002032Y0031626
Y0025651
Y0003051
Y0054226
X0039751Y0054864
Y0047244
Y0042164
X0060071Y0044704
Y0054864
M30
