G04*
G04 #@! TF.GenerationSoftware,Altium Limited,Altium Designer,20.0.10 (225)*
G04*
G04 Layer_Color=16711935*
%FSLAX25Y25*%
%MOIN*%
G70*
G01*
G75*
%ADD10C,0.00787*%
%ADD12C,0.00500*%
%ADD29C,0.00394*%
D10*
X144394Y216000D02*
G03*
X144394Y216000I-394J0D01*
G01*
D02*
G03*
X144394Y216000I-394J0D01*
G01*
X145394Y97500D02*
G03*
X145394Y97500I-394J0D01*
G01*
D02*
G03*
X145394Y97500I-394J0D01*
G01*
D12*
X146500Y226000D02*
X246500D01*
Y126000D02*
Y226000D01*
X146500Y126000D02*
X246500D01*
X146500D02*
Y226000D01*
X246500D01*
Y126000D02*
Y226000D01*
X146500Y126000D02*
X246500D01*
X146500D02*
Y226000D01*
X5358Y155528D02*
X37642D01*
X5358Y76787D02*
Y155528D01*
Y76787D02*
X37642D01*
Y155528D01*
X5358D02*
X37642D01*
X5358Y76787D02*
Y155528D01*
Y76787D02*
X37642D01*
Y155528D01*
X147500Y107500D02*
X247500D01*
Y7500D02*
Y107500D01*
X147500Y7500D02*
X247500D01*
X147500D02*
Y107500D01*
X247500D01*
Y7500D02*
Y107500D01*
X147500Y7500D02*
X247500D01*
X147500D02*
Y107500D01*
D29*
X253567Y173031D02*
Y197047D01*
X274433D01*
Y173031D02*
Y197047D01*
X253567Y173031D02*
X274433D01*
X111567Y42031D02*
Y66047D01*
X132433D01*
Y42031D02*
Y66047D01*
X111567Y42031D02*
X132433D01*
X253067Y37453D02*
Y61468D01*
X273933D01*
Y37453D02*
Y61468D01*
X253067Y37453D02*
X273933D01*
X114067Y163492D02*
Y187508D01*
X134933D01*
Y163492D02*
Y187508D01*
X114067Y163492D02*
X134933D01*
X98504Y120968D02*
Y217032D01*
X61496D02*
X98504D01*
X61496Y120968D02*
Y217032D01*
Y120968D02*
X98504D01*
X61496Y8468D02*
Y104532D01*
Y8468D02*
X98504D01*
Y104532D01*
X61496D02*
X98504D01*
M02*
