G04*
G04 #@! TF.GenerationSoftware,Altium Limited,Altium Designer,20.0.10 (225)*
G04*
G04 Layer_Color=32768*
%FSLAX43Y43*%
%MOMM*%
G71*
G01*
G75*
%ADD31C,0.100*%
%ADD32C,0.050*%
D31*
X31504Y42418D02*
X32504D01*
X32004Y41918D02*
Y42918D01*
X66937Y45720D02*
X67937D01*
X67437Y45220D02*
Y46220D01*
X66556Y15113D02*
X67556D01*
X67056Y14613D02*
Y15613D01*
X31885Y12192D02*
X32885D01*
X32385Y11692D02*
Y12692D01*
D32*
X36961Y57654D02*
X62861D01*
Y31754D02*
Y57654D01*
X36961Y31754D02*
X62861D01*
X36961D02*
Y57654D01*
X28904Y49018D02*
X35104D01*
Y35818D02*
Y49018D01*
X28904Y35818D02*
X35104D01*
X28904D02*
Y49018D01*
X64337Y52320D02*
X70537D01*
Y39120D02*
Y52320D01*
X64337Y39120D02*
X70537D01*
X64337D02*
Y52320D01*
X19820Y42926D02*
X20820D01*
X20320Y42426D02*
Y43426D01*
X15420Y30301D02*
X25220D01*
Y55551D01*
X15420D02*
X25220D01*
X15420Y30301D02*
Y55551D01*
X9811Y19254D02*
Y39754D01*
X1111Y19254D02*
X9811D01*
X1111D02*
Y39754D01*
X9811D01*
X37215Y27555D02*
X63115D01*
Y1655D02*
Y27555D01*
X37215Y1655D02*
X63115D01*
X37215D02*
Y27555D01*
X63956Y21713D02*
X70156D01*
Y8513D02*
Y21713D01*
X63956Y8513D02*
X70156D01*
X63956D02*
Y21713D01*
X29285Y18792D02*
X35485D01*
Y5592D02*
Y18792D01*
X29285Y5592D02*
X35485D01*
X29285D02*
Y18792D01*
X19820Y14351D02*
X20820D01*
X20320Y13851D02*
Y14851D01*
X15420Y26976D02*
X25220D01*
X15420Y1726D02*
Y26976D01*
Y1726D02*
X25220D01*
Y26976D01*
M02*
