M48
;Layer_Color=9474304
;FILE_FORMAT=2:5
INCH,LZ
;TYPE=PLATED
T1F00S00C0.03543
T2F00S00C0.04331
T3F00S00C0.05512
T4F00S00C0.05906
%
T01
X01275Y0028315
Y0067685
X0126Y0147315
X0264Y0079185
Y0039815
X02655Y0160315
Y0199685
X0126Y0186685
T02
X00215Y008663
Y0106315
Y0126
Y0145685
T03
X0293657Y006
X0313342
X0312343Y01825
X0292657
T04
X01575Y00475
Y00675
Y00975
X02375
X02365Y0136
X02375Y00575
Y00175
X008Y0012012
Y0100988
Y0124512
Y0213488
X01565Y0216
Y0186
Y0166
X02365Y0176
Y0216
M30
