G04*
G04 #@! TF.GenerationSoftware,Altium Limited,Altium Designer,20.0.10 (225)*
G04*
G04 Layer_Color=65535*
%FSLAX25Y25*%
%MOIN*%
G70*
G01*
G75*
%ADD10C,0.00787*%
%ADD11C,0.01575*%
%ADD12C,0.00500*%
%ADD13C,0.01000*%
D10*
X144394Y216000D02*
G03*
X144394Y216000I-394J0D01*
G01*
X293051Y204547D02*
G03*
X293051Y204547I-394J0D01*
G01*
X145394Y97500D02*
G03*
X145394Y97500I-394J0D01*
G01*
X294051Y82047D02*
G03*
X294051Y82047I-394J0D01*
G01*
X253961Y185039D02*
X274039D01*
X111961Y54039D02*
X132039D01*
X253461Y49461D02*
X273539D01*
X114461Y175500D02*
X134539D01*
X61496Y120968D02*
Y217032D01*
X98504Y120968D02*
Y217032D01*
X84331Y120968D02*
X98504D01*
X61496D02*
X75669D01*
X84331Y217032D02*
X98504D01*
X61496D02*
X75669D01*
X98504Y8468D02*
Y104532D01*
X61496Y8468D02*
Y104532D01*
X75669D01*
X84331D02*
X98504D01*
X61496Y8468D02*
X75669D01*
X84331D02*
X98504D01*
D11*
X22287Y158067D02*
G03*
X22287Y158067I-787J0D01*
G01*
D12*
X146500Y226000D02*
X246500D01*
Y126000D02*
Y226000D01*
X146500Y126000D02*
X246500D01*
X146500D02*
Y226000D01*
X282815Y162815D02*
X322185D01*
Y202185D01*
X282815D02*
X322185D01*
X282815Y162815D02*
Y202185D01*
X5358Y155528D02*
X37642D01*
X5358Y76787D02*
Y155528D01*
Y76787D02*
X37642D01*
Y155528D01*
X147500Y107500D02*
X247500D01*
Y7500D02*
Y107500D01*
X147500Y7500D02*
X247500D01*
X147500D02*
Y107500D01*
X283815Y40315D02*
X323185D01*
Y79685D01*
X283815D02*
X323185D01*
X283815Y40315D02*
Y79685D01*
D13*
X257399Y207538D02*
X256399Y208537D01*
X254400D01*
X253400Y207538D01*
Y203539D01*
X254400Y202539D01*
X256399D01*
X257399Y203539D01*
X259398Y207538D02*
X260398Y208537D01*
X262397D01*
X263397Y207538D01*
Y206538D01*
X262397Y205538D01*
X261397D01*
X262397D01*
X263397Y204539D01*
Y203539D01*
X262397Y202539D01*
X260398D01*
X259398Y203539D01*
X256149Y83509D02*
X255149Y84509D01*
X253150D01*
X252150Y83509D01*
Y79510D01*
X253150Y78511D01*
X255149D01*
X256149Y79510D01*
X261147Y78511D02*
Y84509D01*
X258148Y81510D01*
X262147D01*
X61612Y115286D02*
X65610Y109288D01*
Y115286D02*
X61612Y109288D01*
X71609Y115286D02*
X67610D01*
Y112287D01*
X69609D01*
X67610D01*
Y109288D01*
X77607D02*
X73608D01*
X77607Y113287D01*
Y114287D01*
X76607Y115286D01*
X74608D01*
X73608Y114287D01*
X61600Y227798D02*
X65599Y221800D01*
Y227798D02*
X61600Y221800D01*
X71597Y227798D02*
X67598D01*
Y224799D01*
X69597D01*
X67598D01*
Y221800D01*
X73596D02*
X75595D01*
X74596D01*
Y227798D01*
X73596Y226798D01*
X145250Y111550D02*
Y117548D01*
X148249D01*
X149249Y116548D01*
Y114549D01*
X148249Y113549D01*
X145250D01*
X155247Y116548D02*
X154247Y117548D01*
X152248D01*
X151248Y116548D01*
Y115549D01*
X152248Y114549D01*
X154247D01*
X155247Y113549D01*
Y112550D01*
X154247Y111550D01*
X152248D01*
X151248Y112550D01*
X161245Y111550D02*
X157246D01*
X161245Y115549D01*
Y116548D01*
X160245Y117548D01*
X158246D01*
X157246Y116548D01*
X144250Y230050D02*
Y236048D01*
X147249D01*
X148249Y235048D01*
Y233049D01*
X147249Y232049D01*
X144250D01*
X154247Y235048D02*
X153247Y236048D01*
X151248D01*
X150248Y235048D01*
Y234049D01*
X151248Y233049D01*
X153247D01*
X154247Y232049D01*
Y231050D01*
X153247Y230050D01*
X151248D01*
X150248Y231050D01*
X156246Y230050D02*
X158246D01*
X157246D01*
Y236048D01*
X156246Y235048D01*
X9299Y168656D02*
X7299D01*
X8299D01*
Y163657D01*
X7299Y162657D01*
X6300D01*
X5300Y163657D01*
X11298Y167656D02*
X12298Y168656D01*
X14297D01*
X15297Y167656D01*
Y166656D01*
X14297Y165656D01*
X13297D01*
X14297D01*
X15297Y164657D01*
Y163657D01*
X14297Y162657D01*
X12298D01*
X11298Y163657D01*
X286749Y214348D02*
X284749D01*
X285749D01*
Y209350D01*
X284749Y208350D01*
X283750D01*
X282750Y209350D01*
X292747Y208350D02*
X288748D01*
X292747Y212349D01*
Y213348D01*
X291747Y214348D01*
X289748D01*
X288748Y213348D01*
X287749Y91848D02*
X285749D01*
X286749D01*
Y86850D01*
X285749Y85850D01*
X284750D01*
X283750Y86850D01*
X289748Y85850D02*
X291747D01*
X290748D01*
Y91848D01*
X289748Y90848D01*
X115399Y76538D02*
X114399Y77537D01*
X112400D01*
X111400Y76538D01*
Y72539D01*
X112400Y71539D01*
X114399D01*
X115399Y72539D01*
X121397Y71539D02*
X117398D01*
X121397Y75538D01*
Y76538D01*
X120397Y77537D01*
X118398D01*
X117398Y76538D01*
X117149Y209548D02*
X116149Y210548D01*
X114150D01*
X113150Y209548D01*
Y205550D01*
X114150Y204550D01*
X116149D01*
X117149Y205550D01*
X119148Y204550D02*
X121147D01*
X120148D01*
Y210548D01*
X119148Y209548D01*
M02*
